<?xml version="1.0" encoding="UTF-8" standalone="no"?>
<!DOCTYPE svg PUBLIC "-//W3C//DTD SVG 1.1//EN" "http://www.w3.org/Graphics/SVG/1.1/DTD/svg11.dtd">
<svg width="100%" height="100%" viewBox="0 0 785 785" version="1.1" xmlns="http://www.w3.org/2000/svg" xmlns:xlink="http://www.w3.org/1999/xlink" xml:space="preserve" xmlns:serif="http://www.serif.com/" style="fill-rule:evenodd;clip-rule:evenodd;stroke-linecap:round;stroke-linejoin:round;stroke-miterlimit:1.5;">
    <g transform="matrix(3.125,0,0,3.125,0,0)">
        <g transform="matrix(1,0,0,1,-797.744,-1289.25)">
            <circle cx="923.197" cy="1414.7" r="123.37" style="fill:url(#_Radial1);stroke:black;stroke-width:4.17px;"/>
        </g>
        <g id="microchip-ai.svg" transform="matrix(6.79362,0,0,6.79362,122.835,125.624)">
            <g transform="matrix(1,0,0,1,-12,-12)">
                <clipPath id="_clip2">
                    <rect x="0" y="0" width="24" height="24"/>
                </clipPath>
                <g clip-path="url(#_clip2)">
                    <path d="M23.5,9C23.776,9 24,8.776 24,8.5C24,8.224 23.776,8 23.5,8L22,8L22,6.5C22,6.331 21.99,6.164 21.972,6L23.5,6C23.776,6 24,5.776 24,5.5C24,5.224 23.776,5 23.5,5L21.743,5C21.29,3.723 20.277,2.71 19,2.257L19,0.5C19,0.224 18.776,0 18.5,0C18.224,0 18,0.224 18,0.5L18,2.028C17.836,2.01 17.669,2 17.5,2L16,2L16,0.5C16,0.224 15.776,0 15.5,0C15.224,0 15,0.224 15,0.5L15,2L12.5,2L12.5,0.5C12.5,0.224 12.276,0 12,0C11.724,0 11.5,0.224 11.5,0.5L11.5,2L9,2L9,0.5C9,0.224 8.776,0 8.5,0C8.224,0 8,0.224 8,0.5L8,2L6.5,2C6.331,2 6.164,2.01 6,2.028L6,0.5C6,0.224 5.776,0 5.5,0C5.224,0 5,0.224 5,0.5L5,2.257C3.723,2.71 2.71,3.723 2.257,5L0.5,5C0.224,5 0,5.224 0,5.5C0,5.776 0.224,6 0.5,6L2.028,6C2.01,6.164 2,6.331 2,6.5L2,8L0.5,8C0.224,8 0,8.224 0,8.5C0,8.776 0.224,9 0.5,9L2,9L2,11.5L0.5,11.5C0.224,11.5 0,11.724 0,12C0,12.276 0.224,12.5 0.5,12.5L2,12.5L2,15L0.5,15C0.224,15 0,15.224 0,15.5C0,15.776 0.224,16 0.5,16L2,16L2,17.5C2,17.669 2.01,17.836 2.028,18L0.5,18C0.224,18 0,18.224 0,18.5C0,18.776 0.224,19 0.5,19L2.257,19C2.71,20.277 3.723,21.29 5,21.743L5,23.5C5,23.776 5.224,24 5.5,24C5.776,24 6,23.776 6,23.5L6,21.972C6.164,21.99 6.331,22 6.5,22L8,22L8,23.5C8,23.776 8.224,24 8.5,24C8.776,24 9,23.776 9,23.5L9,22L11.5,22L11.5,23.5C11.5,23.776 11.724,24 12,24C12.276,24 12.5,23.776 12.5,23.5L12.5,22L15,22L15,23.5C15,23.776 15.224,24 15.5,24C15.776,24 16,23.776 16,23.5L16,22L17.5,22C17.669,22 17.836,21.99 18,21.972L18,23.5C18,23.776 18.224,24 18.5,24C18.776,24 19,23.776 19,23.5L19,21.743C20.277,21.29 21.29,20.277 21.743,19L23.5,19C23.776,19 24,18.776 24,18.5C24,18.224 23.776,18 23.5,18L21.972,18C21.99,17.836 22,17.669 22,17.5L22,16L23.5,16C23.776,16 24,15.776 24,15.5C24,15.224 23.776,15 23.5,15L22,15L22,12.5L23.5,12.5C23.776,12.5 24,12.276 24,12C24,11.724 23.776,11.5 23.5,11.5L22,11.5L22,9L23.5,9ZM17.5,21L6.5,21C4.57,21 3,19.43 3,17.5L3,6.5C3,4.57 4.57,3 6.5,3L17.5,3C19.43,3 21,4.57 21,6.5L21,17.5C21,19.43 19.43,21 17.5,21ZM17,7.5L17,16.5C17,16.776 16.776,17 16.5,17C16.224,17 16,16.776 16,16.5L16,7.5C16,7.224 16.224,7 16.5,7C16.776,7 17,7.224 17,7.5ZM11.838,8.372C11.623,7.56 10.816,6.996 9.981,7.001C9.199,7.03 8.484,7.606 8.283,8.364L6.018,16.364C5.943,16.63 6.097,16.906 6.363,16.981C6.408,16.994 6.454,17 6.5,17C6.718,17 6.918,16.856 6.98,16.636L7.724,14.008L12.313,14.008L13.016,16.63C13.088,16.896 13.362,17.051 13.628,16.984C13.895,16.912 14.053,16.638 13.982,16.371L11.837,8.373L11.838,8.372ZM8.008,13.008L9.248,8.628C9.339,8.283 9.671,8.014 10.018,8.001C10.396,7.968 10.774,8.263 10.872,8.63L12.046,13.008L8.008,13.008Z" style="fill-rule:nonzero;"/>
                </g>
            </g>
        </g>
    </g>
    <defs>
        <radialGradient id="_Radial1" cx="0" cy="0" r="1" gradientUnits="userSpaceOnUse" gradientTransform="matrix(246.74,0,0,246.74,799.827,1414.7)"><stop offset="0" style="stop-color:rgb(129,251,191);stop-opacity:1"/><stop offset="1" style="stop-color:rgb(74,207,225);stop-opacity:1"/></radialGradient>
    </defs>
</svg>
