<svg xmlns="http://www.w3.org/2000/svg" xmlns:xlink="http://www.w3.org/1999/xlink" xmlns:serif="http://www.serif.com/" width="100%" height="100%" viewBox="0 0 4250 892" xml:space="preserve" style="fill-rule:evenodd;clip-rule:evenodd;stroke-linejoin:round;stroke-miterlimit:2;">    <g transform="matrix(4.16667,0,0,4.16667,0,0)">        <rect x="7.046" y="6.61" width="294.946" height="200.284" style="fill:white;fill-rule:nonzero;"/>        <rect x="12.718" y="12.103" width="283.602" height="189.069" style="fill:rgb(13,80,161);fill-rule:nonzero;"/>        <path d="M148.476,53.298L154.46,48.931L160.446,53.298L158.167,46.235L164.246,41.868L156.753,41.868L154.46,34.72L152.167,41.876L144.679,41.868L150.753,46.235L148.476,53.298Z" style="fill:rgb(249,238,30);fill-rule:nonzero;"/>        <path d="M117.507,61.618L123.491,57.251L129.472,61.618L127.198,54.555L133.273,50.188L125.78,50.188L123.488,43.032L121.195,50.196L113.706,50.188L119.78,54.555L117.507,61.618Z" style="fill:rgb(249,238,30);fill-rule:nonzero;"/>        <path d="M100.831,65.743L98.538,72.907L91.05,72.899L97.124,77.266L94.847,84.329L100.831,79.962L106.815,84.329L104.538,77.266L110.612,72.899L103.124,72.899L100.831,65.743Z" style="fill:rgb(249,238,30);fill-rule:nonzero;"/>        <path d="M92.519,110.892L98.5,115.258L96.226,108.197L102.3,103.829L94.812,103.829L92.519,96.673L90.226,103.845L82.734,103.829L88.812,108.197L86.535,115.258L92.519,110.892Z" style="fill:rgb(249,238,30);fill-rule:nonzero;"/>        <path d="M103.124,134.852L100.831,127.696L98.538,134.86L91.05,134.852L97.124,139.218L94.847,146.282L100.831,141.907L106.815,146.282L104.538,139.218L110.612,134.852L103.124,134.852Z" style="fill:rgb(249,238,30);fill-rule:nonzero;"/>        <path d="M125.827,157.554L123.534,150.407L121.245,157.563L113.753,157.554L119.827,161.922L117.554,168.985L123.538,164.618L129.518,168.985L127.245,161.922L133.319,157.554L125.827,157.554Z" style="fill:rgb(249,238,30);fill-rule:nonzero;"/>        <path d="M156.757,165.782L154.464,158.626L152.175,165.79L144.683,165.782L150.757,170.149L148.484,177.212L154.468,172.844L160.449,177.212L158.171,170.149L164.249,165.782L156.757,165.782Z" style="fill:rgb(249,238,30);fill-rule:nonzero;"/>        <path d="M187.687,157.554L185.398,150.407L183.101,157.563L175.618,157.554L181.687,161.922L179.414,168.985L185.398,164.618L191.382,168.985L189.101,161.922L195.179,157.554L187.687,157.554Z" style="fill:rgb(249,238,30);fill-rule:nonzero;"/>        <path d="M210.398,134.852L208.101,127.696L205.804,134.86L198.321,134.852L204.398,139.218L202.118,146.282L208.101,141.907L214.085,146.282L211.804,139.218L217.882,134.852L210.398,134.852Z" style="fill:rgb(249,238,30);fill-rule:nonzero;"/>        <path d="M226.11,103.743L218.618,103.743L216.321,96.587L214.032,103.751L206.539,103.743L212.618,108.11L210.343,115.172L216.321,110.797L222.304,115.172L220.032,108.11L226.11,103.743Z" style="fill:rgb(249,238,30);fill-rule:nonzero;"/>        <path d="M202.117,84.235L208.1,79.868L214.085,84.235L211.804,77.172L217.882,72.813L210.397,72.813L208.1,65.657L205.804,72.821L198.32,72.813L204.397,77.172L202.117,84.235Z" style="fill:rgb(249,238,30);fill-rule:nonzero;"/>        <path d="M185.485,43.04L183.196,50.204L175.703,50.188L181.773,54.563L179.5,61.626L185.493,57.251L191.468,61.626L189.196,54.563L195.273,50.188L187.773,50.188L185.485,43.04Z" style="fill:rgb(249,238,30);fill-rule:nonzero;"/>        <path d="M337.506,83.218L337.506,36.69L369.403,36.69L369.403,44.561L346.901,44.561L346.901,55.574L366.325,55.574L366.325,63.445L346.901,63.445L346.901,83.218L337.506,83.218Z" style="fill:rgb(13,80,161);fill-rule:nonzero;"/>        <path d="M399.269,83.218L399.269,78.171C398.041,79.97 396.428,81.388 394.429,82.424C392.429,83.461 390.319,83.98 388.097,83.98C385.832,83.98 383.801,83.482 382.003,82.488C380.204,81.494 378.904,80.097 378.1,78.298C377.295,76.5 376.893,74.014 376.893,70.84L376.893,49.512L385.812,49.512L385.812,65C385.812,69.74 385.976,72.644 386.304,73.712C386.631,74.781 387.229,75.628 388.097,76.251C388.964,76.876 390.065,77.188 391.398,77.188C392.921,77.188 394.285,76.77 395.492,75.934C396.698,75.098 397.524,74.062 397.967,72.823C398.412,71.586 398.634,68.555 398.634,63.731L398.634,49.512L407.553,49.512L407.553,83.218L399.269,83.218Z" style="fill:rgb(13,80,161);fill-rule:nonzero;"/>        <path d="M447.447,83.218L438.529,83.218L438.529,66.016C438.529,62.377 438.338,60.023 437.957,58.954C437.576,57.886 436.957,57.055 436.101,56.462C435.243,55.87 434.212,55.574 433.006,55.574C431.461,55.574 430.076,55.997 428.849,56.843C427.621,57.69 426.78,58.811 426.326,60.208C425.87,61.604 425.643,64.186 425.643,67.952L425.643,83.218L416.724,83.218L416.724,49.512L425.008,49.512L425.008,54.463C427.949,50.654 431.652,48.75 436.117,48.75C438.084,48.75 439.882,49.105 441.512,49.814C443.141,50.523 444.373,51.427 445.209,52.527C446.045,53.628 446.627,54.876 446.955,56.272C447.283,57.669 447.447,59.668 447.447,62.271L447.447,83.218Z" style="fill:rgb(13,80,161);fill-rule:nonzero;"/>        <path d="M463.602,65.635C463.602,69.232 464.098,71.835 465.093,73.442C466.532,75.77 468.541,76.934 471.123,76.934C473.175,76.934 474.921,76.061 476.36,74.315C477.799,72.569 478.518,69.962 478.518,66.492C478.518,62.62 477.821,59.832 476.424,58.129C475.028,56.426 473.239,55.574 471.06,55.574C468.944,55.574 467.172,56.415 465.743,58.097C464.316,59.779 463.602,62.292 463.602,65.635ZM487.405,83.218L479.121,83.218L479.121,78.267C477.745,80.192 476.122,81.626 474.249,82.567C472.377,83.508 470.489,83.98 468.584,83.98C464.712,83.98 461.396,82.419 458.634,79.298C455.873,76.177 454.492,71.824 454.492,66.238C454.492,60.525 455.836,56.182 458.524,53.209C461.21,50.237 464.606,48.75 468.711,48.75C472.477,48.75 475.736,50.316 478.487,53.447L478.487,36.69L487.405,36.69L487.405,83.218Z" style="fill:rgb(13,80,161);fill-rule:nonzero;"/>        <path d="M516.224,63.477C516.159,60.896 515.494,58.933 514.224,57.589C512.955,56.246 511.41,55.574 509.59,55.574C507.644,55.574 506.035,56.283 504.766,57.7C503.496,59.118 502.872,61.044 502.894,63.477L516.224,63.477ZM515.716,72.49L524.603,73.982C523.46,77.241 521.656,79.722 519.192,81.425C516.726,83.128 513.642,83.98 509.94,83.98C504.078,83.98 499.741,82.065 496.927,78.235C494.705,75.167 493.594,71.295 493.594,66.619C493.594,61.033 495.055,56.658 497.975,53.495C500.895,50.332 504.586,48.75 509.051,48.75C514.065,48.75 518.021,50.406 520.921,53.717C523.82,57.029 525.205,62.102 525.078,68.936L502.735,68.936C502.799,71.581 503.518,73.638 504.893,75.108C506.269,76.58 507.983,77.315 510.035,77.315C511.432,77.315 512.606,76.934 513.557,76.172C514.51,75.41 515.229,74.183 515.716,72.49Z" style="fill:rgb(13,80,161);fill-rule:nonzero;"/>        <path d="M539.457,65.635C539.457,69.232 539.953,71.835 540.949,73.442C542.387,75.77 544.397,76.934 546.979,76.934C549.031,76.934 550.777,76.061 552.215,74.315C553.655,72.569 554.373,69.962 554.373,66.492C554.373,62.62 553.676,59.832 552.28,58.129C550.883,56.426 549.094,55.574 546.915,55.574C544.799,55.574 543.028,56.415 541.599,58.097C540.171,59.779 539.457,62.292 539.457,65.635ZM563.26,83.218L554.977,83.218L554.977,78.267C553.601,80.192 551.978,81.626 550.105,82.567C548.233,83.508 546.344,83.98 544.44,83.98C540.568,83.98 537.251,82.419 534.49,79.298C531.729,76.177 530.348,71.824 530.348,66.238C530.348,60.525 531.692,56.182 534.379,53.209C537.066,50.237 540.461,48.75 544.567,48.75C548.332,48.75 551.591,50.316 554.342,53.447L554.342,36.69L563.26,36.69L563.26,83.218Z" style="fill:rgb(13,80,161);fill-rule:nonzero;"/>        <path d="M598.585,65.635C598.585,69.126 599.135,71.708 600.236,73.379C601.78,75.749 603.832,76.934 606.393,76.934C608.361,76.934 610.037,76.093 611.423,74.41C612.809,72.729 613.502,70.078 613.502,66.46C613.502,62.609 612.804,59.832 611.408,58.129C610.011,56.426 608.223,55.574 606.043,55.574C603.907,55.574 602.129,56.404 600.711,58.065C599.294,59.727 598.585,62.25 598.585,65.635ZM589.731,83.218L589.731,36.69L598.649,36.69L598.649,53.447C601.399,50.316 604.658,48.75 608.424,48.75C612.529,48.75 615.925,50.237 618.612,53.209C621.299,56.182 622.643,60.451 622.643,66.016C622.643,71.771 621.273,76.204 618.533,79.314C615.792,82.424 612.465,83.98 608.551,83.98C606.625,83.98 604.727,83.498 602.854,82.535C600.982,81.573 599.367,80.15 598.014,78.267L598.014,83.218L589.731,83.218Z" style="fill:rgb(13,80,161);fill-rule:nonzero;"/>        <path d="M625.594,49.512L635.083,49.512L643.146,73.442L651.017,49.512L660.252,49.512L648.351,81.948L646.224,87.82C645.441,89.788 644.695,91.29 643.987,92.327C643.278,93.363 642.463,94.204 641.542,94.85C640.622,95.495 639.49,95.998 638.147,96.357C636.803,96.717 635.284,96.897 633.592,96.897C631.878,96.897 630.197,96.717 628.546,96.357L627.752,89.375C629.149,89.65 630.408,89.788 631.529,89.788C633.603,89.788 635.136,89.179 636.131,87.963C637.125,86.746 637.887,85.196 638.416,83.313L625.594,49.512Z" style="fill:rgb(13,80,161);fill-rule:nonzero;"/>        <path d="M352.835,127.511L352.835,134.621L346.742,134.621L346.742,148.205C346.742,150.956 346.799,152.558 346.916,153.013C347.033,153.468 347.297,153.843 347.709,154.139C348.122,154.436 348.624,154.585 349.217,154.585C350.042,154.585 351.238,154.298 352.803,153.727L353.565,160.646C351.492,161.535 349.143,161.979 346.52,161.979C344.911,161.979 343.461,161.71 342.171,161.17C340.88,160.63 339.934,159.932 339.33,159.075C338.728,158.218 338.31,157.059 338.076,155.6C337.887,154.563 337.791,152.468 337.791,149.315L337.791,134.621L333.698,134.621L333.698,127.511L337.791,127.511L337.791,120.815L346.742,115.61L346.742,127.511L352.835,127.511Z" style="fill:rgb(13,80,161);fill-rule:nonzero;"/>        <path d="M367.911,114.689L367.911,131.796C370.788,128.432 374.227,126.75 378.226,126.75C380.278,126.75 382.13,127.13 383.781,127.892C385.431,128.654 386.673,129.628 387.509,130.813C388.345,131.998 388.916,133.309 389.223,134.748C389.53,136.187 389.683,138.419 389.683,141.444L389.683,161.217L380.765,161.217L380.765,143.413C380.765,139.879 380.595,137.635 380.257,136.684C379.918,135.731 379.321,134.975 378.464,134.415C377.607,133.854 376.533,133.573 375.242,133.573C373.761,133.573 372.439,133.933 371.275,134.653C370.112,135.372 369.26,136.457 368.72,137.906C368.181,139.355 367.911,141.498 367.911,144.333L367.911,161.217L358.992,161.217L358.992,114.689L367.911,114.689Z" style="fill:rgb(13,80,161);fill-rule:nonzero;"/>        <path d="M418.755,141.476C418.692,138.895 418.026,136.932 416.756,135.588C415.487,134.246 413.942,133.573 412.121,133.573C410.175,133.573 408.567,134.283 407.297,135.7C406.028,137.118 405.404,139.044 405.425,141.476L418.755,141.476ZM418.247,150.49L427.134,151.981C425.992,155.24 424.188,157.721 421.723,159.424C419.257,161.128 416.173,161.979 412.471,161.979C406.61,161.979 402.272,160.064 399.458,156.235C397.237,153.167 396.125,149.295 396.125,144.618C396.125,139.032 397.586,134.658 400.506,131.496C403.426,128.332 407.117,126.75 411.582,126.75C416.597,126.75 420.553,128.406 423.452,131.716C426.351,135.028 427.737,140.101 427.61,146.935L405.266,146.935C405.33,149.581 406.049,151.638 407.424,153.108C408.8,154.579 410.514,155.314 412.567,155.314C413.963,155.314 415.137,154.933 416.089,154.172C417.041,153.41 417.76,152.183 418.247,150.49Z" style="fill:rgb(13,80,161);fill-rule:nonzero;"/>        <path d="M453,161.217L453,114.689L487.5,114.689L487.5,122.56L462.395,122.56L462.395,132.876L485.754,132.876L485.754,140.714L462.395,140.714L462.395,153.378L488.389,153.378L488.389,161.217L453,161.217Z" style="fill:rgb(13,80,161);fill-rule:nonzero;"/>        <path d="M518.478,161.217L518.478,156.171C517.25,157.969 515.637,159.387 513.638,160.424C511.638,161.461 509.528,161.979 507.306,161.979C505.041,161.979 503.01,161.482 501.212,160.487C499.413,159.493 498.113,158.096 497.309,156.297C496.504,154.5 496.102,152.013 496.102,148.839L496.102,127.511L505.021,127.511L505.021,143C505.021,147.74 505.185,150.643 505.513,151.712C505.84,152.781 506.438,153.627 507.306,154.251C508.173,154.876 509.274,155.187 510.607,155.187C512.13,155.187 513.494,154.769 514.701,153.933C515.906,153.098 516.732,152.061 517.176,150.823C517.62,149.586 517.843,146.554 517.843,141.73L517.843,127.511L526.762,127.511L526.762,161.217L518.478,161.217Z" style="fill:rgb(13,80,161);fill-rule:nonzero;"/>        <path d="M544.534,161.217L535.617,161.217L535.617,127.511L543.9,127.511L543.9,132.303C545.317,130.04 546.592,128.548 547.724,127.829C548.856,127.11 550.141,126.75 551.58,126.75C553.612,126.75 555.569,127.31 557.452,128.432L554.691,136.208C553.188,135.235 551.791,134.748 550.501,134.748C549.252,134.748 548.195,135.091 547.327,135.779C546.459,136.467 545.778,137.711 545.281,139.508C544.783,141.307 544.534,145.074 544.534,150.807L544.534,161.217Z" style="fill:rgb(13,80,161);fill-rule:nonzero;"/>        <path d="M568.37,144.364C568.37,147.708 569.164,150.268 570.75,152.046C572.338,153.823 574.294,154.712 576.622,154.712C578.95,154.712 580.902,153.823 582.478,152.046C584.054,150.268 584.842,147.686 584.842,144.301C584.842,141.001 584.054,138.462 582.478,136.684C580.902,134.907 578.95,134.018 576.622,134.018C574.294,134.018 572.338,134.907 570.75,136.684C569.164,138.462 568.37,141.021 568.37,144.364ZM559.23,143.888C559.23,140.926 559.959,138.059 561.42,135.288C562.879,132.515 564.948,130.399 567.624,128.94C570.301,127.479 573.289,126.75 576.59,126.75C581.69,126.75 585.868,128.406 589.127,131.716C592.385,135.028 594.015,139.213 594.015,144.269C594.015,149.369 592.369,153.595 589.079,156.949C585.789,160.302 581.648,161.979 576.655,161.979C573.565,161.979 570.618,161.281 567.815,159.884C565.011,158.488 562.879,156.441 561.42,153.743C559.959,151.046 559.23,147.76 559.23,143.888Z" style="fill:rgb(13,80,161);fill-rule:nonzero;"/>        <path d="M609.566,143.794C609.566,147.581 610.317,150.379 611.82,152.188C613.322,153.997 615.152,154.901 617.31,154.901C619.384,154.901 621.108,154.071 622.484,152.41C623.859,150.75 624.546,148.025 624.546,144.237C624.546,140.704 623.837,138.081 622.42,136.366C621.002,134.653 619.246,133.796 617.152,133.796C614.972,133.796 613.163,134.636 611.724,136.319C610.285,138.001 609.566,140.493 609.566,143.794ZM600.743,127.511L609.058,127.511L609.058,132.463C610.138,130.77 611.597,129.395 613.439,128.337C615.279,127.279 617.321,126.75 619.564,126.75C623.478,126.75 626.8,128.284 629.53,131.352C632.259,134.42 633.624,138.694 633.624,144.174C633.624,149.802 632.248,154.177 629.497,157.297C626.747,160.419 623.414,161.979 619.5,161.979C617.638,161.979 615.951,161.609 614.438,160.868C612.925,160.128 611.332,158.858 609.661,157.059L609.661,174.04L600.743,174.04L600.743,127.511Z" style="fill:rgb(13,80,161);fill-rule:nonzero;"/>        <path d="M660.728,141.476C660.664,138.895 659.998,136.932 658.729,135.588C657.459,134.246 655.914,133.573 654.094,133.573C652.148,133.573 650.539,134.283 649.27,135.7C648,137.118 647.376,139.044 647.398,141.476L660.728,141.476ZM660.22,150.49L669.107,151.981C667.964,155.24 666.16,157.721 663.696,159.424C661.23,161.128 658.146,161.979 654.444,161.979C648.582,161.979 644.244,160.064 641.431,156.235C639.209,153.167 638.098,149.295 638.098,144.618C638.098,139.032 639.559,134.658 642.479,131.496C645.399,128.332 649.09,126.75 653.555,126.75C658.57,126.75 662.526,128.406 665.425,131.716C668.324,135.028 669.709,140.101 669.582,146.935L647.239,146.935C647.303,149.581 648.022,151.638 649.397,153.108C650.773,154.579 652.487,155.314 654.539,155.314C655.936,155.314 657.11,154.933 658.062,154.172C659.014,153.41 659.733,152.183 660.22,150.49Z" style="fill:rgb(13,80,161);fill-rule:nonzero;"/>        <path d="M695.45,145.031C694.307,145.412 692.498,145.867 690.023,146.395C687.547,146.924 685.928,147.443 685.166,147.951C684.003,148.776 683.421,149.823 683.421,151.092C683.421,152.341 683.886,153.421 684.818,154.331C685.748,155.24 686.933,155.695 688.372,155.695C689.98,155.695 691.514,155.167 692.975,154.108C694.053,153.304 694.762,152.32 695.101,151.157C695.333,150.395 695.45,148.946 695.45,146.808L695.45,145.031ZM683.516,137.795L675.423,136.335C676.332,133.077 677.899,130.665 680.12,129.098C682.342,127.533 685.643,126.75 690.023,126.75C694,126.75 696.962,127.22 698.909,128.162C700.856,129.104 702.226,130.3 703.02,131.749C703.813,133.198 704.209,135.858 704.209,139.731L704.115,150.141C704.115,153.103 704.257,155.288 704.543,156.695C704.828,158.102 705.363,159.61 706.146,161.217L697.323,161.217C697.089,160.626 696.804,159.747 696.465,158.583C696.318,158.054 696.211,157.706 696.149,157.536C694.625,159.017 692.995,160.128 691.26,160.868C689.526,161.609 687.674,161.979 685.706,161.979C682.236,161.979 679.501,161.038 677.502,159.155C675.502,157.271 674.502,154.891 674.502,152.013C674.502,150.109 674.957,148.411 675.867,146.92C676.777,145.427 678.052,144.285 679.692,143.492C681.331,142.698 683.696,142.005 686.785,141.413C690.953,140.63 693.842,139.9 695.45,139.223L695.45,138.335C695.45,136.62 695.027,135.398 694.18,134.669C693.334,133.938 691.737,133.573 689.388,133.573C687.801,133.573 686.563,133.885 685.674,134.509C684.785,135.134 684.067,136.229 683.516,137.795Z" style="fill:rgb(13,80,161);fill-rule:nonzero;"/>        <path d="M743.66,161.217L734.742,161.217L734.742,144.015C734.742,140.377 734.552,138.022 734.171,136.954C733.79,135.885 733.171,135.054 732.315,134.462C731.457,133.87 730.426,133.573 729.22,133.573C727.675,133.573 726.289,133.997 725.063,134.842C723.835,135.689 722.993,136.811 722.539,138.208C722.084,139.604 721.857,142.185 721.857,145.952L721.857,161.217L712.938,161.217L712.938,127.511L721.222,127.511L721.222,132.463C724.162,128.654 727.866,126.75 732.33,126.75C734.298,126.75 736.096,127.104 737.726,127.813C739.355,128.522 740.587,129.427 741.423,130.526C742.259,131.627 742.841,132.876 743.169,134.272C743.496,135.669 743.66,137.668 743.66,140.27L743.66,161.217Z" style="fill:rgb(13,80,161);fill-rule:nonzero;"/>        <path d="M770.766,114.689L780.16,114.689L780.16,139.889C780.16,143.888 780.276,146.48 780.509,147.665C780.91,149.569 781.868,151.098 783.381,152.252C784.894,153.405 786.962,153.981 789.586,153.981C792.252,153.981 794.262,153.436 795.617,152.346C796.97,151.257 797.785,149.919 798.061,148.332C798.335,146.745 798.473,144.11 798.473,140.428L798.473,114.689L807.867,114.689L807.867,139.128C807.867,144.713 807.614,148.66 807.106,150.965C806.598,153.272 805.661,155.219 804.297,156.805C802.932,158.393 801.108,159.657 798.823,160.598C796.537,161.54 793.553,162.01 789.871,162.01C785.428,162.01 782.059,161.498 779.763,160.471C777.467,159.446 775.653,158.113 774.321,156.472C772.987,154.833 772.109,153.114 771.686,151.315C771.072,148.649 770.766,144.713 770.766,139.508L770.766,114.689Z" style="fill:rgb(13,80,161);fill-rule:nonzero;"/>        <path d="M848.365,161.217L839.447,161.217L839.447,144.015C839.447,140.377 839.256,138.022 838.875,136.954C838.494,135.885 837.875,135.054 837.019,134.462C836.161,133.87 835.13,133.573 833.924,133.573C832.379,133.573 830.993,133.997 829.767,134.842C828.539,135.689 827.698,136.811 827.243,138.208C826.788,139.604 826.561,142.185 826.561,145.952L826.561,161.217L817.642,161.217L817.642,127.511L825.926,127.511L825.926,132.463C828.867,128.654 832.57,126.75 837.034,126.75C839.002,126.75 840.8,127.104 842.43,127.813C844.059,128.522 845.291,129.427 846.127,130.526C846.963,131.627 847.545,132.876 847.873,134.272C848.201,135.669 848.365,137.668 848.365,140.27L848.365,161.217Z" style="fill:rgb(13,80,161);fill-rule:nonzero;"/>        <path d="M857.41,161.217L857.41,127.511L866.328,127.511L866.328,161.217L857.41,161.217ZM857.41,122.941L857.41,114.689L866.328,114.689L866.328,122.941L857.41,122.941Z" style="fill:rgb(13,80,161);fill-rule:nonzero;"/>        <path d="M882.547,144.364C882.547,147.708 883.341,150.268 884.927,152.046C886.515,153.823 888.471,154.712 890.799,154.712C893.126,154.712 895.078,153.823 896.655,152.046C898.231,150.268 899.019,147.686 899.019,144.301C899.019,141.001 898.231,138.462 896.655,136.684C895.078,134.907 893.126,134.018 890.799,134.018C888.471,134.018 886.515,134.907 884.927,136.684C883.341,138.462 882.547,141.021 882.547,144.364ZM873.407,143.888C873.407,140.926 874.136,138.059 875.597,135.288C877.056,132.515 879.124,130.399 881.801,128.94C884.478,127.479 887.466,126.75 890.767,126.75C895.867,126.75 900.045,128.406 903.304,131.716C906.562,135.028 908.192,139.213 908.192,144.269C908.192,149.369 906.546,153.595 903.256,156.949C899.966,160.302 895.825,161.979 890.831,161.979C887.742,161.979 884.795,161.281 881.992,159.884C879.188,158.488 877.056,156.441 875.597,153.743C874.136,151.046 873.407,147.76 873.407,143.888Z" style="fill:rgb(13,80,161);fill-rule:nonzero;"/>        <path d="M945.832,161.217L936.914,161.217L936.914,144.015C936.914,140.377 936.724,138.022 936.343,136.954C935.962,135.885 935.343,135.054 934.487,134.462C933.629,133.87 932.598,133.573 931.392,133.573C929.847,133.573 928.461,133.997 927.235,134.842C926.007,135.689 925.165,136.811 924.711,138.208C924.256,139.604 924.029,142.185 924.029,145.952L924.029,161.217L915.11,161.217L915.11,127.511L923.394,127.511L923.394,132.463C926.334,128.654 930.037,126.75 934.502,126.75C936.47,126.75 938.268,127.104 939.898,127.813C941.527,128.522 942.759,129.427 943.595,130.526C944.431,131.627 945.013,132.876 945.341,134.272C945.668,135.669 945.832,137.668 945.832,140.27L945.832,161.217Z" style="fill:rgb(13,80,161);fill-rule:nonzero;"/>    </g></svg>