<?xml version="1.0" encoding="UTF-8" standalone="no"?>
<!DOCTYPE svg PUBLIC "-//W3C//DTD SVG 1.1//EN" "http://www.w3.org/Graphics/SVG/1.1/DTD/svg11.dtd">
<svg width="100%" height="100%" viewBox="0 0 1047 1230" version="1.1" xmlns="http://www.w3.org/2000/svg" xmlns:xlink="http://www.w3.org/1999/xlink" xml:space="preserve" xmlns:serif="http://www.serif.com/" style="fill-rule:evenodd;clip-rule:evenodd;stroke-linecap:round;stroke-linejoin:round;stroke-miterlimit:1.5;">
    <g transform="matrix(3.125,0,0,3.125,0,0)">
        <g id="Network-lines" serif:id="Network lines" transform="matrix(1,0,0,1,-138.552,-342.875)">
            <path d="M268.763,358.549L211.591,464.201L210.616,616.75L227.979,675.212L304.719,713.503L382.596,674.754L400.791,620.263L401.732,464.559L344.346,358.849L268.763,358.549Z" style="fill:none;stroke:black;stroke-width:1.28px;"/>
            <path d="M231.915,426.936L381.768,426.936" style="fill:none;stroke:black;stroke-width:1.28px;"/>
            <path d="M172.41,598.935L441.299,482.299L459.418,424.642" style="fill:none;stroke:black;stroke-width:1.28px;"/>
            <path d="M152.16,424.668L172.728,484.742L440.555,598.072" style="fill:none;stroke:black;stroke-width:1.28px;"/>
            <path d="M210.692,582.227L306.843,619.541L383.058,673.921" style="fill:none;stroke:black;stroke-width:1.28px;"/>
            <path d="M306.723,618.635L228.897,674.464" style="fill:none;stroke:black;stroke-width:1.28px;"/>
            <path d="M306.125,541.184L306.125,461.874" style="fill:none;stroke:black;stroke-width:1.28px;"/>
        </g>
        <g id="given" transform="matrix(1,0,0,1,-138.552,-342.875)">
            <g id="rectangley-given-numbers" serif:id="rectangley given numbers">
                <g>
                    <g id="_20" serif:id="20" transform="matrix(1,0,0,1,-67.747,207.024)">
                        <rect x="458.453" y="322.688" width="24.03" height="24.03" style="fill:white;stroke:black;stroke-width:0.8px;"/>
                    </g>
                    <g id="_24" serif:id="24" transform="matrix(1,0,0,1,-213.167,226.823)">
                        <rect x="458.453" y="322.688" width="24.03" height="24.03" style="fill:white;stroke:black;stroke-width:0.8px;"/>
                    </g>
                    <g id="_7" serif:id="7" transform="matrix(1,0,0,1,-259.104,281.701)">
                        <rect x="458.453" y="322.688" width="24.03" height="24.03" style="fill:white;stroke:black;stroke-width:0.8px;"/>
                    </g>
                    <g id="_12" serif:id="12" transform="matrix(1,0,0,1,-166.679,89.5532)">
                        <rect x="458.453" y="322.688" width="24.03" height="24.03" style="fill:white;stroke:black;stroke-width:0.8px;"/>
                    </g>
                </g>
            </g>
            <g id="given-numbers" serif:id="given numbers">
                <g transform="matrix(0.751995,0,0,0.751995,361.055,100.698)">
                    <g transform="matrix(19.9469,0,0,19.9469,44.4036,592.934)">
                        <path d="M0.052,-0.478L0.031,-0.481C0.044,-0.543 0.07,-0.591 0.109,-0.624C0.147,-0.656 0.195,-0.673 0.254,-0.673C0.309,-0.673 0.353,-0.658 0.386,-0.627C0.419,-0.596 0.435,-0.555 0.435,-0.503C0.435,-0.463 0.424,-0.424 0.401,-0.384C0.379,-0.344 0.336,-0.293 0.274,-0.229L0.124,-0.075L0.318,-0.075C0.369,-0.075 0.403,-0.08 0.421,-0.091C0.438,-0.101 0.454,-0.12 0.467,-0.148L0.486,-0.142L0.429,-0L0.03,-0L0.03,-0.018L0.137,-0.13L0.147,-0.14C0.282,-0.282 0.35,-0.387 0.35,-0.456C0.35,-0.501 0.337,-0.537 0.312,-0.563C0.286,-0.589 0.252,-0.602 0.209,-0.602C0.173,-0.602 0.141,-0.591 0.114,-0.57C0.086,-0.548 0.066,-0.518 0.052,-0.478Z" style="fill-rule:nonzero;"/>
                    </g>
                    <g transform="matrix(19.9469,0,0,19.9469,54.3771,592.934)">
                        <path d="M0.029,-0.332C0.029,-0.44 0.049,-0.524 0.088,-0.583C0.127,-0.643 0.182,-0.673 0.252,-0.673C0.322,-0.673 0.376,-0.644 0.414,-0.588C0.452,-0.531 0.471,-0.449 0.471,-0.343C0.471,-0.229 0.452,-0.141 0.415,-0.08C0.377,-0.018 0.323,0.012 0.253,0.012C0.179,0.012 0.123,-0.017 0.085,-0.074C0.048,-0.132 0.029,-0.218 0.029,-0.332ZM0.251,-0.649C0.206,-0.649 0.174,-0.626 0.155,-0.579C0.135,-0.533 0.126,-0.451 0.126,-0.334C0.126,-0.212 0.135,-0.128 0.154,-0.082C0.172,-0.035 0.204,-0.012 0.25,-0.012C0.296,-0.012 0.328,-0.034 0.345,-0.078C0.362,-0.122 0.371,-0.222 0.371,-0.378C0.371,-0.479 0.362,-0.55 0.344,-0.589C0.326,-0.629 0.295,-0.649 0.251,-0.649Z" style="fill-rule:nonzero;"/>
                    </g>
                </g>
                <g transform="matrix(0.751995,0,0,0.751995,216.879,121.174)">
                    <g transform="matrix(19.9469,0,0,19.9469,44.4036,592.934)">
                        <path d="M0.052,-0.478L0.031,-0.481C0.044,-0.543 0.07,-0.591 0.109,-0.624C0.147,-0.656 0.195,-0.673 0.254,-0.673C0.309,-0.673 0.353,-0.658 0.386,-0.627C0.419,-0.596 0.435,-0.555 0.435,-0.503C0.435,-0.463 0.424,-0.424 0.401,-0.384C0.379,-0.344 0.336,-0.293 0.274,-0.229L0.124,-0.075L0.318,-0.075C0.369,-0.075 0.403,-0.08 0.421,-0.091C0.438,-0.101 0.454,-0.12 0.467,-0.148L0.486,-0.142L0.429,-0L0.03,-0L0.03,-0.018L0.137,-0.13L0.147,-0.14C0.282,-0.282 0.35,-0.387 0.35,-0.456C0.35,-0.501 0.337,-0.537 0.312,-0.563C0.286,-0.589 0.252,-0.602 0.209,-0.602C0.173,-0.602 0.141,-0.591 0.114,-0.57C0.086,-0.548 0.066,-0.518 0.052,-0.478Z" style="fill-rule:nonzero;"/>
                    </g>
                    <g transform="matrix(19.9469,0,0,19.9469,54.3771,592.934)">
                        <path d="M0.025,-0.241L0.329,-0.673L0.373,-0.673L0.373,-0.233L0.471,-0.233L0.471,-0.168L0.373,-0.168L0.373,-0L0.296,-0L0.296,-0.168L0.025,-0.168L0.025,-0.241ZM0.062,-0.233L0.296,-0.233L0.296,-0.567L0.062,-0.233Z" style="fill-rule:nonzero;"/>
                    </g>
                </g>
                <g transform="matrix(15,0,0,15,206.152,622.206)">
                    <g>
                        <path d="M0.241,0.012L0.179,0.012L0.391,-0.58L0.178,-0.58C0.138,-0.58 0.11,-0.574 0.095,-0.563C0.079,-0.551 0.064,-0.529 0.05,-0.498L0.028,-0.498L0.092,-0.66L0.479,-0.66L0.241,0.012Z" style="fill-rule:nonzero;"/>
                    </g>
                </g>
                <g transform="matrix(0.751995,0,0,0.751995,263.023,-15.3322)">
                    <g transform="matrix(19.9469,0,0,19.9469,44.4036,592.934)">
                        <path d="M0.217,-0.122L0.217,-0.551C0.217,-0.561 0.215,-0.569 0.212,-0.574C0.209,-0.579 0.203,-0.581 0.196,-0.581C0.192,-0.581 0.186,-0.58 0.178,-0.577C0.171,-0.575 0.163,-0.571 0.153,-0.567L0.089,-0.536L0.078,-0.555C0.108,-0.57 0.141,-0.587 0.177,-0.606C0.212,-0.626 0.255,-0.65 0.304,-0.678L0.304,-0.122C0.304,-0.074 0.31,-0.045 0.321,-0.035C0.333,-0.025 0.362,-0.02 0.409,-0.02L0.425,-0.02L0.425,-0L0.09,-0L0.09,-0.02C0.149,-0.02 0.185,-0.026 0.198,-0.037C0.21,-0.049 0.217,-0.077 0.217,-0.122Z" style="fill-rule:nonzero;"/>
                    </g>
                    <g transform="matrix(19.9469,0,0,19.9469,54.3771,592.934)">
                        <path d="M0.052,-0.478L0.031,-0.481C0.044,-0.543 0.07,-0.591 0.109,-0.624C0.147,-0.656 0.195,-0.673 0.254,-0.673C0.309,-0.673 0.353,-0.658 0.386,-0.627C0.419,-0.596 0.435,-0.555 0.435,-0.503C0.435,-0.463 0.424,-0.424 0.401,-0.384C0.379,-0.344 0.336,-0.293 0.274,-0.229L0.124,-0.075L0.318,-0.075C0.369,-0.075 0.403,-0.08 0.421,-0.091C0.438,-0.101 0.454,-0.12 0.467,-0.148L0.486,-0.142L0.429,-0L0.03,-0L0.03,-0.018L0.137,-0.13L0.147,-0.14C0.282,-0.282 0.35,-0.387 0.35,-0.456C0.35,-0.501 0.337,-0.537 0.312,-0.563C0.286,-0.589 0.252,-0.602 0.209,-0.602C0.173,-0.602 0.141,-0.591 0.114,-0.57C0.086,-0.548 0.066,-0.518 0.052,-0.478Z" style="fill-rule:nonzero;"/>
                    </g>
                </g>
            </g>
        </g>
        <g id="rectangles-open-numbers" serif:id="rectangles open numbers" transform="matrix(1,0,0,1,-138.552,-342.875)">
            <g id="free17" transform="matrix(1,0,0,1,-117.217,187.216)">
                <rect x="458.453" y="322.688" width="24.03" height="24.03" style="fill:white;stroke:black;stroke-width:0.8px;"/>
            </g>
            <g id="free16" transform="matrix(1,0,0,1,-117.466,224.909)">
                <rect x="458.453" y="322.688" width="24.03" height="24.03" style="fill:white;stroke:black;stroke-width:0.8px;"/>
            </g>
            <g id="free15" transform="matrix(1,0,0,1,-164.748,168.473)">
                <rect x="458.453" y="322.688" width="24.03" height="24.03" style="fill:white;stroke:black;stroke-width:0.8px;"/>
            </g>
            <g id="free14" transform="matrix(1,0,0,1,-212.862,187.044)">
                <rect x="458.453" y="322.688" width="24.03" height="24.03" style="fill:white;stroke:black;stroke-width:0.8px;"/>
            </g>
            <g id="free13" transform="matrix(1,0,0,1,-213.691,264.913)">
                <rect x="458.453" y="322.688" width="24.03" height="24.03" style="fill:white;stroke:black;stroke-width:0.8px;"/>
            </g>
            <g id="free12" transform="matrix(1,0,0,1,-203.876,311.899)">
                <rect x="458.453" y="322.688" width="24.03" height="24.03" style="fill:white;stroke:black;stroke-width:0.8px;"/>
            </g>
            <g id="free11" transform="matrix(1,0,0,1,-128.632,310.903)">
                <rect x="458.453" y="322.688" width="24.03" height="24.03" style="fill:white;stroke:black;stroke-width:0.8px;"/>
            </g>
            <g id="free10" transform="matrix(1,0,0,1,-70.3212,284.842)">
                <rect x="458.453" y="322.688" width="24.03" height="24.03" style="fill:white;stroke:black;stroke-width:0.8px;"/>
            </g>
            <g id="free9" transform="matrix(1,0,0,1,-30.9471,263.848)">
                <rect x="458.453" y="322.688" width="24.03" height="24.03" style="fill:white;stroke:black;stroke-width:0.8px;"/>
            </g>
            <g id="free8" transform="matrix(1,0,0,1,-126.367,360.569)">
                <rect x="458.453" y="322.688" width="24.03" height="24.03" style="fill:white;stroke:black;stroke-width:0.8px;"/>
            </g>
            <g id="free7" transform="matrix(1,0,0,1,-202.682,359.782)">
                <rect x="458.453" y="322.688" width="24.03" height="24.03" style="fill:white;stroke:black;stroke-width:0.8px;"/>
            </g>
            <g id="free6" transform="matrix(1,0,0,1,-298.247,262.747)">
                <rect x="458.453" y="322.688" width="24.03" height="24.03" style="fill:white;stroke:black;stroke-width:0.8px;"/>
            </g>
            <g id="free5" transform="matrix(1,0,0,1,-261.397,205.959)">
                <rect x="458.453" y="322.688" width="24.03" height="24.03" style="fill:white;stroke:black;stroke-width:0.8px;"/>
            </g>
            <g id="free4" transform="matrix(1,0,0,1,-259,129.465)">
                <rect x="458.453" y="322.688" width="24.03" height="24.03" style="fill:white;stroke:black;stroke-width:0.8px;"/>
            </g>
            <g id="free3" transform="matrix(1,0,0,1,-299,149.481)">
                <rect x="458.453" y="322.688" width="24.03" height="24.03" style="fill:white;stroke:black;stroke-width:0.8px;"/>
            </g>
            <g id="free2" transform="matrix(1,0,0,1,-222.034,56.2329)">
                <rect x="458.453" y="322.688" width="24.03" height="24.03" style="fill:white;stroke:black;stroke-width:0.8px;"/>
            </g>
            <g id="free1" transform="matrix(1,0,0,1,-166.679,24.6637)">
                <rect x="458.453" y="322.688" width="24.03" height="24.03" style="fill:white;stroke:black;stroke-width:0.8px;"/>
            </g>
            <g id="free20" transform="matrix(1,0,0,1,-106.181,54.0798)">
                <rect x="458.453" y="322.688" width="24.03" height="24.03" style="fill:white;stroke:black;stroke-width:0.8px;"/>
            </g>
            <g id="free19" transform="matrix(1,0,0,1,-68.4673,130.701)">
                <rect x="458.453" y="322.688" width="24.03" height="24.03" style="fill:white;stroke:black;stroke-width:0.8px;"/>
            </g>
            <g id="free18" transform="matrix(1,0,0,1,-31.0504,147.397)">
                <rect x="458.453" y="322.688" width="24.03" height="24.03" style="fill:white;stroke:black;stroke-width:0.8px;"/>
            </g>
        </g>
        <g id="sums" transform="matrix(1,0,0,1,-138.552,-342.875)">
            <g id="Circles-with-Sums" serif:id="Circles with Sums">
                <g transform="matrix(1,0,0,1,-136.834,-9.75622)">
                    <circle cx="480.963" cy="367.714" r="13.833" style="fill:white;stroke:rgb(43,183,179);stroke-width:2.5px;"/>
                </g>
                <g transform="matrix(1,0,0,1,-79.3631,134.938)">
                    <circle cx="480.963" cy="367.714" r="13.833" style="fill:white;stroke:rgb(43,183,179);stroke-width:2.5px;"/>
                </g>
                <g transform="matrix(1,0,0,1,-79.3631,210.047)">
                    <circle cx="480.963" cy="367.714" r="13.833" style="fill:white;stroke:rgb(43,183,179);stroke-width:2.5px;"/>
                </g>
                <g transform="matrix(1,0,0,1,-98.2861,306.882)">
                    <circle cx="480.963" cy="367.714" r="13.833" style="fill:white;stroke:rgb(43,183,179);stroke-width:2.5px;"/>
                </g>
                <g transform="matrix(1,0,0,1,-252.374,306.882)">
                    <circle cx="480.963" cy="367.714" r="13.833" style="fill:white;stroke:rgb(43,183,179);stroke-width:2.5px;"/>
                </g>
                <g transform="matrix(1,0,0,1,-175.596,250.465)">
                    <circle cx="480.963" cy="367.714" r="13.833" style="fill:white;stroke:rgb(43,183,179);stroke-width:2.5px;"/>
                </g>
                <g transform="matrix(1,0,0,1,-271.877,212.232)">
                    <circle cx="480.963" cy="367.714" r="13.833" style="fill:white;stroke:rgb(43,183,179);stroke-width:2.5px;"/>
                </g>
                <g transform="matrix(1,0,0,1,-271.877,135.378)">
                    <circle cx="480.963" cy="367.714" r="13.833" style="fill:white;stroke:rgb(43,183,179);stroke-width:2.5px;"/>
                </g>
                <g transform="matrix(1,0,0,1,-174.99,173.292)">
                    <circle cx="480.963" cy="367.714" r="13.833" style="fill:white;stroke:rgb(43,183,179);stroke-width:2.5px;"/>
                </g>
                <g transform="matrix(1,0,0,1,-213.959,-8.75622)">
                    <circle cx="480.963" cy="367.714" r="13.833" style="fill:white;stroke:rgb(43,183,179);stroke-width:2.5px;"/>
                </g>
            </g>
            <g id="numbers-sum-circles" serif:id="numbers sum circles">
                <g transform="matrix(0.751995,0,0,0.751995,262.843,101.395)">
                    <g transform="matrix(24.6002,0,0,24.6002,44.4036,592.934)">
                        <path d="M0.417,-0.189C0.417,-0.24 0.407,-0.281 0.386,-0.313C0.365,-0.345 0.333,-0.361 0.29,-0.361C0.271,-0.361 0.253,-0.357 0.236,-0.349C0.219,-0.34 0.204,-0.328 0.192,-0.313C0.179,-0.298 0.169,-0.28 0.162,-0.259C0.155,-0.238 0.151,-0.214 0.151,-0.189C0.151,-0.164 0.154,-0.14 0.161,-0.119C0.168,-0.098 0.177,-0.079 0.189,-0.064C0.201,-0.049 0.215,-0.037 0.232,-0.029C0.248,-0.02 0.265,-0.016 0.284,-0.016C0.305,-0.016 0.324,-0.02 0.341,-0.029C0.357,-0.037 0.371,-0.049 0.382,-0.064C0.393,-0.079 0.402,-0.098 0.408,-0.119C0.414,-0.14 0.417,-0.164 0.417,-0.189ZM0.412,-0.633C0.405,-0.635 0.397,-0.637 0.389,-0.638C0.381,-0.639 0.371,-0.64 0.36,-0.64C0.334,-0.64 0.311,-0.635 0.29,-0.624C0.269,-0.612 0.251,-0.598 0.235,-0.58C0.219,-0.561 0.205,-0.54 0.194,-0.517C0.183,-0.493 0.173,-0.468 0.166,-0.443C0.159,-0.418 0.153,-0.393 0.15,-0.369C0.147,-0.344 0.145,-0.322 0.145,-0.301L0.147,-0.301C0.154,-0.312 0.162,-0.324 0.171,-0.335C0.18,-0.346 0.192,-0.357 0.205,-0.366C0.218,-0.375 0.233,-0.383 0.25,-0.389C0.267,-0.395 0.286,-0.398 0.308,-0.398C0.325,-0.398 0.345,-0.395 0.368,-0.39C0.391,-0.385 0.412,-0.375 0.433,-0.361C0.453,-0.347 0.47,-0.328 0.484,-0.304C0.498,-0.279 0.505,-0.248 0.505,-0.21C0.505,-0.177 0.5,-0.146 0.49,-0.119C0.479,-0.091 0.464,-0.067 0.445,-0.048C0.426,-0.028 0.402,-0.013 0.375,-0.003C0.348,0.008 0.317,0.013 0.283,0.013C0.254,0.013 0.227,0.008 0.2,-0.002C0.173,-0.011 0.15,-0.027 0.13,-0.05C0.109,-0.073 0.093,-0.102 0.081,-0.139C0.069,-0.175 0.063,-0.219 0.063,-0.272C0.063,-0.327 0.07,-0.38 0.083,-0.429C0.096,-0.478 0.115,-0.52 0.14,-0.557C0.165,-0.593 0.196,-0.621 0.233,-0.642C0.27,-0.663 0.312,-0.673 0.36,-0.672L0.386,-0.672C0.391,-0.671 0.397,-0.67 0.402,-0.669L0.417,-0.637L0.412,-0.633Z" style="fill-rule:nonzero;"/>
                    </g>
                    <g transform="matrix(24.6002,0,0,24.6002,58.0813,592.934)">
                        <path d="M0.044,-0.328C0.044,-0.375 0.048,-0.42 0.056,-0.462C0.064,-0.503 0.077,-0.54 0.096,-0.571C0.114,-0.602 0.138,-0.626 0.168,-0.645C0.198,-0.663 0.235,-0.672 0.278,-0.672C0.326,-0.672 0.365,-0.663 0.396,-0.645C0.426,-0.626 0.45,-0.602 0.467,-0.571C0.484,-0.54 0.496,-0.503 0.503,-0.462C0.509,-0.42 0.512,-0.375 0.512,-0.328C0.512,-0.282 0.507,-0.238 0.498,-0.197C0.489,-0.156 0.474,-0.119 0.456,-0.088C0.436,-0.057 0.412,-0.032 0.383,-0.014C0.354,0.004 0.319,0.013 0.278,0.013C0.23,0.013 0.191,0.004 0.161,-0.013C0.13,-0.03 0.106,-0.055 0.089,-0.086C0.072,-0.117 0.06,-0.153 0.054,-0.195C0.047,-0.236 0.044,-0.281 0.044,-0.328ZM0.126,-0.328C0.126,-0.284 0.129,-0.243 0.134,-0.205C0.139,-0.167 0.147,-0.134 0.159,-0.106C0.171,-0.078 0.187,-0.056 0.206,-0.04C0.225,-0.024 0.249,-0.016 0.278,-0.016C0.307,-0.016 0.331,-0.024 0.35,-0.04C0.369,-0.056 0.385,-0.078 0.397,-0.106C0.409,-0.134 0.418,-0.167 0.423,-0.205C0.428,-0.243 0.43,-0.284 0.43,-0.328C0.43,-0.372 0.428,-0.413 0.423,-0.451C0.418,-0.489 0.409,-0.522 0.397,-0.55C0.385,-0.578 0.369,-0.6 0.35,-0.616C0.331,-0.632 0.307,-0.64 0.278,-0.64C0.249,-0.64 0.225,-0.633 0.206,-0.618C0.187,-0.603 0.171,-0.582 0.159,-0.555C0.147,-0.528 0.139,-0.495 0.134,-0.457C0.129,-0.418 0.126,-0.375 0.126,-0.328Z" style="fill-rule:nonzero;"/>
                    </g>
                </g>
                <g transform="matrix(0.751995,0,0,0.751995,165.241,63.8609)">
                    <g transform="matrix(24.6002,0,0,24.6002,44.4036,592.934)">
                        <path d="M0.158,-0.374C0.171,-0.381 0.186,-0.388 0.202,-0.393C0.217,-0.398 0.24,-0.4 0.27,-0.4C0.299,-0.4 0.326,-0.395 0.35,-0.385C0.373,-0.375 0.393,-0.361 0.41,-0.344C0.427,-0.327 0.44,-0.307 0.449,-0.284C0.458,-0.261 0.462,-0.237 0.462,-0.212C0.462,-0.181 0.456,-0.151 0.444,-0.124C0.432,-0.096 0.415,-0.072 0.393,-0.052C0.371,-0.031 0.345,-0.015 0.315,-0.004C0.284,0.007 0.25,0.013 0.213,0.013C0.183,0.013 0.154,0.011 0.127,0.006C0.099,0 0.074,-0.009 0.053,-0.024L0.053,-0.032C0.056,-0.041 0.059,-0.05 0.062,-0.062C0.065,-0.073 0.067,-0.082 0.068,-0.09L0.075,-0.09C0.081,-0.078 0.089,-0.067 0.1,-0.058C0.11,-0.049 0.122,-0.041 0.135,-0.035C0.148,-0.028 0.161,-0.024 0.176,-0.021C0.19,-0.018 0.204,-0.016 0.217,-0.016C0.237,-0.016 0.256,-0.02 0.275,-0.027C0.293,-0.034 0.309,-0.046 0.323,-0.061C0.337,-0.076 0.348,-0.096 0.357,-0.119C0.366,-0.142 0.37,-0.17 0.37,-0.201C0.37,-0.229 0.366,-0.253 0.358,-0.273C0.35,-0.293 0.339,-0.309 0.327,-0.322C0.314,-0.335 0.299,-0.344 0.282,-0.35C0.265,-0.355 0.248,-0.358 0.23,-0.358C0.202,-0.358 0.179,-0.354 0.162,-0.345C0.145,-0.335 0.133,-0.329 0.127,-0.325L0.116,-0.332C0.121,-0.358 0.124,-0.386 0.125,-0.415C0.126,-0.444 0.126,-0.472 0.126,-0.501C0.126,-0.529 0.126,-0.558 0.125,-0.588C0.124,-0.617 0.121,-0.643 0.118,-0.666L0.127,-0.672C0.138,-0.67 0.157,-0.668 0.183,-0.666C0.212,-0.664 0.253,-0.663 0.305,-0.663C0.337,-0.663 0.365,-0.663 0.39,-0.664C0.415,-0.664 0.433,-0.664 0.445,-0.665L0.45,-0.661C0.447,-0.652 0.446,-0.643 0.445,-0.634C0.444,-0.624 0.443,-0.614 0.443,-0.605C0.443,-0.596 0.443,-0.59 0.444,-0.588C0.429,-0.591 0.41,-0.593 0.386,-0.595C0.361,-0.596 0.336,-0.598 0.309,-0.599C0.282,-0.6 0.257,-0.6 0.232,-0.601L0.172,-0.601L0.158,-0.374Z" style="fill-rule:nonzero;"/>
                    </g>
                    <g transform="matrix(24.6002,0,0,24.6002,58.0813,592.934)">
                        <path d="M0.331,-0.574C0.317,-0.555 0.299,-0.53 0.278,-0.5C0.257,-0.469 0.235,-0.438 0.212,-0.406C0.189,-0.373 0.168,-0.342 0.148,-0.312C0.127,-0.282 0.111,-0.257 0.1,-0.238L0.333,-0.238L0.333,-0.574L0.331,-0.574ZM0.021,-0.197C0.05,-0.238 0.081,-0.281 0.113,-0.326C0.144,-0.371 0.175,-0.414 0.205,-0.456C0.234,-0.498 0.262,-0.537 0.287,-0.574C0.312,-0.61 0.332,-0.641 0.348,-0.666C0.361,-0.663 0.373,-0.661 0.382,-0.661C0.391,-0.661 0.402,-0.663 0.414,-0.666C0.412,-0.622 0.41,-0.572 0.409,-0.518C0.408,-0.462 0.407,-0.406 0.407,-0.348L0.407,-0.238C0.426,-0.238 0.445,-0.239 0.462,-0.241C0.479,-0.242 0.494,-0.244 0.505,-0.246C0.502,-0.233 0.5,-0.222 0.5,-0.213C0.5,-0.204 0.502,-0.193 0.505,-0.18C0.494,-0.182 0.479,-0.184 0.462,-0.185C0.445,-0.186 0.426,-0.186 0.407,-0.186L0.407,-0.144C0.407,-0.118 0.408,-0.091 0.409,-0.064C0.41,-0.036 0.412,-0.014 0.413,0.002C0.4,0.001 0.385,-0 0.369,-0C0.353,-0 0.338,0.001 0.325,0.002C0.326,-0.015 0.328,-0.038 0.33,-0.065C0.332,-0.092 0.333,-0.119 0.333,-0.144L0.333,-0.186L0.267,-0.186C0.238,-0.185 0.207,-0.185 0.176,-0.184C0.144,-0.183 0.114,-0.183 0.085,-0.182C0.056,-0.181 0.035,-0.18 0.021,-0.179L0.021,-0.197Z" style="fill-rule:nonzero;"/>
                    </g>
                </g>
                <g transform="matrix(0.751995,0,0,0.751995,165.25,140.491)">
                    <g transform="matrix(24.6002,0,0,24.6002,44.4036,592.934)">
                        <path d="M0.507,-0.641C0.446,-0.538 0.385,-0.432 0.324,-0.323C0.262,-0.213 0.204,-0.105 0.149,0.002C0.138,0.001 0.126,-0 0.111,-0C0.098,-0 0.086,0.001 0.075,0.002C0.106,-0.047 0.139,-0.099 0.174,-0.156C0.208,-0.212 0.241,-0.267 0.273,-0.321C0.305,-0.374 0.335,-0.424 0.362,-0.471C0.389,-0.518 0.412,-0.556 0.429,-0.587C0.399,-0.587 0.355,-0.587 0.297,-0.586C0.238,-0.585 0.166,-0.582 0.08,-0.577C0.083,-0.59 0.084,-0.605 0.084,-0.622C0.084,-0.638 0.083,-0.653 0.08,-0.666C0.108,-0.664 0.133,-0.662 0.155,-0.661C0.176,-0.66 0.196,-0.659 0.215,-0.658C0.23,-0.658 0.252,-0.658 0.279,-0.657C0.306,-0.656 0.332,-0.656 0.357,-0.656L0.404,-0.656C0.425,-0.656 0.443,-0.656 0.458,-0.657L0.507,-0.657L0.507,-0.641Z" style="fill-rule:nonzero;"/>
                    </g>
                    <g transform="matrix(24.6002,0,0,24.6002,58.0813,592.934)">
                        <path d="M0.403,-0.484C0.403,-0.53 0.391,-0.568 0.367,-0.597C0.342,-0.626 0.31,-0.64 0.27,-0.64C0.23,-0.64 0.198,-0.624 0.174,-0.592C0.149,-0.559 0.137,-0.515 0.137,-0.458C0.137,-0.4 0.148,-0.359 0.17,-0.334C0.192,-0.309 0.222,-0.296 0.26,-0.296C0.283,-0.296 0.304,-0.301 0.322,-0.312C0.339,-0.323 0.354,-0.337 0.366,-0.354C0.378,-0.371 0.387,-0.391 0.394,-0.414C0.4,-0.437 0.403,-0.46 0.403,-0.484ZM0.106,-0.057C0.12,-0.044 0.135,-0.034 0.152,-0.027C0.169,-0.02 0.186,-0.016 0.205,-0.016C0.241,-0.016 0.272,-0.026 0.298,-0.046C0.323,-0.066 0.344,-0.092 0.36,-0.125C0.376,-0.157 0.388,-0.193 0.396,-0.233C0.403,-0.273 0.407,-0.313 0.407,-0.353L0.405,-0.353C0.39,-0.325 0.369,-0.302 0.343,-0.285C0.316,-0.268 0.283,-0.259 0.243,-0.259C0.182,-0.259 0.135,-0.276 0.101,-0.311C0.066,-0.345 0.049,-0.394 0.049,-0.458C0.049,-0.489 0.054,-0.517 0.065,-0.543C0.075,-0.569 0.09,-0.592 0.109,-0.611C0.128,-0.63 0.152,-0.645 0.179,-0.656C0.206,-0.667 0.237,-0.672 0.271,-0.672C0.301,-0.672 0.329,-0.667 0.357,-0.657C0.384,-0.646 0.407,-0.63 0.428,-0.607C0.448,-0.584 0.464,-0.554 0.477,-0.518C0.489,-0.481 0.495,-0.437 0.495,-0.384C0.495,-0.329 0.488,-0.277 0.475,-0.228C0.462,-0.179 0.442,-0.137 0.417,-0.101C0.392,-0.065 0.361,-0.037 0.325,-0.017C0.288,0.003 0.247,0.013 0.2,0.013C0.183,0.013 0.167,0.012 0.153,0.009C0.139,0.006 0.128,0.003 0.121,-0C0.119,-0.007 0.116,-0.016 0.113,-0.027C0.109,-0.038 0.105,-0.047 0.101,-0.054L0.106,-0.057Z" style="fill-rule:nonzero;"/>
                    </g>
                </g>
                <g transform="matrix(0.751995,0,0,0.751995,185.072,235.393)">
                    <g transform="matrix(24.6002,0,0,24.6002,44.4036,592.934)">
                        <path d="M0.079,-0.612C0.092,-0.625 0.111,-0.639 0.135,-0.652C0.158,-0.665 0.188,-0.672 0.225,-0.672C0.251,-0.672 0.276,-0.669 0.299,-0.663C0.322,-0.657 0.343,-0.648 0.36,-0.636C0.377,-0.624 0.391,-0.609 0.401,-0.59C0.411,-0.571 0.416,-0.549 0.416,-0.523C0.416,-0.499 0.412,-0.478 0.403,-0.459C0.394,-0.44 0.384,-0.423 0.371,-0.41C0.358,-0.396 0.343,-0.385 0.327,-0.376C0.311,-0.367 0.296,-0.361 0.281,-0.357L0.281,-0.351C0.298,-0.35 0.317,-0.347 0.336,-0.342C0.355,-0.337 0.373,-0.328 0.39,-0.317C0.407,-0.305 0.421,-0.289 0.432,-0.27C0.443,-0.251 0.448,-0.226 0.448,-0.196C0.448,-0.165 0.442,-0.137 0.43,-0.112C0.417,-0.086 0.4,-0.064 0.378,-0.045C0.355,-0.026 0.328,-0.012 0.297,-0.002C0.266,0.008 0.231,0.013 0.193,0.013C0.158,0.013 0.129,0.01 0.105,0.004C0.081,-0.003 0.06,-0.01 0.042,-0.019C0.045,-0.024 0.047,-0.033 0.05,-0.046C0.052,-0.058 0.053,-0.069 0.054,-0.079L0.06,-0.083C0.066,-0.076 0.073,-0.069 0.082,-0.061C0.091,-0.053 0.101,-0.046 0.113,-0.039C0.124,-0.032 0.137,-0.027 0.151,-0.023C0.164,-0.018 0.179,-0.016 0.195,-0.016C0.22,-0.016 0.243,-0.02 0.263,-0.028C0.282,-0.036 0.299,-0.047 0.313,-0.062C0.327,-0.077 0.338,-0.094 0.345,-0.115C0.352,-0.136 0.356,-0.158 0.356,-0.183C0.356,-0.21 0.353,-0.234 0.346,-0.253C0.339,-0.272 0.329,-0.287 0.317,-0.299C0.304,-0.31 0.289,-0.319 0.272,-0.324C0.255,-0.329 0.236,-0.332 0.215,-0.332C0.208,-0.332 0.2,-0.331 0.192,-0.33C0.183,-0.329 0.176,-0.327 0.17,-0.326C0.171,-0.329 0.171,-0.333 0.172,-0.337L0.172,-0.358C0.171,-0.361 0.171,-0.365 0.17,-0.368C0.183,-0.365 0.198,-0.364 0.215,-0.364C0.238,-0.364 0.257,-0.369 0.272,-0.379C0.287,-0.388 0.298,-0.401 0.307,-0.416C0.315,-0.431 0.321,-0.447 0.324,-0.465C0.327,-0.483 0.328,-0.5 0.328,-0.517C0.328,-0.538 0.325,-0.557 0.319,-0.573C0.312,-0.588 0.304,-0.601 0.294,-0.611C0.284,-0.621 0.273,-0.628 0.26,-0.633C0.247,-0.638 0.234,-0.64 0.221,-0.64C0.193,-0.64 0.169,-0.632 0.15,-0.616C0.13,-0.599 0.116,-0.581 0.109,-0.56L0.102,-0.558L0.079,-0.612Z" style="fill-rule:nonzero;"/>
                    </g>
                    <g transform="matrix(24.6002,0,0,24.6002,58.0813,592.934)">
                        <path d="M0.403,-0.484C0.403,-0.53 0.391,-0.568 0.367,-0.597C0.342,-0.626 0.31,-0.64 0.27,-0.64C0.23,-0.64 0.198,-0.624 0.174,-0.592C0.149,-0.559 0.137,-0.515 0.137,-0.458C0.137,-0.4 0.148,-0.359 0.17,-0.334C0.192,-0.309 0.222,-0.296 0.26,-0.296C0.283,-0.296 0.304,-0.301 0.322,-0.312C0.339,-0.323 0.354,-0.337 0.366,-0.354C0.378,-0.371 0.387,-0.391 0.394,-0.414C0.4,-0.437 0.403,-0.46 0.403,-0.484ZM0.106,-0.057C0.12,-0.044 0.135,-0.034 0.152,-0.027C0.169,-0.02 0.186,-0.016 0.205,-0.016C0.241,-0.016 0.272,-0.026 0.298,-0.046C0.323,-0.066 0.344,-0.092 0.36,-0.125C0.376,-0.157 0.388,-0.193 0.396,-0.233C0.403,-0.273 0.407,-0.313 0.407,-0.353L0.405,-0.353C0.39,-0.325 0.369,-0.302 0.343,-0.285C0.316,-0.268 0.283,-0.259 0.243,-0.259C0.182,-0.259 0.135,-0.276 0.101,-0.311C0.066,-0.345 0.049,-0.394 0.049,-0.458C0.049,-0.489 0.054,-0.517 0.065,-0.543C0.075,-0.569 0.09,-0.592 0.109,-0.611C0.128,-0.63 0.152,-0.645 0.179,-0.656C0.206,-0.667 0.237,-0.672 0.271,-0.672C0.301,-0.672 0.329,-0.667 0.357,-0.657C0.384,-0.646 0.407,-0.63 0.428,-0.607C0.448,-0.584 0.464,-0.554 0.477,-0.518C0.489,-0.481 0.495,-0.437 0.495,-0.384C0.495,-0.329 0.488,-0.277 0.475,-0.228C0.462,-0.179 0.442,-0.137 0.417,-0.101C0.392,-0.065 0.361,-0.037 0.325,-0.017C0.288,0.003 0.247,0.013 0.2,0.013C0.183,0.013 0.167,0.012 0.153,0.009C0.139,0.006 0.128,0.003 0.121,-0C0.119,-0.007 0.116,-0.016 0.113,-0.027C0.109,-0.038 0.105,-0.047 0.101,-0.054L0.106,-0.057Z" style="fill-rule:nonzero;"/>
                    </g>
                </g>
                <g transform="matrix(0.751995,0,0,0.751995,262.265,178.545)">
                    <g transform="matrix(24.6002,0,0,24.6002,44.4036,592.934)">
                        <path d="M0.064,-0.573C0.085,-0.607 0.111,-0.632 0.14,-0.648C0.169,-0.664 0.205,-0.672 0.247,-0.672C0.273,-0.672 0.298,-0.669 0.321,-0.662C0.344,-0.655 0.365,-0.645 0.382,-0.63C0.399,-0.615 0.412,-0.597 0.422,-0.575C0.432,-0.553 0.437,-0.526 0.437,-0.495C0.437,-0.472 0.434,-0.451 0.429,-0.432C0.424,-0.412 0.416,-0.393 0.406,-0.374C0.395,-0.355 0.382,-0.337 0.367,-0.318C0.351,-0.299 0.332,-0.278 0.311,-0.257C0.298,-0.244 0.284,-0.23 0.267,-0.213C0.25,-0.196 0.234,-0.179 0.217,-0.162C0.2,-0.144 0.183,-0.126 0.168,-0.109C0.153,-0.092 0.14,-0.076 0.129,-0.061L0.224,-0.061C0.272,-0.061 0.315,-0.062 0.352,-0.064C0.389,-0.065 0.421,-0.067 0.449,-0.069C0.446,-0.054 0.444,-0.042 0.444,-0.032C0.444,-0.023 0.446,-0.011 0.449,0.002C0.413,0.001 0.377,-0 0.342,-0L0.128,-0C0.092,-0 0.056,0.001 0.02,0.002L0.02,-0.01C0.067,-0.056 0.107,-0.096 0.142,-0.132C0.176,-0.167 0.205,-0.198 0.229,-0.226C0.253,-0.254 0.273,-0.279 0.288,-0.302C0.303,-0.325 0.314,-0.346 0.323,-0.367C0.332,-0.387 0.338,-0.407 0.341,-0.427C0.343,-0.446 0.345,-0.467 0.345,-0.49C0.345,-0.539 0.334,-0.576 0.312,-0.6C0.289,-0.623 0.263,-0.635 0.233,-0.635C0.212,-0.635 0.193,-0.631 0.178,-0.624C0.163,-0.616 0.15,-0.607 0.14,-0.596C0.13,-0.584 0.122,-0.573 0.117,-0.56C0.112,-0.547 0.108,-0.536 0.106,-0.526L0.099,-0.524L0.064,-0.573Z" style="fill-rule:nonzero;"/>
                    </g>
                    <g transform="matrix(24.6002,0,0,24.6002,58.0813,592.934)">
                        <path d="M0.403,-0.484C0.403,-0.53 0.391,-0.568 0.367,-0.597C0.342,-0.626 0.31,-0.64 0.27,-0.64C0.23,-0.64 0.198,-0.624 0.174,-0.592C0.149,-0.559 0.137,-0.515 0.137,-0.458C0.137,-0.4 0.148,-0.359 0.17,-0.334C0.192,-0.309 0.222,-0.296 0.26,-0.296C0.283,-0.296 0.304,-0.301 0.322,-0.312C0.339,-0.323 0.354,-0.337 0.366,-0.354C0.378,-0.371 0.387,-0.391 0.394,-0.414C0.4,-0.437 0.403,-0.46 0.403,-0.484ZM0.106,-0.057C0.12,-0.044 0.135,-0.034 0.152,-0.027C0.169,-0.02 0.186,-0.016 0.205,-0.016C0.241,-0.016 0.272,-0.026 0.298,-0.046C0.323,-0.066 0.344,-0.092 0.36,-0.125C0.376,-0.157 0.388,-0.193 0.396,-0.233C0.403,-0.273 0.407,-0.313 0.407,-0.353L0.405,-0.353C0.39,-0.325 0.369,-0.302 0.343,-0.285C0.316,-0.268 0.283,-0.259 0.243,-0.259C0.182,-0.259 0.135,-0.276 0.101,-0.311C0.066,-0.345 0.049,-0.394 0.049,-0.458C0.049,-0.489 0.054,-0.517 0.065,-0.543C0.075,-0.569 0.09,-0.592 0.109,-0.611C0.128,-0.63 0.152,-0.645 0.179,-0.656C0.206,-0.667 0.237,-0.672 0.271,-0.672C0.301,-0.672 0.329,-0.667 0.357,-0.657C0.384,-0.646 0.407,-0.63 0.428,-0.607C0.448,-0.584 0.464,-0.554 0.477,-0.518C0.489,-0.481 0.495,-0.437 0.495,-0.384C0.495,-0.329 0.488,-0.277 0.475,-0.228C0.462,-0.179 0.442,-0.137 0.417,-0.101C0.392,-0.065 0.361,-0.037 0.325,-0.017C0.288,0.003 0.247,0.013 0.2,0.013C0.183,0.013 0.167,0.012 0.153,0.009C0.139,0.006 0.128,0.003 0.121,-0C0.119,-0.007 0.116,-0.016 0.113,-0.027C0.109,-0.038 0.105,-0.047 0.101,-0.054L0.106,-0.057Z" style="fill-rule:nonzero;"/>
                    </g>
                </g>
                <g transform="matrix(0.751995,0,0,0.751995,339.169,234.633)">
                    <g transform="matrix(24.6002,0,0,24.6002,44.4036,592.934)">
                        <path d="M0.064,-0.573C0.085,-0.607 0.111,-0.632 0.14,-0.648C0.169,-0.664 0.205,-0.672 0.247,-0.672C0.273,-0.672 0.298,-0.669 0.321,-0.662C0.344,-0.655 0.365,-0.645 0.382,-0.63C0.399,-0.615 0.412,-0.597 0.422,-0.575C0.432,-0.553 0.437,-0.526 0.437,-0.495C0.437,-0.472 0.434,-0.451 0.429,-0.432C0.424,-0.412 0.416,-0.393 0.406,-0.374C0.395,-0.355 0.382,-0.337 0.367,-0.318C0.351,-0.299 0.332,-0.278 0.311,-0.257C0.298,-0.244 0.284,-0.23 0.267,-0.213C0.25,-0.196 0.234,-0.179 0.217,-0.162C0.2,-0.144 0.183,-0.126 0.168,-0.109C0.153,-0.092 0.14,-0.076 0.129,-0.061L0.224,-0.061C0.272,-0.061 0.315,-0.062 0.352,-0.064C0.389,-0.065 0.421,-0.067 0.449,-0.069C0.446,-0.054 0.444,-0.042 0.444,-0.032C0.444,-0.023 0.446,-0.011 0.449,0.002C0.413,0.001 0.377,-0 0.342,-0L0.128,-0C0.092,-0 0.056,0.001 0.02,0.002L0.02,-0.01C0.067,-0.056 0.107,-0.096 0.142,-0.132C0.176,-0.167 0.205,-0.198 0.229,-0.226C0.253,-0.254 0.273,-0.279 0.288,-0.302C0.303,-0.325 0.314,-0.346 0.323,-0.367C0.332,-0.387 0.338,-0.407 0.341,-0.427C0.343,-0.446 0.345,-0.467 0.345,-0.49C0.345,-0.539 0.334,-0.576 0.312,-0.6C0.289,-0.623 0.263,-0.635 0.233,-0.635C0.212,-0.635 0.193,-0.631 0.178,-0.624C0.163,-0.616 0.15,-0.607 0.14,-0.596C0.13,-0.584 0.122,-0.573 0.117,-0.56C0.112,-0.547 0.108,-0.536 0.106,-0.526L0.099,-0.524L0.064,-0.573Z" style="fill-rule:nonzero;"/>
                    </g>
                    <g transform="matrix(24.6002,0,0,24.6002,58.0813,592.934)">
                        <path d="M0.158,-0.374C0.171,-0.381 0.186,-0.388 0.202,-0.393C0.217,-0.398 0.24,-0.4 0.27,-0.4C0.299,-0.4 0.326,-0.395 0.35,-0.385C0.373,-0.375 0.393,-0.361 0.41,-0.344C0.427,-0.327 0.44,-0.307 0.449,-0.284C0.458,-0.261 0.462,-0.237 0.462,-0.212C0.462,-0.181 0.456,-0.151 0.444,-0.124C0.432,-0.096 0.415,-0.072 0.393,-0.052C0.371,-0.031 0.345,-0.015 0.315,-0.004C0.284,0.007 0.25,0.013 0.213,0.013C0.183,0.013 0.154,0.011 0.127,0.006C0.099,0 0.074,-0.009 0.053,-0.024L0.053,-0.032C0.056,-0.041 0.059,-0.05 0.062,-0.062C0.065,-0.073 0.067,-0.082 0.068,-0.09L0.075,-0.09C0.081,-0.078 0.089,-0.067 0.1,-0.058C0.11,-0.049 0.122,-0.041 0.135,-0.035C0.148,-0.028 0.161,-0.024 0.176,-0.021C0.19,-0.018 0.204,-0.016 0.217,-0.016C0.237,-0.016 0.256,-0.02 0.275,-0.027C0.293,-0.034 0.309,-0.046 0.323,-0.061C0.337,-0.076 0.348,-0.096 0.357,-0.119C0.366,-0.142 0.37,-0.17 0.37,-0.201C0.37,-0.229 0.366,-0.253 0.358,-0.273C0.35,-0.293 0.339,-0.309 0.327,-0.322C0.314,-0.335 0.299,-0.344 0.282,-0.35C0.265,-0.355 0.248,-0.358 0.23,-0.358C0.202,-0.358 0.179,-0.354 0.162,-0.345C0.145,-0.335 0.133,-0.329 0.127,-0.325L0.116,-0.332C0.121,-0.358 0.124,-0.386 0.125,-0.415C0.126,-0.444 0.126,-0.472 0.126,-0.501C0.126,-0.529 0.126,-0.558 0.125,-0.588C0.124,-0.617 0.121,-0.643 0.118,-0.666L0.127,-0.672C0.138,-0.67 0.157,-0.668 0.183,-0.666C0.212,-0.664 0.253,-0.663 0.305,-0.663C0.337,-0.663 0.365,-0.663 0.39,-0.664C0.415,-0.664 0.433,-0.664 0.445,-0.665L0.45,-0.661C0.447,-0.652 0.446,-0.643 0.445,-0.634C0.444,-0.624 0.443,-0.614 0.443,-0.605C0.443,-0.596 0.443,-0.59 0.444,-0.588C0.429,-0.591 0.41,-0.593 0.386,-0.595C0.361,-0.596 0.336,-0.598 0.309,-0.599C0.282,-0.6 0.257,-0.6 0.232,-0.601L0.172,-0.601L0.158,-0.374Z" style="fill-rule:nonzero;"/>
                    </g>
                </g>
                <g transform="matrix(0.751995,0,0,0.751995,357.675,138.522)">
                    <g transform="matrix(24.6002,0,0,24.6002,44.4036,592.934)">
                        <path d="M0.507,-0.641C0.446,-0.538 0.385,-0.432 0.324,-0.323C0.262,-0.213 0.204,-0.105 0.149,0.002C0.138,0.001 0.126,-0 0.111,-0C0.098,-0 0.086,0.001 0.075,0.002C0.106,-0.047 0.139,-0.099 0.174,-0.156C0.208,-0.212 0.241,-0.267 0.273,-0.321C0.305,-0.374 0.335,-0.424 0.362,-0.471C0.389,-0.518 0.412,-0.556 0.429,-0.587C0.399,-0.587 0.355,-0.587 0.297,-0.586C0.238,-0.585 0.166,-0.582 0.08,-0.577C0.083,-0.59 0.084,-0.605 0.084,-0.622C0.084,-0.638 0.083,-0.653 0.08,-0.666C0.108,-0.664 0.133,-0.662 0.155,-0.661C0.176,-0.66 0.196,-0.659 0.215,-0.658C0.23,-0.658 0.252,-0.658 0.279,-0.657C0.306,-0.656 0.332,-0.656 0.357,-0.656L0.404,-0.656C0.425,-0.656 0.443,-0.656 0.458,-0.657L0.507,-0.657L0.507,-0.641Z" style="fill-rule:nonzero;"/>
                    </g>
                    <g transform="matrix(24.6002,0,0,24.6002,58.0813,592.934)">
                        <path d="M0.158,-0.374C0.171,-0.381 0.186,-0.388 0.202,-0.393C0.217,-0.398 0.24,-0.4 0.27,-0.4C0.299,-0.4 0.326,-0.395 0.35,-0.385C0.373,-0.375 0.393,-0.361 0.41,-0.344C0.427,-0.327 0.44,-0.307 0.449,-0.284C0.458,-0.261 0.462,-0.237 0.462,-0.212C0.462,-0.181 0.456,-0.151 0.444,-0.124C0.432,-0.096 0.415,-0.072 0.393,-0.052C0.371,-0.031 0.345,-0.015 0.315,-0.004C0.284,0.007 0.25,0.013 0.213,0.013C0.183,0.013 0.154,0.011 0.127,0.006C0.099,0 0.074,-0.009 0.053,-0.024L0.053,-0.032C0.056,-0.041 0.059,-0.05 0.062,-0.062C0.065,-0.073 0.067,-0.082 0.068,-0.09L0.075,-0.09C0.081,-0.078 0.089,-0.067 0.1,-0.058C0.11,-0.049 0.122,-0.041 0.135,-0.035C0.148,-0.028 0.161,-0.024 0.176,-0.021C0.19,-0.018 0.204,-0.016 0.217,-0.016C0.237,-0.016 0.256,-0.02 0.275,-0.027C0.293,-0.034 0.309,-0.046 0.323,-0.061C0.337,-0.076 0.348,-0.096 0.357,-0.119C0.366,-0.142 0.37,-0.17 0.37,-0.201C0.37,-0.229 0.366,-0.253 0.358,-0.273C0.35,-0.293 0.339,-0.309 0.327,-0.322C0.314,-0.335 0.299,-0.344 0.282,-0.35C0.265,-0.355 0.248,-0.358 0.23,-0.358C0.202,-0.358 0.179,-0.354 0.162,-0.345C0.145,-0.335 0.133,-0.329 0.127,-0.325L0.116,-0.332C0.121,-0.358 0.124,-0.386 0.125,-0.415C0.126,-0.444 0.126,-0.472 0.126,-0.501C0.126,-0.529 0.126,-0.558 0.125,-0.588C0.124,-0.617 0.121,-0.643 0.118,-0.666L0.127,-0.672C0.138,-0.67 0.157,-0.668 0.183,-0.666C0.212,-0.664 0.253,-0.663 0.305,-0.663C0.337,-0.663 0.365,-0.663 0.39,-0.664C0.415,-0.664 0.433,-0.664 0.445,-0.665L0.45,-0.661C0.447,-0.652 0.446,-0.643 0.445,-0.634C0.444,-0.624 0.443,-0.614 0.443,-0.605C0.443,-0.596 0.443,-0.59 0.444,-0.588C0.429,-0.591 0.41,-0.593 0.386,-0.595C0.361,-0.596 0.336,-0.598 0.309,-0.599C0.282,-0.6 0.257,-0.6 0.232,-0.601L0.172,-0.601L0.158,-0.374Z" style="fill-rule:nonzero;"/>
                    </g>
                </g>
                <g transform="matrix(0.751995,0,0,0.751995,357.776,63.06)">
                    <g transform="matrix(24.6002,0,0,24.6002,44.4036,592.934)">
                        <path d="M0.331,-0.574C0.317,-0.555 0.299,-0.53 0.278,-0.5C0.257,-0.469 0.235,-0.438 0.212,-0.406C0.189,-0.373 0.168,-0.342 0.148,-0.312C0.127,-0.282 0.111,-0.257 0.1,-0.238L0.333,-0.238L0.333,-0.574L0.331,-0.574ZM0.021,-0.197C0.05,-0.238 0.081,-0.281 0.113,-0.326C0.144,-0.371 0.175,-0.414 0.205,-0.456C0.234,-0.498 0.262,-0.537 0.287,-0.574C0.312,-0.61 0.332,-0.641 0.348,-0.666C0.361,-0.663 0.373,-0.661 0.382,-0.661C0.391,-0.661 0.402,-0.663 0.414,-0.666C0.412,-0.622 0.41,-0.572 0.409,-0.518C0.408,-0.462 0.407,-0.406 0.407,-0.348L0.407,-0.238C0.426,-0.238 0.445,-0.239 0.462,-0.241C0.479,-0.242 0.494,-0.244 0.505,-0.246C0.502,-0.233 0.5,-0.222 0.5,-0.213C0.5,-0.204 0.502,-0.193 0.505,-0.18C0.494,-0.182 0.479,-0.184 0.462,-0.185C0.445,-0.186 0.426,-0.186 0.407,-0.186L0.407,-0.144C0.407,-0.118 0.408,-0.091 0.409,-0.064C0.41,-0.036 0.412,-0.014 0.413,0.002C0.4,0.001 0.385,-0 0.369,-0C0.353,-0 0.338,0.001 0.325,0.002C0.326,-0.015 0.328,-0.038 0.33,-0.065C0.332,-0.092 0.333,-0.119 0.333,-0.144L0.333,-0.186L0.267,-0.186C0.238,-0.185 0.207,-0.185 0.176,-0.184C0.144,-0.183 0.114,-0.183 0.085,-0.182C0.056,-0.181 0.035,-0.18 0.021,-0.179L0.021,-0.197Z" style="fill-rule:nonzero;"/>
                    </g>
                    <g transform="matrix(24.6002,0,0,24.6002,58.0813,592.934)">
                        <path d="M0.403,-0.484C0.403,-0.53 0.391,-0.568 0.367,-0.597C0.342,-0.626 0.31,-0.64 0.27,-0.64C0.23,-0.64 0.198,-0.624 0.174,-0.592C0.149,-0.559 0.137,-0.515 0.137,-0.458C0.137,-0.4 0.148,-0.359 0.17,-0.334C0.192,-0.309 0.222,-0.296 0.26,-0.296C0.283,-0.296 0.304,-0.301 0.322,-0.312C0.339,-0.323 0.354,-0.337 0.366,-0.354C0.378,-0.371 0.387,-0.391 0.394,-0.414C0.4,-0.437 0.403,-0.46 0.403,-0.484ZM0.106,-0.057C0.12,-0.044 0.135,-0.034 0.152,-0.027C0.169,-0.02 0.186,-0.016 0.205,-0.016C0.241,-0.016 0.272,-0.026 0.298,-0.046C0.323,-0.066 0.344,-0.092 0.36,-0.125C0.376,-0.157 0.388,-0.193 0.396,-0.233C0.403,-0.273 0.407,-0.313 0.407,-0.353L0.405,-0.353C0.39,-0.325 0.369,-0.302 0.343,-0.285C0.316,-0.268 0.283,-0.259 0.243,-0.259C0.182,-0.259 0.135,-0.276 0.101,-0.311C0.066,-0.345 0.049,-0.394 0.049,-0.458C0.049,-0.489 0.054,-0.517 0.065,-0.543C0.075,-0.569 0.09,-0.592 0.109,-0.611C0.128,-0.63 0.152,-0.645 0.179,-0.656C0.206,-0.667 0.237,-0.672 0.271,-0.672C0.301,-0.672 0.329,-0.667 0.357,-0.657C0.384,-0.646 0.407,-0.63 0.428,-0.607C0.448,-0.584 0.464,-0.554 0.477,-0.518C0.489,-0.481 0.495,-0.437 0.495,-0.384C0.495,-0.329 0.488,-0.277 0.475,-0.228C0.462,-0.179 0.442,-0.137 0.417,-0.101C0.392,-0.065 0.361,-0.037 0.325,-0.017C0.288,0.003 0.247,0.013 0.2,0.013C0.183,0.013 0.167,0.012 0.153,0.009C0.139,0.006 0.128,0.003 0.121,-0C0.119,-0.007 0.116,-0.016 0.113,-0.027C0.109,-0.038 0.105,-0.047 0.101,-0.054L0.106,-0.057Z" style="fill-rule:nonzero;"/>
                    </g>
                </g>
                <g transform="matrix(0.751995,0,0,0.751995,222.074,-79.702)">
                    <g transform="matrix(24.6002,0,0,24.6002,44.4036,592.934)">
                        <path d="M0.124,-0.542C0.117,-0.555 0.107,-0.566 0.094,-0.574L0.094,-0.581C0.132,-0.596 0.171,-0.613 0.211,-0.632C0.25,-0.65 0.287,-0.668 0.322,-0.685L0.329,-0.68C0.326,-0.636 0.324,-0.592 0.323,-0.55C0.322,-0.506 0.321,-0.463 0.321,-0.419L0.321,-0.252C0.321,-0.208 0.322,-0.165 0.323,-0.123C0.324,-0.08 0.326,-0.039 0.329,0.002C0.321,0.001 0.313,-0 0.306,-0L0.259,-0C0.251,-0 0.243,0.001 0.235,0.002C0.238,-0.039 0.241,-0.081 0.242,-0.123C0.243,-0.165 0.243,-0.208 0.243,-0.252L0.243,-0.608L0.124,-0.542Z" style="fill-rule:nonzero;"/>
                    </g>
                    <g transform="matrix(24.6002,0,0,24.6002,58.0813,592.934)">
                        <path d="M0.507,-0.641C0.446,-0.538 0.385,-0.432 0.324,-0.323C0.262,-0.213 0.204,-0.105 0.149,0.002C0.138,0.001 0.126,-0 0.111,-0C0.098,-0 0.086,0.001 0.075,0.002C0.106,-0.047 0.139,-0.099 0.174,-0.156C0.208,-0.212 0.241,-0.267 0.273,-0.321C0.305,-0.374 0.335,-0.424 0.362,-0.471C0.389,-0.518 0.412,-0.556 0.429,-0.587C0.399,-0.587 0.355,-0.587 0.297,-0.586C0.238,-0.585 0.166,-0.582 0.08,-0.577C0.083,-0.59 0.084,-0.605 0.084,-0.622C0.084,-0.638 0.083,-0.653 0.08,-0.666C0.108,-0.664 0.133,-0.662 0.155,-0.661C0.176,-0.66 0.196,-0.659 0.215,-0.658C0.23,-0.658 0.252,-0.658 0.279,-0.657C0.306,-0.656 0.332,-0.656 0.357,-0.656L0.404,-0.656C0.425,-0.656 0.443,-0.656 0.458,-0.657L0.507,-0.657L0.507,-0.641Z" style="fill-rule:nonzero;"/>
                    </g>
                </g>
                <g transform="matrix(18.4992,0,0,18.4992,339.418,364.343)">
                    <g>
                        <path d="M0.079,-0.612C0.092,-0.625 0.111,-0.639 0.135,-0.652C0.158,-0.665 0.188,-0.672 0.225,-0.672C0.251,-0.672 0.276,-0.669 0.299,-0.663C0.322,-0.657 0.343,-0.648 0.36,-0.636C0.377,-0.624 0.391,-0.609 0.401,-0.59C0.411,-0.571 0.416,-0.549 0.416,-0.523C0.416,-0.499 0.412,-0.478 0.403,-0.459C0.394,-0.44 0.384,-0.423 0.371,-0.41C0.358,-0.396 0.343,-0.385 0.327,-0.376C0.311,-0.367 0.296,-0.361 0.281,-0.357L0.281,-0.351C0.298,-0.35 0.317,-0.347 0.336,-0.342C0.355,-0.337 0.373,-0.328 0.39,-0.317C0.407,-0.305 0.421,-0.289 0.432,-0.27C0.443,-0.251 0.448,-0.226 0.448,-0.196C0.448,-0.165 0.442,-0.137 0.43,-0.112C0.417,-0.086 0.4,-0.064 0.378,-0.045C0.355,-0.026 0.328,-0.012 0.297,-0.002C0.266,0.008 0.231,0.013 0.193,0.013C0.158,0.013 0.129,0.01 0.105,0.004C0.081,-0.003 0.06,-0.01 0.042,-0.019C0.045,-0.024 0.047,-0.033 0.05,-0.046C0.052,-0.058 0.053,-0.069 0.054,-0.079L0.06,-0.083C0.066,-0.076 0.073,-0.069 0.082,-0.061C0.091,-0.053 0.101,-0.046 0.113,-0.039C0.124,-0.032 0.137,-0.027 0.151,-0.023C0.164,-0.018 0.179,-0.016 0.195,-0.016C0.22,-0.016 0.243,-0.02 0.263,-0.028C0.282,-0.036 0.299,-0.047 0.313,-0.062C0.327,-0.077 0.338,-0.094 0.345,-0.115C0.352,-0.136 0.356,-0.158 0.356,-0.183C0.356,-0.21 0.353,-0.234 0.346,-0.253C0.339,-0.272 0.329,-0.287 0.317,-0.299C0.304,-0.31 0.289,-0.319 0.272,-0.324C0.255,-0.329 0.236,-0.332 0.215,-0.332C0.208,-0.332 0.2,-0.331 0.192,-0.33C0.183,-0.329 0.176,-0.327 0.17,-0.326C0.171,-0.329 0.171,-0.333 0.172,-0.337L0.172,-0.358C0.171,-0.361 0.171,-0.365 0.17,-0.368C0.183,-0.365 0.198,-0.364 0.215,-0.364C0.238,-0.364 0.257,-0.369 0.272,-0.379C0.287,-0.388 0.298,-0.401 0.307,-0.416C0.315,-0.431 0.321,-0.447 0.324,-0.465C0.327,-0.483 0.328,-0.5 0.328,-0.517C0.328,-0.538 0.325,-0.557 0.319,-0.573C0.312,-0.588 0.304,-0.601 0.294,-0.611C0.284,-0.621 0.273,-0.628 0.26,-0.633C0.247,-0.638 0.234,-0.64 0.221,-0.64C0.193,-0.64 0.169,-0.632 0.15,-0.616C0.13,-0.599 0.116,-0.581 0.109,-0.56L0.102,-0.558L0.079,-0.612Z" style="fill-rule:nonzero;"/>
                    </g>
                </g>
            </g>
        </g>
        <g id="Path-hints" serif:id="Path hints" transform="matrix(1,0,0,1,-138.552,-342.875)">
            <g id="Circles-with-Paths" serif:id="Circles with Paths">
                <g transform="matrix(1,0,0,1,-21.9982,56.8252)">
                    <circle cx="480.963" cy="367.714" r="13.833" style="fill:rgb(162,215,212);stroke:rgb(0,12,15);stroke-width:1px;"/>
                </g>
                <g transform="matrix(1,0,0,1,-328.077,57.9826)">
                    <circle cx="480.963" cy="367.714" r="13.833" style="fill:rgb(162,215,212);stroke:rgb(0,12,15);stroke-width:1px;"/>
                </g>
                <g transform="matrix(1,0,0,1,-252.443,57.9269)">
                    <circle cx="480.963" cy="367.714" r="13.833" style="fill:rgb(162,215,212);stroke:rgb(0,12,15);stroke-width:1px;"/>
                </g>
                <g transform="matrix(1,0,0,1,-174.99,96.059)">
                    <circle cx="480.963" cy="367.714" r="13.833" style="fill:rgb(162,215,212);stroke:rgb(0,12,15);stroke-width:1px;"/>
                </g>
            </g>
            <g id="numbers-path" serif:id="numbers path">
                <g transform="matrix(0.550565,0,0,0.550565,198.195,97.5577)">
                    <g transform="matrix(19.9795,0,0,19.9795,44.4036,592.934)">
                        <path d="M0.217,-0.122L0.217,-0.551C0.217,-0.561 0.215,-0.569 0.212,-0.574C0.209,-0.579 0.203,-0.581 0.196,-0.581C0.192,-0.581 0.186,-0.58 0.178,-0.577C0.171,-0.575 0.163,-0.571 0.153,-0.567L0.089,-0.536L0.078,-0.555C0.108,-0.57 0.141,-0.587 0.177,-0.606C0.212,-0.626 0.255,-0.65 0.304,-0.678L0.304,-0.122C0.304,-0.074 0.31,-0.045 0.321,-0.035C0.333,-0.025 0.362,-0.02 0.409,-0.02L0.425,-0.02L0.425,-0L0.09,-0L0.09,-0.02C0.149,-0.02 0.185,-0.026 0.198,-0.037C0.21,-0.049 0.217,-0.077 0.217,-0.122Z" style="fill-rule:nonzero;"/>
                    </g>
                    <g transform="matrix(19.9795,0,0,19.9795,54.3934,592.934)">
                        <path d="M0.059,0.012L0.059,-0.008C0.14,-0.019 0.206,-0.047 0.255,-0.093C0.304,-0.139 0.337,-0.202 0.354,-0.282C0.333,-0.268 0.312,-0.257 0.29,-0.249C0.268,-0.242 0.246,-0.238 0.223,-0.238C0.168,-0.238 0.124,-0.257 0.089,-0.296C0.054,-0.335 0.037,-0.385 0.037,-0.447C0.037,-0.513 0.056,-0.567 0.094,-0.609C0.133,-0.652 0.181,-0.673 0.24,-0.673C0.309,-0.673 0.364,-0.65 0.403,-0.603C0.443,-0.557 0.463,-0.493 0.463,-0.412C0.463,-0.289 0.427,-0.19 0.357,-0.115C0.286,-0.041 0.187,0.001 0.059,0.012ZM0.362,-0.325C0.365,-0.345 0.368,-0.363 0.37,-0.379C0.371,-0.395 0.372,-0.411 0.372,-0.426C0.372,-0.497 0.361,-0.552 0.338,-0.591C0.315,-0.63 0.283,-0.65 0.241,-0.65C0.206,-0.65 0.179,-0.635 0.16,-0.606C0.141,-0.577 0.131,-0.536 0.131,-0.484C0.131,-0.418 0.143,-0.367 0.166,-0.331C0.189,-0.294 0.222,-0.276 0.264,-0.276C0.283,-0.276 0.301,-0.28 0.317,-0.288C0.333,-0.296 0.348,-0.309 0.362,-0.325Z" style="fill-rule:nonzero;"/>
                    </g>
                    <g transform="matrix(19.9795,0,0,19.9795,44.4036,612.913)">
                        <path d="M0.052,-0.478L0.031,-0.481C0.044,-0.543 0.07,-0.591 0.109,-0.624C0.147,-0.656 0.195,-0.673 0.254,-0.673C0.309,-0.673 0.353,-0.658 0.386,-0.627C0.419,-0.596 0.435,-0.555 0.435,-0.503C0.435,-0.463 0.424,-0.424 0.401,-0.384C0.379,-0.344 0.336,-0.293 0.274,-0.229L0.124,-0.075L0.318,-0.075C0.369,-0.075 0.403,-0.08 0.421,-0.091C0.438,-0.101 0.454,-0.12 0.467,-0.148L0.486,-0.142L0.429,-0L0.03,-0L0.03,-0.018L0.137,-0.13L0.147,-0.14C0.282,-0.282 0.35,-0.387 0.35,-0.456C0.35,-0.501 0.337,-0.537 0.312,-0.563C0.286,-0.589 0.252,-0.602 0.209,-0.602C0.173,-0.602 0.141,-0.591 0.114,-0.57C0.086,-0.548 0.066,-0.518 0.052,-0.478Z" style="fill-rule:nonzero;"/>
                    </g>
                    <g transform="matrix(19.9795,0,0,19.9795,54.3934,612.913)">
                        <path d="M0.04,-0.518C0.063,-0.569 0.092,-0.607 0.128,-0.634C0.164,-0.66 0.205,-0.673 0.253,-0.673C0.296,-0.673 0.332,-0.661 0.361,-0.637C0.39,-0.613 0.405,-0.583 0.405,-0.549C0.405,-0.523 0.398,-0.498 0.384,-0.475C0.369,-0.452 0.345,-0.426 0.309,-0.397C0.353,-0.384 0.387,-0.363 0.409,-0.334C0.432,-0.305 0.443,-0.269 0.443,-0.225C0.443,-0.158 0.416,-0.101 0.363,-0.056C0.309,-0.01 0.242,0.012 0.161,0.012C0.122,0.012 0.09,0.006 0.065,-0.006C0.041,-0.018 0.029,-0.034 0.029,-0.053C0.029,-0.064 0.033,-0.073 0.041,-0.08C0.048,-0.087 0.058,-0.091 0.07,-0.091C0.091,-0.091 0.117,-0.08 0.149,-0.057C0.181,-0.034 0.207,-0.023 0.227,-0.023C0.264,-0.023 0.296,-0.038 0.324,-0.068C0.352,-0.099 0.366,-0.134 0.366,-0.175C0.366,-0.225 0.349,-0.264 0.315,-0.29C0.28,-0.317 0.23,-0.33 0.165,-0.33L0.154,-0.33L0.154,-0.35C0.204,-0.354 0.244,-0.371 0.276,-0.4C0.307,-0.429 0.323,-0.464 0.323,-0.504C0.323,-0.534 0.313,-0.558 0.292,-0.576C0.271,-0.595 0.244,-0.604 0.211,-0.604C0.18,-0.604 0.151,-0.596 0.125,-0.579C0.099,-0.563 0.076,-0.538 0.057,-0.506L0.04,-0.518Z" style="fill-rule:nonzero;"/>
                    </g>
                </g>
                <g transform="matrix(0.478378,0,0,0.455883,275.683,191.848)">
                    <g transform="matrix(24.129,0,0,24.129,44.757,592.934)">
                        <path d="M0.444,-0.673L0.444,-0.652C0.363,-0.641 0.299,-0.612 0.249,-0.567C0.2,-0.521 0.167,-0.458 0.15,-0.378C0.17,-0.393 0.192,-0.404 0.214,-0.411C0.236,-0.418 0.258,-0.422 0.28,-0.422C0.335,-0.422 0.38,-0.402 0.414,-0.363C0.449,-0.324 0.466,-0.273 0.466,-0.209C0.466,-0.146 0.447,-0.093 0.408,-0.051C0.37,-0.009 0.321,0.012 0.263,0.012C0.194,0.012 0.139,-0.011 0.1,-0.057C0.061,-0.103 0.041,-0.166 0.041,-0.247C0.041,-0.371 0.076,-0.47 0.147,-0.545C0.218,-0.619 0.317,-0.662 0.444,-0.673ZM0.141,-0.335C0.138,-0.314 0.135,-0.296 0.133,-0.28C0.132,-0.263 0.131,-0.248 0.131,-0.234C0.131,-0.164 0.142,-0.109 0.166,-0.07C0.189,-0.031 0.221,-0.011 0.263,-0.011C0.298,-0.011 0.325,-0.026 0.344,-0.055C0.363,-0.084 0.373,-0.124 0.373,-0.176C0.373,-0.241 0.361,-0.292 0.337,-0.329C0.314,-0.365 0.281,-0.384 0.239,-0.384C0.22,-0.384 0.202,-0.38 0.186,-0.372C0.17,-0.364 0.155,-0.352 0.141,-0.335Z" style="fill-rule:nonzero;"/>
                    </g>
                    <g transform="matrix(24.129,0,0,24.129,68.886,592.934)">
                        <path d="M0.059,0.012L0.059,-0.008C0.14,-0.019 0.206,-0.047 0.255,-0.093C0.304,-0.139 0.337,-0.202 0.354,-0.282C0.333,-0.268 0.312,-0.257 0.29,-0.249C0.268,-0.242 0.246,-0.238 0.223,-0.238C0.168,-0.238 0.124,-0.257 0.089,-0.296C0.054,-0.335 0.037,-0.385 0.037,-0.447C0.037,-0.513 0.056,-0.567 0.094,-0.609C0.133,-0.652 0.181,-0.673 0.24,-0.673C0.309,-0.673 0.364,-0.65 0.403,-0.603C0.443,-0.557 0.463,-0.493 0.463,-0.412C0.463,-0.289 0.427,-0.19 0.357,-0.115C0.286,-0.041 0.187,0.001 0.059,0.012ZM0.362,-0.325C0.365,-0.345 0.368,-0.363 0.37,-0.379C0.371,-0.395 0.372,-0.411 0.372,-0.426C0.372,-0.497 0.361,-0.552 0.338,-0.591C0.315,-0.63 0.283,-0.65 0.241,-0.65C0.206,-0.65 0.179,-0.635 0.16,-0.606C0.141,-0.577 0.131,-0.536 0.131,-0.484C0.131,-0.418 0.143,-0.367 0.166,-0.331C0.189,-0.294 0.222,-0.276 0.264,-0.276C0.283,-0.276 0.301,-0.28 0.317,-0.288C0.333,-0.296 0.348,-0.309 0.362,-0.325Z" style="fill-rule:nonzero;"/>
                    </g>
                    <g transform="matrix(24.129,0,0,24.129,50.7893,617.063)">
                        <path d="M0.217,-0.122L0.217,-0.551C0.217,-0.561 0.215,-0.569 0.212,-0.574C0.209,-0.579 0.203,-0.581 0.196,-0.581C0.192,-0.581 0.186,-0.58 0.178,-0.577C0.171,-0.575 0.163,-0.571 0.153,-0.567L0.089,-0.536L0.078,-0.555C0.108,-0.57 0.141,-0.587 0.177,-0.606C0.212,-0.626 0.255,-0.65 0.304,-0.678L0.304,-0.122C0.304,-0.074 0.31,-0.045 0.321,-0.035C0.333,-0.025 0.362,-0.02 0.409,-0.02L0.425,-0.02L0.425,-0L0.09,-0L0.09,-0.02C0.149,-0.02 0.185,-0.026 0.198,-0.037C0.21,-0.049 0.217,-0.077 0.217,-0.122Z" style="fill-rule:nonzero;"/>
                    </g>
                    <g transform="matrix(24.129,0,0,24.129,62.8538,617.063)">
                        <path d="M0.444,-0.673L0.444,-0.652C0.363,-0.641 0.299,-0.612 0.249,-0.567C0.2,-0.521 0.167,-0.458 0.15,-0.378C0.17,-0.393 0.192,-0.404 0.214,-0.411C0.236,-0.418 0.258,-0.422 0.28,-0.422C0.335,-0.422 0.38,-0.402 0.414,-0.363C0.449,-0.324 0.466,-0.273 0.466,-0.209C0.466,-0.146 0.447,-0.093 0.408,-0.051C0.37,-0.009 0.321,0.012 0.263,0.012C0.194,0.012 0.139,-0.011 0.1,-0.057C0.061,-0.103 0.041,-0.166 0.041,-0.247C0.041,-0.371 0.076,-0.47 0.147,-0.545C0.218,-0.619 0.317,-0.662 0.444,-0.673ZM0.141,-0.335C0.138,-0.314 0.135,-0.296 0.133,-0.28C0.132,-0.263 0.131,-0.248 0.131,-0.234C0.131,-0.164 0.142,-0.109 0.166,-0.07C0.189,-0.031 0.221,-0.011 0.263,-0.011C0.298,-0.011 0.325,-0.026 0.344,-0.055C0.363,-0.084 0.373,-0.124 0.373,-0.176C0.373,-0.241 0.361,-0.292 0.337,-0.329C0.314,-0.365 0.281,-0.384 0.239,-0.384C0.22,-0.384 0.202,-0.38 0.186,-0.372C0.17,-0.364 0.155,-0.352 0.141,-0.335Z" style="fill-rule:nonzero;"/>
                    </g>
                </g>
                <g transform="matrix(0.550565,0,0,0.550565,123.288,91.9595)">
                    <g transform="matrix(19.9795,0,0,19.9795,44.4036,612.913)">
                        <path d="M0.04,-0.518C0.063,-0.569 0.092,-0.607 0.128,-0.634C0.164,-0.66 0.205,-0.673 0.253,-0.673C0.296,-0.673 0.332,-0.661 0.361,-0.637C0.39,-0.613 0.405,-0.583 0.405,-0.549C0.405,-0.523 0.398,-0.498 0.384,-0.475C0.369,-0.452 0.345,-0.426 0.309,-0.397C0.353,-0.384 0.387,-0.363 0.409,-0.334C0.432,-0.305 0.443,-0.269 0.443,-0.225C0.443,-0.158 0.416,-0.101 0.363,-0.056C0.309,-0.01 0.242,0.012 0.161,0.012C0.122,0.012 0.09,0.006 0.065,-0.006C0.041,-0.018 0.029,-0.034 0.029,-0.053C0.029,-0.064 0.033,-0.073 0.041,-0.08C0.048,-0.087 0.058,-0.091 0.07,-0.091C0.091,-0.091 0.117,-0.08 0.149,-0.057C0.181,-0.034 0.207,-0.023 0.227,-0.023C0.264,-0.023 0.296,-0.038 0.324,-0.068C0.352,-0.099 0.366,-0.134 0.366,-0.175C0.366,-0.225 0.349,-0.264 0.315,-0.29C0.28,-0.317 0.23,-0.33 0.165,-0.33L0.154,-0.33L0.154,-0.35C0.204,-0.354 0.244,-0.371 0.276,-0.4C0.307,-0.429 0.323,-0.464 0.323,-0.504C0.323,-0.534 0.313,-0.558 0.292,-0.576C0.271,-0.595 0.244,-0.604 0.211,-0.604C0.18,-0.604 0.151,-0.596 0.125,-0.579C0.099,-0.563 0.076,-0.538 0.057,-0.506L0.04,-0.518Z" style="fill-rule:nonzero;"/>
                    </g>
                    <g transform="matrix(19.9795,0,0,19.9795,54.3934,612.913)">
                        <path d="M0.217,-0.122L0.217,-0.551C0.217,-0.561 0.215,-0.569 0.212,-0.574C0.209,-0.579 0.203,-0.581 0.196,-0.581C0.192,-0.581 0.186,-0.58 0.178,-0.577C0.171,-0.575 0.163,-0.571 0.153,-0.567L0.089,-0.536L0.078,-0.555C0.108,-0.57 0.141,-0.587 0.177,-0.606C0.212,-0.626 0.255,-0.65 0.304,-0.678L0.304,-0.122C0.304,-0.074 0.31,-0.045 0.321,-0.035C0.333,-0.025 0.362,-0.02 0.409,-0.02L0.425,-0.02L0.425,-0L0.09,-0L0.09,-0.02C0.149,-0.02 0.185,-0.026 0.198,-0.037C0.21,-0.049 0.217,-0.077 0.217,-0.122Z" style="fill-rule:nonzero;"/>
                    </g>
                </g>
                <g transform="matrix(11,0,0,11,456.607,428.54)">
                    <g>
                        <path d="M0.28,-0.382C0.31,-0.401 0.333,-0.424 0.349,-0.449C0.365,-0.475 0.373,-0.502 0.373,-0.531C0.373,-0.568 0.362,-0.596 0.341,-0.617C0.319,-0.638 0.289,-0.649 0.252,-0.649C0.217,-0.649 0.189,-0.639 0.166,-0.619C0.143,-0.598 0.132,-0.573 0.132,-0.542C0.132,-0.515 0.142,-0.49 0.162,-0.468C0.182,-0.445 0.222,-0.416 0.28,-0.382ZM0.299,-0.37C0.362,-0.329 0.405,-0.295 0.427,-0.265C0.45,-0.236 0.461,-0.204 0.461,-0.169C0.461,-0.117 0.44,-0.073 0.399,-0.039C0.358,-0.004 0.306,0.013 0.242,0.013C0.183,0.013 0.134,-0.002 0.096,-0.034C0.059,-0.065 0.04,-0.105 0.04,-0.155C0.04,-0.193 0.052,-0.227 0.076,-0.256C0.1,-0.285 0.137,-0.311 0.186,-0.334C0.141,-0.362 0.11,-0.389 0.091,-0.415C0.072,-0.441 0.062,-0.47 0.062,-0.503C0.062,-0.553 0.08,-0.594 0.116,-0.625C0.152,-0.657 0.199,-0.673 0.256,-0.673C0.312,-0.673 0.356,-0.661 0.389,-0.636C0.422,-0.611 0.439,-0.578 0.439,-0.536C0.439,-0.501 0.428,-0.471 0.407,-0.445C0.386,-0.42 0.35,-0.395 0.299,-0.37ZM0.21,-0.322C0.179,-0.306 0.155,-0.283 0.137,-0.254C0.12,-0.224 0.111,-0.191 0.111,-0.155C0.111,-0.114 0.124,-0.08 0.152,-0.053C0.179,-0.027 0.214,-0.013 0.256,-0.013C0.295,-0.013 0.326,-0.024 0.349,-0.047C0.372,-0.069 0.384,-0.099 0.384,-0.137C0.384,-0.166 0.373,-0.192 0.351,-0.217C0.328,-0.242 0.282,-0.277 0.21,-0.322Z" style="fill-rule:nonzero;"/>
                    </g>
                </g>
            </g>
        </g>
        <g transform="matrix(0.134968,0,0,0.134968,39.6725,178.652)">
            <g transform="matrix(1,0,0,1,23.0622,-16.0583)">
                <circle cx="923.197" cy="1414.7" r="123.37" style="fill:url(#_Radial1);stroke:black;stroke-width:9.88px;"/>
            </g>
            <g transform="matrix(6.79362,0,0,6.79362,862.118,1317.29)">
                <g id="microchip-ai.svg">
                    <g>
                        <path d="M23.5,9C23.776,9 24,8.776 24,8.5C24,8.224 23.776,8 23.5,8L22,8L22,6.5C22,6.331 21.99,6.164 21.972,6L23.5,6C23.776,6 24,5.776 24,5.5C24,5.224 23.776,5 23.5,5L21.743,5C21.29,3.723 20.277,2.71 19,2.257L19,0.5C19,0.224 18.776,0 18.5,0C18.224,0 18,0.224 18,0.5L18,2.028C17.836,2.01 17.669,2 17.5,2L16,2L16,0.5C16,0.224 15.776,0 15.5,0C15.224,0 15,0.224 15,0.5L15,2L12.5,2L12.5,0.5C12.5,0.224 12.276,0 12,0C11.724,0 11.5,0.224 11.5,0.5L11.5,2L9,2L9,0.5C9,0.224 8.776,0 8.5,0C8.224,0 8,0.224 8,0.5L8,2L6.5,2C6.331,2 6.164,2.01 6,2.028L6,0.5C6,0.224 5.776,0 5.5,0C5.224,0 5,0.224 5,0.5L5,2.257C3.723,2.71 2.71,3.723 2.257,5L0.5,5C0.224,5 0,5.224 0,5.5C0,5.776 0.224,6 0.5,6L2.028,6C2.01,6.164 2,6.331 2,6.5L2,8L0.5,8C0.224,8 0,8.224 0,8.5C0,8.776 0.224,9 0.5,9L2,9L2,11.5L0.5,11.5C0.224,11.5 0,11.724 0,12C0,12.276 0.224,12.5 0.5,12.5L2,12.5L2,15L0.5,15C0.224,15 0,15.224 0,15.5C0,15.776 0.224,16 0.5,16L2,16L2,17.5C2,17.669 2.01,17.836 2.028,18L0.5,18C0.224,18 0,18.224 0,18.5C0,18.776 0.224,19 0.5,19L2.257,19C2.71,20.277 3.723,21.29 5,21.743L5,23.5C5,23.776 5.224,24 5.5,24C5.776,24 6,23.776 6,23.5L6,21.972C6.164,21.99 6.331,22 6.5,22L8,22L8,23.5C8,23.776 8.224,24 8.5,24C8.776,24 9,23.776 9,23.5L9,22L11.5,22L11.5,23.5C11.5,23.776 11.724,24 12,24C12.276,24 12.5,23.776 12.5,23.5L12.5,22L15,22L15,23.5C15,23.776 15.224,24 15.5,24C15.776,24 16,23.776 16,23.5L16,22L17.5,22C17.669,22 17.836,21.99 18,21.972L18,23.5C18,23.776 18.224,24 18.5,24C18.776,24 19,23.776 19,23.5L19,21.743C20.277,21.29 21.29,20.277 21.743,19L23.5,19C23.776,19 24,18.776 24,18.5C24,18.224 23.776,18 23.5,18L21.972,18C21.99,17.836 22,17.669 22,17.5L22,16L23.5,16C23.776,16 24,15.776 24,15.5C24,15.224 23.776,15 23.5,15L22,15L22,12.5L23.5,12.5C23.776,12.5 24,12.276 24,12C24,11.724 23.776,11.5 23.5,11.5L22,11.5L22,9L23.5,9ZM17.5,21L6.5,21C4.57,21 3,19.43 3,17.5L3,6.5C3,4.57 4.57,3 6.5,3L17.5,3C19.43,3 21,4.57 21,6.5L21,17.5C21,19.43 19.43,21 17.5,21ZM17,7.5L17,16.5C17,16.776 16.776,17 16.5,17C16.224,17 16,16.776 16,16.5L16,7.5C16,7.224 16.224,7 16.5,7C16.776,7 17,7.224 17,7.5ZM11.838,8.372C11.623,7.56 10.816,6.996 9.981,7.001C9.199,7.03 8.484,7.606 8.283,8.364L6.018,16.364C5.943,16.63 6.097,16.906 6.363,16.981C6.408,16.994 6.454,17 6.5,17C6.718,17 6.918,16.856 6.98,16.636L7.724,14.008L12.313,14.008L13.016,16.63C13.088,16.896 13.362,17.051 13.628,16.984C13.895,16.912 14.053,16.638 13.982,16.371L11.837,8.373L11.838,8.372ZM8.008,13.008L9.248,8.628C9.339,8.283 9.671,8.014 10.018,8.001C10.396,7.968 10.774,8.263 10.872,8.63L12.046,13.008L8.008,13.008Z" style="fill-rule:nonzero;"/>
                    </g>
                </g>
            </g>
        </g>
        <g transform="matrix(0.143528,0,0,0.135454,87.7601,-201.265)">
            <g transform="matrix(1,0,0,1,153.66,683.469)">
                <circle cx="923.197" cy="1414.7" r="123.37" style="fill:url(#_Radial2);stroke:black;stroke-width:9.55px;"/>
            </g>
            <g transform="matrix(6.87994,0,0,6.87994,999.381,2007.01)">
                <g id="woman-scientist.svg">
                    <g>
                        <g>
                            <clipPath id="_clip3">
                                <rect x="0" y="0" width="24" height="24"/>
                            </clipPath>
                            <g clip-path="url(#_clip3)">
                                <path d="M23.636,21.442L20,17.087L20,13L21,13L21,12L16,12L16,13L17,13L17,17.087L13.364,21.442C12.971,21.912 12.888,22.584 13.154,23.152C13.399,23.674 13.891,24 14.438,24L22.561,24C23.108,24 23.6,23.675 23.845,23.152C24.111,22.584 24.028,21.912 23.635,21.442L23.636,21.442ZM22.94,22.728C22.902,22.81 22.789,22.999 22.562,22.999L14.439,22.999C14.212,22.999 14.099,22.81 14.061,22.728C13.984,22.563 13.956,22.294 14.132,22.082L18,17.449L18,12.999L19,12.999L19,17.449L22.868,22.082C23.045,22.294 23.016,22.562 22.939,22.728L22.94,22.728ZM8.959,20.259L4.389,15.011C2.512,15.072 1.001,16.608 1.001,18.5L1.001,24L0,24L0,18.5C0,16.019 2.019,14 4.5,14L4.833,14L8.962,18.74L13.126,14L13.353,14C13.938,14 14.489,14.117 15,14.311L15,15.389C14.568,15.168 14.089,15.026 13.576,15.004L8.958,20.26L8.959,20.259ZM3.157,7.344C3.769,10.007 6.154,12 9,12C10.751,12 12.328,11.246 13.426,10.047C13.321,9.603 13.224,9.191 13.134,8.809C12.233,10.13 10.716,11 9,11C6.585,11 4.565,9.278 4.101,6.998L5.015,6.998C8.182,6.903 10.895,4.783 11.823,1.791C12.949,2.465 13.832,3.525 14.248,4.848C14.274,4.935 14.744,6.917 15.47,9.999L16.504,9.999C15.831,7.141 15.259,4.731 15.202,4.549C14.347,1.827 11.854,-0.001 9,-0.001C6.146,-0.001 3.652,1.829 2.798,4.55C2.716,4.811 1.572,9.672 0.59,13.856C0.972,13.523 1.388,13.228 1.829,12.978C2.367,10.693 2.823,8.756 3.157,7.343L3.157,7.344ZM9,1C9.672,1 10.315,1.131 10.917,1.353C10.16,4.017 7.775,5.915 4.999,5.997L3.476,5.999C3.643,5.297 3.741,4.887 3.752,4.849C4.475,2.546 6.584,0.999 9,0.999L9,1Z" style="fill-rule:nonzero;"/>
                            </g>
                        </g>
                    </g>
                </g>
            </g>
        </g>
    </g>
    <defs>
        <radialGradient id="_Radial1" cx="0" cy="0" r="1" gradientUnits="userSpaceOnUse" gradientTransform="matrix(246.74,0,0,246.74,799.827,1414.7)"><stop offset="0" style="stop-color:rgb(129,251,191);stop-opacity:1"/><stop offset="1" style="stop-color:rgb(74,207,225);stop-opacity:1"/></radialGradient>
        <radialGradient id="_Radial2" cx="0" cy="0" r="1" gradientUnits="userSpaceOnUse" gradientTransform="matrix(246.74,0,0,246.74,799.827,1414.7)"><stop offset="0" style="stop-color:rgb(129,251,191);stop-opacity:1"/><stop offset="1" style="stop-color:rgb(74,207,225);stop-opacity:1"/></radialGradient>
    </defs>
</svg>
