<?xml version="1.0" encoding="UTF-8"?>
<!DOCTYPE svg PUBLIC "-//W3C//DTD SVG 1.1//EN" "http://www.w3.org/Graphics/SVG/1.1/DTD/svg11.dtd">
<svg xmlns="http://www.w3.org/2000/svg" version="1.1" width="1024px" height="1024px" style="shape-rendering:geometricPrecision; text-rendering:geometricPrecision; image-rendering:optimizeQuality; fill-rule:evenodd; clip-rule:evenodd" xmlns:xlink="http://www.w3.org/1999/xlink">
<g><path style="opacity:1" fill="#e7f4f6" d="M -0.5,-0.5 C 340.833,-0.5 682.167,-0.5 1023.5,-0.5C 1023.5,340.833 1023.5,682.167 1023.5,1023.5C 682.167,1023.5 340.833,1023.5 -0.5,1023.5C -0.5,682.167 -0.5,340.833 -0.5,-0.5 Z"/></g>
<g><path style="opacity:1" fill="#021c37" d="M 755.5,189.5 C 761.807,188.875 766.64,191.209 770,196.5C 770.5,203.826 770.666,211.159 770.5,218.5C 779.915,218.083 789.248,218.583 798.5,220C 802.345,222.195 804.012,225.528 803.5,230C 804.204,234.592 802.537,237.925 798.5,240C 789.173,240.5 779.839,240.666 770.5,240.5C 770.666,247.508 770.5,254.508 770,261.5C 765.283,268.796 759.116,270.296 751.5,266C 749.622,264.457 748.122,262.624 747,260.5C 746.5,253.842 746.334,247.175 746.5,240.5C 737.161,240.666 727.827,240.5 718.5,240C 712.961,234.529 712.128,228.362 716,221.5C 717.419,220.54 718.919,219.707 720.5,219C 729.16,218.5 737.827,218.334 746.5,218.5C 746.334,211.492 746.5,204.492 747,197.5C 749.098,193.897 751.932,191.23 755.5,189.5 Z"/></g>
<g><path style="opacity:1" fill="#021c37" d="M 686.5,780.5 C 603.843,781.472 521.177,781.805 438.5,781.5C 408.061,780.029 381.727,769.029 359.5,748.5C 359.5,746.833 359.5,745.167 359.5,743.5C 358.5,743.5 357.5,743.5 356.5,743.5C 356.746,740.53 358.412,739.197 361.5,739.5C 361.672,737.508 361.005,735.842 359.5,734.5C 364.521,734.344 369.521,734.344 374.5,734.5C 370.701,733.198 368.535,730.531 368,726.5C 367.075,725.953 366.242,725.287 365.5,724.5C 366.394,724.483 367.394,724.149 368.5,723.5C 378.009,734.26 389.342,742.594 402.5,748.5C 408.046,751.855 414.046,754.355 420.5,756C 429.352,758.336 438.352,759.503 447.5,759.5C 475.328,760.498 503.328,760.831 531.5,760.5C 531.423,761.75 530.756,762.583 529.5,763C 531.107,764.049 531.773,765.549 531.5,767.5C 530.167,767.5 528.833,767.5 527.5,767.5C 527.5,768.833 527.5,770.167 527.5,771.5C 528.833,771.5 530.167,771.5 531.5,771.5C 531.5,772.833 531.5,774.167 531.5,775.5C 530.022,775.238 528.689,775.571 527.5,776.5C 533.807,777.331 540.141,777.831 546.5,778C 540.116,778.242 533.782,778.908 527.5,780C 545.333,780.167 563.167,780.333 581,780.5C 612.557,780.077 644.057,779.91 675.5,780C 664.818,779.832 654.151,779.332 643.5,778.5C 642.092,777.757 640.759,776.923 639.5,776C 650.161,775.5 660.828,775.333 671.5,775.5C 671.5,772.833 671.5,770.167 671.5,767.5C 664.167,767.5 656.833,767.5 649.5,767.5C 649.5,765.167 649.5,762.833 649.5,760.5C 660.172,760.667 670.839,760.5 681.5,760C 682.056,759.617 682.389,759.117 682.5,758.5C 705.389,754.269 725.722,744.769 743.5,730C 748.797,725.545 753.13,720.379 756.5,714.5C 765.714,702.729 771.714,689.396 774.5,674.5C 775.387,668.855 775.554,663.188 775,657.5C 770.084,661.043 764.917,664.21 759.5,667C 745.777,691.564 725.444,707.73 698.5,715.5C 687.552,717.497 676.552,717.83 665.5,716.5C 662.58,717.293 659.914,718.626 657.5,720.5C 651.928,719.399 646.262,718.732 640.5,718.5C 639.181,717.103 637.514,716.437 635.5,716.5C 600.16,725.086 568.494,718.086 540.5,695.5C 518.068,675.286 507.068,649.953 507.5,619.5C 410.668,618.501 313.668,618.167 216.5,618.5C 216.5,613.833 216.5,609.167 216.5,604.5C 315.172,605.164 413.506,604.498 511.5,602.5C 516.427,598.017 521.427,593.517 526.5,589C 521.177,588.501 515.844,588.334 510.5,588.5C 401.833,588.5 293.167,588.5 184.5,588.5C 176.79,561.657 171.623,534.324 169,506.5C 166.025,421.982 194.525,350.149 254.5,291C 280.42,266.199 310.753,248.866 345.5,239C 357.684,236.306 370.017,234.973 382.5,235C 394.559,226.535 407.892,221.201 422.5,219C 452.985,217.909 483.485,217.409 514,217.5C 542.52,217.383 571.02,217.883 599.5,219C 636.042,222.855 666.876,238.022 692,264.5C 695.867,269.068 699.367,273.901 702.5,279C 756.717,280.014 794.883,305.18 817,354.5C 818.333,359.167 819.667,363.833 821,368.5C 861.1,393.035 878.434,428.702 873,475.5C 871.152,483.378 868.319,490.878 864.5,498C 884.426,536.683 882.926,574.517 860,611.5C 845.054,632.724 824.887,646.057 799.5,651.5C 799.558,702.57 777.558,740.736 733.5,766C 718.517,773.162 702.851,777.995 686.5,780.5 Z"/></g>
<g><path style="opacity:1" fill="#0c97a8" d="M 481.5,236.5 C 479.53,240.817 477.53,245.15 475.5,249.5C 454.831,249.333 434.164,249.5 413.5,250C 410.071,250.533 406.738,251.367 403.5,252.5C 394.755,251.58 393.421,248.247 399.5,242.5C 404.159,240 409.159,238.166 414.5,237C 436.831,236.5 459.164,236.333 481.5,236.5 Z"/></g>
<g><path style="opacity:1" fill="#f9fbfc" d="M 844.5,427.5 C 844.753,429.827 844.086,431.827 842.5,433.5C 838.84,430.918 835.173,430.918 831.5,433.5C 830.097,431.43 828.43,429.763 826.5,428.5C 815.697,412.091 800.363,403.425 780.5,402.5C 785.006,372.681 774.673,349.515 749.5,333C 724.979,320.954 700.979,321.787 677.5,335.5C 676.833,330.833 676.167,326.167 675.5,321.5C 673.874,311.579 670.041,302.579 664,294.5C 632.305,261.566 595.805,255.066 554.5,275C 551.42,277.29 548.253,279.457 545,281.5C 545.095,274.55 545.595,267.55 546.5,260.5C 575.623,242.939 605.956,240.772 637.5,254C 661.548,264.048 679.048,280.882 690,304.5C 690.813,306.436 691.313,308.436 691.5,310.5C 725.32,300.235 754.153,308.235 778,334.5C 790.941,349.796 798.775,367.462 801.5,387.5C 821.031,395.369 835.365,408.702 844.5,427.5 Z"/></g>
<g><path style="opacity:1" fill="#01203a" d="M 475.5,249.5 C 473.559,253.718 471.892,258.051 470.5,262.5C 443.328,262.831 416.328,262.498 389.5,261.5C 393.86,257.989 398.527,254.989 403.5,252.5C 406.738,251.367 410.071,250.533 413.5,250C 434.164,249.5 454.831,249.333 475.5,249.5 Z"/></g>
<g><path style="opacity:1" fill="#fefefe" d="M 815.5,256.5 C 820.247,255.871 823.747,257.538 826,261.5C 826.499,267.491 826.666,273.491 826.5,279.5C 833.841,279.334 841.174,279.5 848.5,280C 850.91,280.758 851.91,282.425 851.5,285C 851.477,288.073 850.477,290.74 848.5,293C 841.174,293.5 833.841,293.666 826.5,293.5C 826.666,300.508 826.5,307.508 826,314.5C 823.013,317.961 819.513,318.461 815.5,316C 814.299,315.097 813.465,313.931 813,312.5C 812.5,306.175 812.334,299.842 812.5,293.5C 805.825,293.666 799.158,293.5 792.5,293C 788.251,289.623 787.418,285.457 790,280.5C 790.75,279.874 791.584,279.374 792.5,279C 799.492,278.5 806.492,278.334 813.5,278.5C 812.99,270.945 813.656,263.611 815.5,256.5 Z"/></g>
<g><path style="opacity:1" fill="#00465b" d="M 389.5,261.5 C 416.328,262.498 443.328,262.831 470.5,262.5C 470.5,263.167 470.167,263.5 469.5,263.5C 441.831,263.667 414.165,263.5 386.5,263C 387.527,262.487 388.527,261.987 389.5,261.5 Z"/></g>
<g><path style="opacity:1" fill="#068b9e" d="M 399.5,242.5 C 393.421,248.247 394.755,251.58 403.5,252.5C 398.527,254.989 393.86,257.989 389.5,261.5C 388.527,261.987 387.527,262.487 386.5,263C 414.165,263.5 441.831,263.667 469.5,263.5C 468.358,267.071 467.691,270.738 467.5,274.5C 466.662,274.842 466.328,275.508 466.5,276.5C 444.467,276.801 422.467,276.468 400.5,275.5C 396.173,274.449 391.84,273.282 387.5,272C 380.842,271.5 374.175,271.334 367.5,271.5C 352.724,272.36 338.724,276.027 325.5,282.5C 326.224,278.081 328.557,276.748 332.5,278.5C 332.5,277.5 332.5,276.5 332.5,275.5C 333.552,275.649 334.552,275.483 335.5,275C 334.167,274 332.833,273 331.5,272C 333.421,271.64 335.088,270.806 336.5,269.5C 336,269.167 335.5,268.833 335,268.5C 330.203,271.489 325.036,273.489 319.5,274.5C 338.01,264.036 358.01,258.536 379.5,258C 384.523,250.662 391.19,245.495 399.5,242.5 Z"/></g>
<g><path style="opacity:1" fill="#21d0ce" d="M 481.5,236.5 C 486.932,236.683 491.932,238.183 496.5,241C 487.6,255.2 482.6,270.7 481.5,287.5C 480.833,293.679 480.167,300.012 479.5,306.5C 468.829,298.468 464.829,287.801 467.5,274.5C 467.691,270.738 468.358,267.071 469.5,263.5C 470.167,263.5 470.5,263.167 470.5,262.5C 471.892,258.051 473.559,253.718 475.5,249.5C 477.53,245.15 479.53,240.817 481.5,236.5 Z"/></g>
<g><path style="opacity:1" fill="#002847" d="M 367.5,271.5 C 374.175,271.334 380.842,271.5 387.5,272C 391.84,273.282 396.173,274.449 400.5,275.5C 401.058,276.79 402.058,277.623 403.5,278C 403.167,278.333 402.833,278.667 402.5,279C 392.653,279.287 382.82,279.787 373,280.5C 369.378,279.591 365.711,278.591 362,277.5C 359.201,279.166 356.701,278.833 354.5,276.5C 352.831,277.89 351.164,278.223 349.5,277.5C 349.919,276.328 350.585,275.328 351.5,274.5C 353.993,274.6 356.493,274.933 359,275.5C 361.682,273.671 364.516,272.337 367.5,271.5 Z"/></g>
<g><path style="opacity:1" fill="#00324c" d="M 367.5,271.5 C 364.516,272.337 361.682,273.671 359,275.5C 356.493,274.933 353.993,274.6 351.5,274.5C 350.585,275.328 349.919,276.328 349.5,277.5C 351.164,278.223 352.831,277.89 354.5,276.5C 356.701,278.833 359.201,279.166 362,277.5C 365.711,278.591 369.378,279.591 373,280.5C 382.82,279.787 392.653,279.287 402.5,279C 402.833,278.667 403.167,278.333 403.5,278C 402.058,277.623 401.058,276.79 400.5,275.5C 422.467,276.468 444.467,276.801 466.5,276.5C 466.5,276.833 466.5,277.167 466.5,277.5C 451.163,277.333 435.83,277.5 420.5,278C 415.614,278.667 415.614,279.833 420.5,281.5C 395.286,278.66 370.62,280.66 346.5,287.5C 340.799,288.675 335.132,290.009 329.5,291.5C 326.769,291.941 324.269,292.274 322,292.5C 319.328,291.839 317.828,290.172 317.5,287.5C 320.203,285.819 322.869,284.153 325.5,282.5C 338.724,276.027 352.724,272.36 367.5,271.5 Z"/></g>
<g><path style="opacity:1" fill="#01203b" d="M 466.5,277.5 C 465.878,282.784 465.211,288.117 464.5,293.5C 450.176,288.056 435.51,284.056 420.5,281.5C 415.614,279.833 415.614,278.667 420.5,278C 435.83,277.5 451.163,277.333 466.5,277.5 Z"/></g>
<g><path style="opacity:1" fill="#0fa8b2" d="M 325.5,282.5 C 322.869,284.153 320.203,285.819 317.5,287.5C 311.099,291.695 305.099,296.361 299.5,301.5C 298.544,300.341 297.544,299.174 296.5,298C 296.645,297.228 296.978,296.561 297.5,296C 295.674,295.708 293.841,295.875 292,296.5C 290.674,296.245 289.674,295.578 289,294.5C 288.517,295.448 288.351,296.448 288.5,297.5C 287.167,297.5 285.833,297.5 284.5,297.5C 294.808,287.876 306.475,280.209 319.5,274.5C 325.036,273.489 330.203,271.489 335,268.5C 335.5,268.833 336,269.167 336.5,269.5C 335.088,270.806 333.421,271.64 331.5,272C 332.833,273 334.167,274 335.5,275C 334.552,275.483 333.552,275.649 332.5,275.5C 332.5,276.5 332.5,277.5 332.5,278.5C 328.557,276.748 326.224,278.081 325.5,282.5 Z"/></g>
<g><path style="opacity:1" fill="#17b0b7" d="M 467.5,274.5 C 464.829,287.801 468.829,298.468 479.5,306.5C 480.167,300.012 480.833,293.679 481.5,287.5C 481.707,296.236 481.707,304.903 481.5,313.5C 442.619,295.284 401.952,289.617 359.5,296.5C 358.081,295.549 356.415,295.216 354.5,295.5C 354.227,293.549 354.893,292.049 356.5,291C 358.797,290.982 361.131,291.149 363.5,291.5C 363.66,289.801 363.494,288.134 363,286.5C 357.714,286.737 352.214,287.07 346.5,287.5C 370.62,280.66 395.286,278.66 420.5,281.5C 435.51,284.056 450.176,288.056 464.5,293.5C 465.211,288.117 465.878,282.784 466.5,277.5C 466.5,277.167 466.5,276.833 466.5,276.5C 466.328,275.508 466.662,274.842 467.5,274.5 Z"/></g>
<g><path style="opacity:1" fill="#b4c6cd" d="M 533.5,329.5 C 532.883,329.611 532.383,329.944 532,330.5C 529.521,327.317 526.854,326.984 524,329.5C 525.27,332.674 526.437,336.008 527.5,339.5C 504.45,318.252 499.45,293.252 512.5,264.5C 516.352,266.173 520.352,267.339 524.5,268C 524.957,268.414 525.291,268.914 525.5,269.5C 518.347,287.122 518.847,304.455 527,321.5C 529.001,324.331 531.167,326.997 533.5,329.5 Z"/></g>
<g><path style="opacity:1" fill="#00596d" d="M 317.5,287.5 C 317.828,290.172 319.328,291.839 322,292.5C 324.269,292.274 326.769,291.941 329.5,291.5C 320.01,295.334 310.344,299.001 300.5,302.5C 299.893,302.376 299.56,302.043 299.5,301.5C 305.099,296.361 311.099,291.695 317.5,287.5 Z"/></g>
<g><path style="opacity:1" fill="#20d4cd" d="M 549.5,297.5 C 555.023,297.178 559.523,299.178 563,303.5C 563.667,315.5 563.667,327.5 563,339.5C 554.734,330.567 548.067,320.567 543,309.5C 542.333,307.5 542.333,305.5 543,303.5C 545.063,301.266 547.229,299.266 549.5,297.5 Z"/></g>
<g><path style="opacity:1" fill="#26c6c5" d="M 625.5,313.5 C 618.281,319.38 612.114,318.38 607,310.5C 606.503,308.19 606.337,305.857 606.5,303.5C 610.595,297.047 615.928,295.88 622.5,300C 626.336,303.843 627.336,308.343 625.5,313.5 Z"/></g>
<g><path style="opacity:1" fill="#2acfce" d="M 586.5,269.5 C 588.833,269.5 591.167,269.5 593.5,269.5C 593.833,305.506 593.5,341.506 592.5,377.5C 587.678,371.205 582.845,364.872 578,358.5C 577.5,329.835 577.333,301.169 577.5,272.5C 580.785,272.072 583.785,271.072 586.5,269.5 Z"/></g>
<g><path style="opacity:1" fill="#011f3b" d="M 323.5,308.5 C 327.613,309.149 331.613,310.149 335.5,311.5C 335.187,314.247 335.52,316.914 336.5,319.5C 337.328,318.585 338.328,317.919 339.5,317.5C 342.611,319.652 345.944,319.985 349.5,318.5C 351.5,319 353.5,319.5 355.5,320C 352.268,321.449 348.935,322.616 345.5,323.5C 343.128,322.332 340.795,322.498 338.5,324C 339.252,324.671 339.586,325.504 339.5,326.5C 282.021,350.66 246.688,393.327 233.5,454.5C 232.711,454.217 232.044,453.717 231.5,453C 232.98,451.701 233.646,450.034 233.5,448C 232.582,445.239 231.916,442.406 231.5,439.5C 229.061,438.947 226.727,438.947 224.5,439.5C 223.833,437.5 223.167,435.5 222.5,433.5C 218.638,431.133 218.804,428.8 223,426.5C 224.368,427.993 224.535,429.493 223.5,431C 226.146,431.497 228.813,431.664 231.5,431.5C 231.5,426.167 231.5,420.833 231.5,415.5C 229.143,415.337 226.81,415.503 224.5,416C 221.23,419.518 219.063,423.685 218,428.5C 217.292,429.381 216.458,430.047 215.5,430.5C 219.466,416.906 224.8,403.906 231.5,391.5C 238.674,377.821 247.341,365.154 257.5,353.5C 275.636,333.079 297.636,318.079 323.5,308.5 Z"/></g>
<g><path style="opacity:1" fill="#dbefef" d="M 657.5,394.5 C 657.678,395.695 658.011,396.862 658.5,398C 657.122,401.256 655.622,404.422 654,407.5C 653.341,410.888 653.508,414.221 654.5,417.5C 647.327,412.165 641.827,405.498 638,397.5C 637.5,368.169 637.333,338.835 637.5,309.5C 643.5,309.5 649.5,309.5 655.5,309.5C 655.333,336.835 655.5,364.169 656,391.5C 656.513,392.527 657.013,393.527 657.5,394.5 Z"/></g>
<g><path style="opacity:1" fill="#1bbabf" d="M 359.5,296.5 C 351.641,298.714 343.641,300.88 335.5,303C 331.29,304.609 327.29,306.442 323.5,308.5C 297.636,318.079 275.636,333.079 257.5,353.5C 257.351,350.393 257.851,347.393 259,344.5C 260.011,343.663 261.178,343.33 262.5,343.5C 262.5,342.167 262.5,340.833 262.5,339.5C 261.5,339.5 260.5,339.5 259.5,339.5C 259.5,336.833 259.5,334.167 259.5,331.5C 256.447,330.576 253.447,330.576 250.5,331.5C 260.188,318.479 271.521,307.146 284.5,297.5C 285.833,297.5 287.167,297.5 288.5,297.5C 288.351,296.448 288.517,295.448 289,294.5C 289.674,295.578 290.674,296.245 292,296.5C 293.841,295.875 295.674,295.708 297.5,296C 296.978,296.561 296.645,297.228 296.5,298C 297.544,299.174 298.544,300.341 299.5,301.5C 299.56,302.043 299.893,302.376 300.5,302.5C 310.344,299.001 320.01,295.334 329.5,291.5C 335.132,290.009 340.799,288.675 346.5,287.5C 352.214,287.07 357.714,286.737 363,286.5C 363.494,288.134 363.66,289.801 363.5,291.5C 361.131,291.149 358.797,290.982 356.5,291C 354.893,292.049 354.227,293.549 354.5,295.5C 356.415,295.216 358.081,295.549 359.5,296.5 Z"/></g>
<g><path style="opacity:1" fill="#fbfcfd" d="M 528.5,563.5 C 549.947,518.409 552.114,472.409 535,425.5C 524.833,402.175 509.666,382.842 489.5,367.5C 474.498,355.502 457.498,347.502 438.5,343.5C 435.058,342.252 431.392,341.419 427.5,341C 409.19,339.52 390.857,339.187 372.5,340C 368.363,340.839 364.363,341.673 360.5,342.5C 306.177,356.988 271.01,391.321 255,445.5C 250.508,462.072 249.008,478.738 250.5,495.5C 250.409,515.556 254.075,534.889 261.5,553.5C 261.471,555.029 260.804,556.196 259.5,557C 255.44,558.689 251.773,560.856 248.5,563.5C 240.267,547.567 235.101,530.567 233,512.5C 230.855,493.131 231.022,473.798 233.5,454.5C 246.688,393.327 282.021,350.66 339.5,326.5C 394.72,309.402 446.72,316.235 495.5,347C 540.347,380.775 563.68,425.942 565.5,482.5C 565.735,510.78 559.402,537.447 546.5,562.5C 540.537,563.496 534.537,563.829 528.5,563.5 Z"/></g>
<g><path style="opacity:1" fill="#0b828c" d="M 606.5,303.5 C 606.337,305.857 606.503,308.19 607,310.5C 612.114,318.38 618.281,319.38 625.5,313.5C 622.081,320.449 616.747,322.282 609.5,319C 605.492,314.37 604.492,309.204 606.5,303.5 Z"/></g>
<g><path style="opacity:1" fill="#9ca9b3" d="M 675.5,321.5 C 676.167,326.167 676.833,330.833 677.5,335.5C 677.217,336.289 676.717,336.956 676,337.5C 675.501,332.177 675.334,326.844 675.5,321.5 Z"/></g>
<g><path style="opacity:1" fill="#acbfca" d="M 438.5,343.5 C 435.15,343.335 431.817,343.502 428.5,344C 426.584,346.091 424.584,347.924 422.5,349.5C 419.985,350.86 420.318,351.86 423.5,352.5C 423.5,353.5 423.5,354.5 423.5,355.5C 419.524,356.295 415.524,356.962 411.5,357.5C 410.426,356.115 409.093,354.949 407.5,354C 410.993,352.522 411.326,350.522 408.5,348C 406.167,347.333 403.833,347.333 401.5,348C 400.426,348.739 399.759,349.739 399.5,351C 400.267,354.521 401.267,358.021 402.5,361.5C 402.53,362.497 402.03,363.164 401,363.5C 398.27,363.294 396.103,362.294 394.5,360.5C 394.133,354.844 391.133,353.011 385.5,355C 384.619,355.708 383.953,356.542 383.5,357.5C 379.066,360.705 375.899,359.705 374,354.5C 373.667,354.833 373.333,355.167 373,355.5C 372.544,354.256 373.044,353.423 374.5,353C 373.934,352.005 373.267,351.172 372.5,350.5C 372.423,349.25 371.756,348.417 370.5,348C 368.866,347.506 367.199,347.34 365.5,347.5C 363.801,347.66 362.134,347.494 360.5,347C 361.001,345.629 361.001,344.129 360.5,342.5C 364.363,341.673 368.363,340.839 372.5,340C 390.857,339.187 409.19,339.52 427.5,341C 431.392,341.419 435.058,342.252 438.5,343.5 Z"/></g>
<g><path style="opacity:1" fill="#54e0dd" d="M 707.5,342.5 C 714.2,342.17 720.866,342.503 727.5,343.5C 727.833,344.167 728.167,344.833 728.5,345.5C 728.154,346.696 727.654,346.696 727,345.5C 726.55,347.519 725.717,349.352 724.5,351C 725.777,351.127 726.943,350.627 728,349.5C 729.608,349.974 729.774,350.641 728.5,351.5C 725.917,352.938 723.583,352.604 721.5,350.5C 718.784,353.188 715.784,355.188 712.5,356.5C 705.751,358.579 700.417,362.579 696.5,368.5C 694.823,369.412 692.989,370.079 691,370.5C 687.825,370.054 684.658,369.554 681.5,369C 680.663,367.989 680.33,366.822 680.5,365.5C 683.349,356.972 688.682,350.472 696.5,346C 700.009,344.241 703.675,343.074 707.5,342.5 Z"/></g>
<g><path style="opacity:1" fill="#9eb2bc" d="M 360.5,342.5 C 361.001,344.129 361.001,345.629 360.5,347C 362.134,347.494 363.801,347.66 365.5,347.5C 361.605,349.679 361.605,351.846 365.5,354C 368.994,354.92 371.327,353.754 372.5,350.5C 373.267,351.172 373.934,352.005 374.5,353C 373.044,353.423 372.544,354.256 373,355.5C 373.333,355.167 373.667,354.833 374,354.5C 375.899,359.705 379.066,360.705 383.5,357.5C 385.521,364.174 389.187,365.174 394.5,360.5C 396.103,362.294 398.27,363.294 401,363.5C 402.03,363.164 402.53,362.497 402.5,361.5C 407.217,363.582 410.217,362.249 411.5,357.5C 415.524,356.962 419.524,356.295 423.5,355.5C 423.5,354.5 423.5,353.5 423.5,352.5C 425.199,352.62 426.865,352.954 428.5,353.5C 430.266,353.566 431.266,352.732 431.5,351C 428.916,348.347 425.916,347.847 422.5,349.5C 424.584,347.924 426.584,346.091 428.5,344C 431.817,343.502 435.15,343.335 438.5,343.5C 457.498,347.502 474.498,355.502 489.5,367.5C 480.954,367.368 472.287,367.368 463.5,367.5C 464.097,373.96 463.43,380.126 461.5,386C 464.485,388.632 467.151,391.465 469.5,394.5C 433.553,369.356 394.886,364.522 353.5,380C 312.257,398.604 288.423,430.437 282,475.5C 281.157,489.896 281.657,504.23 283.5,518.5C 282.839,517.282 282.172,515.949 281.5,514.5C 280.684,516.287 279.684,517.954 278.5,519.5C 277.245,509.388 274.912,499.555 271.5,490C 263.952,489.033 256.952,489.867 250.5,492.5C 251.791,493.527 251.791,494.527 250.5,495.5C 249.008,478.738 250.508,462.072 255,445.5C 271.01,391.321 306.177,356.988 360.5,342.5 Z"/></g>
<g><path style="opacity:1" fill="#102132" d="M 384.5,347.5 C 387.893,347.062 390.893,347.895 393.5,350C 390.339,353.976 387.006,354.309 383.5,351C 383.989,349.862 384.322,348.695 384.5,347.5 Z"/></g>
<g><path style="opacity:1" fill="#0b1d29" d="M 365.5,347.5 C 367.199,347.34 368.866,347.506 370.5,348C 371.756,348.417 372.423,349.25 372.5,350.5C 371.327,353.754 368.994,354.92 365.5,354C 361.605,351.846 361.605,349.679 365.5,347.5 Z"/></g>
<g><path style="opacity:1" fill="#38d2cf" d="M 712.5,356.5 C 715.784,355.188 718.784,353.188 721.5,350.5C 723.583,352.604 725.917,352.938 728.5,351.5C 729.774,350.641 729.608,349.974 728,349.5C 726.943,350.627 725.777,351.127 724.5,351C 725.717,349.352 726.55,347.519 727,345.5C 727.654,346.696 728.154,346.696 728.5,345.5C 728.167,344.833 727.833,344.167 727.5,343.5C 720.866,342.503 714.2,342.17 707.5,342.5C 736.457,338.695 755.457,351.028 764.5,379.5C 758.833,380.833 753.167,380.833 747.5,379.5C 741.598,363.05 729.932,355.383 712.5,356.5 Z"/></g>
<g><path style="opacity:1" fill="#081c2b" d="M 423.5,352.5 C 420.318,351.86 419.985,350.86 422.5,349.5C 425.916,347.847 428.916,348.347 431.5,351C 431.266,352.732 430.266,353.566 428.5,353.5C 426.865,352.954 425.199,352.62 423.5,352.5 Z"/></g>
<g><path style="opacity:1" fill="#1ac2c4" d="M 257.5,353.5 C 247.341,365.154 238.674,377.821 231.5,391.5C 225.94,390.397 220.607,389.063 215.5,387.5C 224.167,366.806 235.833,348.14 250.5,331.5C 253.447,330.576 256.447,330.576 259.5,331.5C 259.5,334.167 259.5,336.833 259.5,339.5C 260.5,339.5 261.5,339.5 262.5,339.5C 262.5,340.833 262.5,342.167 262.5,343.5C 261.178,343.33 260.011,343.663 259,344.5C 257.851,347.393 257.351,350.393 257.5,353.5 Z"/></g>
<g><path style="opacity:1" fill="#081726" d="M 411.5,357.5 C 410.217,362.249 407.217,363.582 402.5,361.5C 401.267,358.021 400.267,354.521 399.5,351C 399.759,349.739 400.426,348.739 401.5,348C 403.833,347.333 406.167,347.333 408.5,348C 411.326,350.522 410.993,352.522 407.5,354C 409.093,354.949 410.426,356.115 411.5,357.5 Z"/></g>
<g><path style="opacity:1" fill="#cedee2" d="M 533.5,329.5 C 541.5,337.833 549.5,346.167 557.5,354.5C 553.317,356.087 549.65,358.421 546.5,361.5C 540.196,354.192 533.862,346.859 527.5,339.5C 526.437,336.008 525.27,332.674 524,329.5C 526.854,326.984 529.521,327.317 532,330.5C 532.383,329.944 532.883,329.611 533.5,329.5 Z"/></g>
<g><path style="opacity:1" fill="#0a1c2a" d="M 394.5,360.5 C 389.187,365.174 385.521,364.174 383.5,357.5C 383.953,356.542 384.619,355.708 385.5,355C 391.133,353.011 394.133,354.844 394.5,360.5 Z"/></g>
<g><path style="opacity:1" fill="#fcfdfd" d="M 469.5,394.5 C 513.886,434.543 525.72,482.876 505,539.5C 501.629,547.81 497.796,555.81 493.5,563.5C 486.833,563.5 480.167,563.5 473.5,563.5C 485.579,548.203 493.412,530.869 497,511.5C 498.14,503.349 499.307,495.349 500.5,487.5C 501.706,490.139 503.706,490.972 506.5,490C 509.203,488.18 510.036,485.68 509,482.5C 505.742,479.654 502.908,479.987 500.5,483.5C 496.699,445.393 478.366,416.56 445.5,397C 396.909,375.98 354.742,384.814 319,423.5C 306.773,440.498 299.44,459.498 297,480.5C 296.586,480.043 296.086,479.709 295.5,479.5C 292.891,480.23 290.224,480.73 287.5,481C 288.252,481.671 288.586,482.504 288.5,483.5C 287.013,486.212 287.679,488.379 290.5,490C 292.881,490.738 294.881,490.238 296.5,488.5C 297.245,495.436 298.245,502.436 299.5,509.5C 294.481,512.343 289.814,515.676 285.5,519.5C 284.508,519.672 283.842,519.338 283.5,518.5C 281.657,504.23 281.157,489.896 282,475.5C 288.423,430.437 312.257,398.604 353.5,380C 394.886,364.522 433.553,369.356 469.5,394.5 Z"/></g>
<g><path style="opacity:1" fill="#afc6ce" d="M 715.5,375.5 C 727.666,375.185 732.166,380.852 729,392.5C 726.081,398.025 721.581,399.858 715.5,398C 709.092,394.677 706.925,389.511 709,382.5C 710.694,379.642 712.861,377.309 715.5,375.5 Z"/></g>
<g><path style="opacity:1" fill="#92ece8" d="M 680.5,365.5 C 680.33,366.822 680.663,367.989 681.5,369C 684.658,369.554 687.825,370.054 691,370.5C 692.989,370.079 694.823,369.412 696.5,368.5C 696.068,369.71 695.401,370.71 694.5,371.5C 693.883,371.611 693.383,371.944 693,372.5C 692.667,374.5 692.333,376.5 692,378.5C 688.677,380.417 685.344,382.417 682,384.5C 681.127,384.265 680.293,383.931 679.5,383.5C 678.388,378.171 678.388,372.838 679.5,367.5C 679.328,366.508 679.662,365.842 680.5,365.5 Z"/></g>
<g><path style="opacity:1" fill="#037788" d="M 215.5,387.5 C 220.607,389.063 225.94,390.397 231.5,391.5C 224.8,403.906 219.466,416.906 215.5,430.5C 213.965,436.979 212.298,443.313 210.5,449.5C 210.649,448.448 210.483,447.448 210,446.5C 207.836,449.447 207.002,452.781 207.5,456.5C 206.5,456.5 205.5,456.5 204.5,456.5C 204.082,459.439 202.582,461.772 200,463.5C 199.144,452.893 197.978,452.893 196.5,463.5C 196.167,463 195.833,462.5 195.5,462C 196.275,453.707 197.275,445.541 198.5,437.5C 202.037,419.978 207.703,403.311 215.5,387.5 Z"/></g>
<g><path style="opacity:1" fill="#fcfdfe" d="M 467.5,563.5 C 464.167,563.5 460.833,563.5 457.5,563.5C 487.073,530.132 494.24,492.466 479,450.5C 462.455,417.309 435.621,400.475 398.5,400C 382.016,402.985 371.349,412.485 366.5,428.5C 345.834,438.462 333.334,454.795 329,477.5C 328.5,487.161 328.334,496.828 328.5,506.5C 321.978,506.177 315.645,506.51 309.5,507.5C 308.167,507.5 306.833,507.5 305.5,507.5C 304.25,507.423 303.417,506.756 303,505.5C 297.301,467.587 308.801,436.087 337.5,411C 366.517,389.733 398.184,384.733 432.5,396C 465.303,410.142 485.803,434.642 494,469.5C 497.258,495.366 493.258,520.032 482,543.5C 477.892,550.727 473.058,557.394 467.5,563.5 Z"/></g>
<g><path style="opacity:1" fill="#bec9d0" d="M 500.5,483.5 C 500.5,484.833 500.5,486.167 500.5,487.5C 499.307,495.349 498.14,503.349 497,511.5C 493.412,530.869 485.579,548.203 473.5,563.5C 471.5,563.5 469.5,563.5 467.5,563.5C 473.058,557.394 477.892,550.727 482,543.5C 493.258,520.032 497.258,495.366 494,469.5C 485.803,434.642 465.303,410.142 432.5,396C 398.184,384.733 366.517,389.733 337.5,411C 308.801,436.087 297.301,467.587 303,505.5C 303.417,506.756 304.25,507.423 305.5,507.5C 303.698,508.458 301.698,509.125 299.5,509.5C 298.245,502.436 297.245,495.436 296.5,488.5C 298.523,484.268 297.19,481.935 292.5,481.5C 290.886,481.803 289.552,482.47 288.5,483.5C 288.586,482.504 288.252,481.671 287.5,481C 290.224,480.73 292.891,480.23 295.5,479.5C 296.086,479.709 296.586,480.043 297,480.5C 299.44,459.498 306.773,440.498 319,423.5C 354.742,384.814 396.909,375.98 445.5,397C 478.366,416.56 496.699,445.393 500.5,483.5 Z"/></g>
<g><path style="opacity:1" fill="#e5f2f4" d="M 557.5,354.5 C 584.041,385.6 599.708,421.6 604.5,462.5C 604.666,466.846 604.499,471.179 604,475.5C 599.169,474.808 594.336,474.141 589.5,473.5C 585.767,431.949 571.434,394.616 546.5,361.5C 549.65,358.421 553.317,356.087 557.5,354.5 Z"/></g>
<g><path style="opacity:1" fill="#091e3a" d="M 289.5,393.5 C 300.204,394.024 304.037,399.357 301,409.5C 295.795,415.579 290.295,415.912 284.5,410.5C 280.624,403.004 282.29,397.337 289.5,393.5 Z"/></g>
<g><path style="opacity:1" fill="#cbedf0" d="M 679.5,367.5 C 678.388,372.838 678.388,378.171 679.5,383.5C 680.293,383.931 681.127,384.265 682,384.5C 685.344,382.417 688.677,380.417 692,378.5C 692.333,376.5 692.667,374.5 693,372.5C 693.383,371.944 693.883,371.611 694.5,371.5C 691.955,394.621 702.288,405.288 725.5,403.5C 725.5,408.5 725.5,413.5 725.5,418.5C 718.833,418.5 712.167,418.5 705.5,418.5C 704.722,417.844 704.056,417.011 703.5,416C 704.627,414.943 705.127,413.777 705,412.5C 703.416,411.139 701.582,410.472 699.5,410.5C 699.5,409.5 699.5,408.5 699.5,407.5C 695.556,407.113 691.889,407.78 688.5,409.5C 683.937,402.742 680.437,395.409 678,387.5C 677.333,381.833 677.333,376.167 678,370.5C 678.232,369.263 678.732,368.263 679.5,367.5 Z"/></g>
<g><path style="opacity:1" fill="#8edada" d="M 657.5,394.5 C 664.345,402.695 670.012,411.695 674.5,421.5C 671.766,419.043 669.766,416.043 668.5,412.5C 665.304,412.261 663.471,410.594 663,407.5C 662.167,409.167 661.333,410.833 660.5,412.5C 662.045,415.197 661.379,417.197 658.5,418.5C 659.805,421.433 660.805,424.433 661.5,427.5C 659.179,424.204 656.846,420.871 654.5,417.5C 653.508,414.221 653.341,410.888 654,407.5C 655.622,404.422 657.122,401.256 658.5,398C 658.011,396.862 657.678,395.695 657.5,394.5 Z"/></g>
<g><path style="opacity:1" fill="#98adb7" d="M 489.5,367.5 C 509.666,382.842 524.833,402.175 535,425.5C 552.114,472.409 549.947,518.409 528.5,563.5C 516.833,563.5 505.167,563.5 493.5,563.5C 497.796,555.81 501.629,547.81 505,539.5C 525.72,482.876 513.886,434.543 469.5,394.5C 467.151,391.465 464.485,388.632 461.5,386C 463.43,380.126 464.097,373.96 463.5,367.5C 472.287,367.368 480.954,367.368 489.5,367.5 Z"/></g>
<g><path style="opacity:1" fill="#021c36" d="M 498.5,393.5 C 509.543,393.029 513.71,398.029 511,408.5C 510.167,410.667 508.667,412.167 506.5,413C 495.925,414.721 491.425,410.221 493,399.5C 494.36,396.977 496.193,394.977 498.5,393.5 Z"/></g>
<g><path style="opacity:1" fill="#56c5c7" d="M 674.5,421.5 C 675.29,422.609 675.79,423.942 676,425.5C 676.5,448.164 676.667,470.831 676.5,493.5C 675.912,470.642 675.079,447.642 674,424.5C 673.333,425.167 672.667,425.833 672,426.5C 671.667,424.5 671.333,422.5 671,420.5C 668.262,421.482 665.428,422.148 662.5,422.5C 662.832,457.337 662.498,492.004 661.5,526.5C 661.5,493.5 661.5,460.5 661.5,427.5C 660.805,424.433 659.805,421.433 658.5,418.5C 661.379,417.197 662.045,415.197 660.5,412.5C 661.333,410.833 662.167,409.167 663,407.5C 663.471,410.594 665.304,412.261 668.5,412.5C 669.766,416.043 671.766,419.043 674.5,421.5 Z"/></g>
<g><path style="opacity:1" fill="#294154" d="M 705.5,418.5 C 712.167,418.5 718.833,418.5 725.5,418.5C 719.355,419.49 713.022,419.823 706.5,419.5C 706.5,433.5 706.5,447.5 706.5,461.5C 722.167,461.5 737.833,461.5 753.5,461.5C 737.675,462.496 721.675,462.83 705.5,462.5C 705.5,447.833 705.5,433.167 705.5,418.5 Z"/></g>
<g><path style="opacity:1" fill="#011c35" d="M 411.5,547.5 C 414.251,543.243 417.584,539.41 421.5,536C 426.14,531.682 431.14,527.849 436.5,524.5C 436.833,521.833 437.167,519.167 437.5,516.5C 437.438,513.387 436.771,510.554 435.5,508C 399.835,507.5 364.168,507.333 328.5,507.5C 328.5,507.167 328.5,506.833 328.5,506.5C 328.334,496.828 328.5,487.161 329,477.5C 333.334,454.795 345.834,438.462 366.5,428.5C 392.969,415.903 417.969,418.403 441.5,436C 468.131,462.043 473.298,491.876 457,525.5C 447.118,543.421 431.951,550.755 411.5,547.5 Z"/></g>
<g><path style="opacity:1" fill="#d9e8eb" d="M 633.5,525.5 C 630.004,524.407 626.504,523.073 623,521.5C 623.633,517.933 624.133,514.267 624.5,510.5C 624.667,492.497 624.5,474.497 624,456.5C 618.224,450.057 613.224,443.057 609,435.5C 608.5,405.502 608.333,375.502 608.5,345.5C 613.5,345.5 618.5,345.5 623.5,345.5C 623.333,374.169 623.5,402.835 624,431.5C 630.806,438.46 637.139,445.793 643,453.5C 643.667,473.833 643.667,494.167 643,514.5C 639.968,518.359 636.802,522.026 633.5,525.5 Z"/></g>
<g><path style="opacity:1" fill="#bcccd2" d="M 457.5,563.5 C 438.164,563.667 418.83,563.5 399.5,563C 401.206,558.792 403.539,554.959 406.5,551.5C 374.84,550.5 343.174,550.167 311.5,550.5C 311.5,537.5 311.5,524.5 311.5,511.5C 316.854,527.029 326.521,539.195 340.5,548C 364.209,548.813 387.876,548.646 411.5,547.5C 431.951,550.755 447.118,543.421 457,525.5C 473.298,491.876 468.131,462.043 441.5,436C 417.969,418.403 392.969,415.903 366.5,428.5C 371.349,412.485 382.016,402.985 398.5,400C 435.621,400.475 462.455,417.309 479,450.5C 494.24,492.466 487.073,530.132 457.5,563.5 Z"/></g>
<g><path style="opacity:1" fill="#04707f" d="M 198.5,437.5 C 197.275,445.541 196.275,453.707 195.5,462C 195.833,462.5 196.167,463 196.5,463.5C 197.978,452.893 199.144,452.893 200,463.5C 202.582,461.772 204.082,459.439 204.5,456.5C 205.5,456.5 206.5,456.5 207.5,456.5C 207.002,452.781 207.836,449.447 210,446.5C 210.483,447.448 210.649,448.448 210.5,449.5C 205.85,478.999 206.683,508.332 213,537.5C 215.811,546.097 218.311,554.764 220.5,563.5C 214.833,563.5 209.167,563.5 203.5,563.5C 198.786,546.095 195.286,528.428 193,510.5C 192.333,495.5 192.333,480.5 193,465.5C 194.243,455.919 196.076,446.586 198.5,437.5 Z"/></g>
<g><path style="opacity:1" fill="#e3f0f2" d="M 705.5,418.5 C 705.5,433.167 705.5,447.833 705.5,462.5C 721.675,462.83 737.675,462.496 753.5,461.5C 749.614,437.934 759.447,424.267 783,420.5C 807.013,423.178 817.68,436.512 815,460.5C 807.547,479.645 793.714,486.812 773.5,482C 770.554,481.194 767.888,479.861 765.5,478C 740.502,477.5 715.502,477.333 690.5,477.5C 690.667,456.164 690.5,434.831 690,413.5C 689.209,412.255 688.709,410.922 688.5,409.5C 691.889,407.78 695.556,407.113 699.5,407.5C 699.5,408.5 699.5,409.5 699.5,410.5C 701.582,410.472 703.416,411.139 705,412.5C 705.127,413.777 704.627,414.943 703.5,416C 704.056,417.011 704.722,417.844 705.5,418.5 Z"/></g>
<g><path style="opacity:1" fill="#021934" d="M 779.5,435.5 C 797.662,435.811 803.828,444.477 798,461.5C 791.315,468.854 783.482,470.354 774.5,466C 765.799,459.563 764.299,451.73 770,442.5C 772.79,439.535 775.957,437.202 779.5,435.5 Z"/></g>
<g><path style="opacity:1" fill="#f7fcfc" d="M 781.5,448.5 C 788.486,448.331 790.153,451.164 786.5,457C 779.423,457.42 777.757,454.586 781.5,448.5 Z"/></g>
<g><path style="opacity:1" fill="#c8dbe0" d="M 604.5,462.5 C 605.684,478.008 605.684,493.675 604.5,509.5C 603.18,510.942 601.514,511.608 599.5,511.5C 600.167,513.819 600.334,516.153 600,518.5C 598.644,519.38 597.144,519.714 595.5,519.5C 594.63,515.932 593.13,512.599 591,509.5C 589.484,512.051 588.651,511.718 588.5,508.5C 589.333,496.854 589.666,485.187 589.5,473.5C 594.336,474.141 599.169,474.808 604,475.5C 604.499,471.179 604.666,466.846 604.5,462.5 Z"/></g>
<g><path style="opacity:1" fill="#0f1921" d="M 296.5,488.5 C 294.881,490.238 292.881,490.738 290.5,490C 287.679,488.379 287.013,486.212 288.5,483.5C 289.552,482.47 290.886,481.803 292.5,481.5C 297.19,481.935 298.523,484.268 296.5,488.5 Z"/></g>
<g><path style="opacity:1" fill="#0b1c2c" d="M 500.5,487.5 C 500.5,486.167 500.5,484.833 500.5,483.5C 502.908,479.987 505.742,479.654 509,482.5C 510.036,485.68 509.203,488.18 506.5,490C 503.706,490.972 501.706,490.139 500.5,487.5 Z"/></g>
<g><path style="opacity:1" fill="#2dd5cf" d="M 676.5,493.5 C 676.5,494.167 676.833,494.5 677.5,494.5C 698.327,495.497 719.327,495.831 740.5,495.5C 740.5,500.167 740.5,504.833 740.5,509.5C 719.5,509.5 698.5,509.5 677.5,509.5C 677.95,517.96 677.284,526.294 675.5,534.5C 671.459,541.05 666.459,546.883 660.5,552C 648.494,561.663 636.16,570.83 623.5,579.5C 621.884,574.931 622.218,570.597 624.5,566.5C 637.569,553.768 649.902,540.434 661.5,526.5C 662.498,492.004 662.832,457.337 662.5,422.5C 665.428,422.148 668.262,421.482 671,420.5C 671.333,422.5 671.667,424.5 672,426.5C 672.667,425.833 673.333,425.167 674,424.5C 675.079,447.642 675.912,470.642 676.5,493.5 Z"/></g>
<g><path style="opacity:1" fill="#8b9fa8" d="M 283.5,518.5 C 283.842,519.338 284.508,519.672 285.5,519.5C 278.151,527.862 273.151,537.529 270.5,548.5C 283.817,549.499 297.15,549.833 310.5,549.5C 310.829,535.323 310.496,521.323 309.5,507.5C 315.645,506.51 321.978,506.177 328.5,506.5C 328.5,506.833 328.5,507.167 328.5,507.5C 322.833,507.5 317.167,507.5 311.5,507.5C 311.5,508.833 311.5,510.167 311.5,511.5C 311.5,524.5 311.5,537.5 311.5,550.5C 310.515,554.634 310.182,558.968 310.5,563.5C 289.833,563.5 269.167,563.5 248.5,563.5C 251.773,560.856 255.44,558.689 259.5,557C 260.804,556.196 261.471,555.029 261.5,553.5C 254.075,534.889 250.409,515.556 250.5,495.5C 251.791,494.527 251.791,493.527 250.5,492.5C 256.952,489.867 263.952,489.033 271.5,490C 274.912,499.555 277.245,509.388 278.5,519.5C 279.684,517.954 280.684,516.287 281.5,514.5C 282.172,515.949 282.839,517.282 283.5,518.5 Z"/></g>
<g><path style="opacity:1" fill="#39abb4" d="M 677.5,494.5 C 698.833,494.5 720.167,494.5 741.5,494.5C 741.821,499.695 741.487,504.695 740.5,509.5C 740.5,504.833 740.5,500.167 740.5,495.5C 719.327,495.831 698.327,495.497 677.5,494.5 Z"/></g>
<g><path style="opacity:1" fill="#e2f0f2" d="M 844.5,427.5 C 846.996,432.143 848.829,437.143 850,442.5C 853.69,463.6 848.19,481.767 833.5,497C 858.218,527.75 861.052,560.584 842,595.5C 821.456,626.737 793.623,636.07 758.5,623.5C 752.839,619.656 747.506,615.323 742.5,610.5C 735.061,601.803 728.727,592.303 723.5,582C 730.856,581.169 738.189,581.335 745.5,582.5C 757.16,607.329 776.16,615.829 802.5,608C 825.485,595.885 837.152,576.719 837.5,550.5C 837.407,535.544 832.407,522.544 822.5,511.5C 822.611,510.883 822.944,510.383 823.5,510C 802.169,509.5 780.836,509.333 759.5,509.5C 759.5,505.167 759.5,500.833 759.5,496.5C 775.216,496.92 790.883,496.42 806.5,495C 826.697,484.781 835.531,468.281 833,445.5C 831.381,439.601 829.215,433.934 826.5,428.5C 828.43,429.763 830.097,431.43 831.5,433.5C 835.173,430.918 838.84,430.918 842.5,433.5C 844.086,431.827 844.753,429.827 844.5,427.5 Z"/></g>
<g><path style="opacity:1" fill="#fdfdfe" d="M 328.5,507.5 C 364.168,507.333 399.835,507.5 435.5,508C 436.771,510.554 437.438,513.387 437.5,516.5C 437.167,519.167 436.833,521.833 436.5,524.5C 431.14,527.849 426.14,531.682 421.5,536C 417.584,539.41 414.251,543.243 411.5,547.5C 387.876,548.646 364.209,548.813 340.5,548C 326.521,539.195 316.854,527.029 311.5,511.5C 311.5,510.167 311.5,508.833 311.5,507.5C 317.167,507.5 322.833,507.5 328.5,507.5 Z"/></g>
<g><path style="opacity:1" fill="#011c37" d="M 305.5,507.5 C 306.833,507.5 308.167,507.5 309.5,507.5C 310.496,521.323 310.829,535.323 310.5,549.5C 297.15,549.833 283.817,549.499 270.5,548.5C 273.151,537.529 278.151,527.862 285.5,519.5C 289.814,515.676 294.481,512.343 299.5,509.5C 301.698,509.125 303.698,508.458 305.5,507.5 Z"/></g>
<g><path style="opacity:1" fill="#003245" d="M 740.5,509.5 C 720.007,510.497 699.34,510.831 678.5,510.5C 678.666,517.508 678.5,524.508 678,531.5C 677.623,532.942 676.79,533.942 675.5,534.5C 677.284,526.294 677.95,517.96 677.5,509.5C 698.5,509.5 719.5,509.5 740.5,509.5 Z"/></g>
<g><path style="opacity:1" fill="#aec6d6" d="M 759.5,509.5 C 780.836,509.333 802.169,509.5 823.5,510C 822.944,510.383 822.611,510.883 822.5,511.5C 801.402,510.844 780.402,510.177 759.5,509.5 Z"/></g>
<g><path style="opacity:1" fill="#203a4d" d="M 703.5,526.5 C 738.002,525.17 772.669,525.17 807.5,526.5C 806.879,531.632 806.213,536.632 805.5,541.5C 805.5,536.5 805.5,531.5 805.5,526.5C 771.5,526.5 737.5,526.5 703.5,526.5 Z"/></g>
<g><path style="opacity:1" fill="#e5f3f5" d="M 703.5,526.5 C 737.5,526.5 771.5,526.5 805.5,526.5C 805.5,531.5 805.5,536.5 805.5,541.5C 772.833,541.5 740.167,541.5 707.5,541.5C 703.087,541.218 699.087,539.885 695.5,537.5C 697.445,533.264 700.112,529.597 703.5,526.5 Z"/></g>
<g><path style="opacity:1" fill="#acbdc5" d="M 624.5,510.5 C 624.133,514.267 623.633,517.933 623,521.5C 626.504,523.073 630.004,524.407 633.5,525.5C 630.94,529.57 627.773,533.236 624,536.5C 623.175,546.675 623.342,556.675 624.5,566.5C 622.218,570.597 621.884,574.931 623.5,579.5C 623.666,585.842 623.5,592.175 623,598.5C 618.333,605.167 613.667,611.833 609,618.5C 608.333,590.167 608.333,561.833 609,533.5C 612.298,529.2 615.965,525.2 620,521.5C 621.822,517.843 623.322,514.176 624.5,510.5 Z"/></g>
<g><path style="opacity:1" fill="#20c7c8" d="M 782.5,545.5 C 800.221,543.733 810.554,551.566 813.5,569C 810.882,588.162 799.882,596.495 780.5,594C 769.843,590.181 763.843,582.681 762.5,571.5C 744.821,571.833 727.154,571.5 709.5,570.5C 711.802,566.367 714.302,562.367 717,558.5C 733.759,557.674 750.593,557.174 767.5,557C 771.569,551.741 776.569,547.908 782.5,545.5 Z"/></g>
<g><path style="opacity:1" fill="#00203d" d="M 784.5,558.5 C 794.846,557.682 799.68,562.348 799,572.5C 794.85,580.723 788.684,582.556 780.5,578C 775.685,570.192 777.018,563.692 784.5,558.5 Z"/></g>
<g><path style="opacity:1" fill="#b6c7cc" d="M 588.5,508.5 C 588.651,511.718 589.484,512.051 591,509.5C 593.13,512.599 594.63,515.932 595.5,519.5C 597.144,519.714 598.644,519.38 600,518.5C 600.334,516.153 600.167,513.819 599.5,511.5C 601.514,511.608 603.18,510.942 604.5,509.5C 601.092,537.397 591.759,563.063 576.5,586.5C 575.883,586.389 575.383,586.056 575,585.5C 573.667,587.5 572.333,589.5 571,591.5C 570.167,590.5 569.333,589.5 568.5,588.5C 567.614,589.325 567.281,590.325 567.5,591.5C 566.167,591.5 564.833,591.5 563.5,591.5C 563.785,589.712 563.452,588.045 562.5,586.5C 561.056,587.981 560.389,587.648 560.5,585.5C 575.791,561.957 585.124,536.29 588.5,508.5 Z"/></g>
<g><path style="opacity:1" fill="#1bc6c6" d="M 695.5,537.5 C 699.087,539.885 703.087,541.218 707.5,541.5C 700.265,552.284 692.765,562.95 685,573.5C 675.265,580.953 665.098,587.786 654.5,594C 648,601.167 641.5,608.333 635,615.5C 634.888,608.834 635.221,602.167 636,595.5C 636.901,592.929 638.234,590.596 640,588.5C 651.067,580.048 662.567,572.215 674.5,565C 681.642,555.855 688.642,546.688 695.5,537.5 Z"/></g>
<g><path style="opacity:1" fill="#aebec5" d="M 560.5,585.5 C 560.389,587.648 561.056,587.981 562.5,586.5C 563.452,588.045 563.785,589.712 563.5,591.5C 564.833,591.5 566.167,591.5 567.5,591.5C 567.281,590.325 567.614,589.325 568.5,588.5C 569.333,589.5 570.167,590.5 571,591.5C 572.333,589.5 573.667,587.5 575,585.5C 575.383,586.056 575.883,586.389 576.5,586.5C 567.957,598.218 558.457,609.218 548,619.5C 547.209,631.003 549.876,641.67 556,651.5C 558.741,654.729 561.241,658.062 563.5,661.5C 557.158,661.666 550.825,661.5 544.5,661C 543.584,660.626 542.75,660.126 542,659.5C 541.601,659.728 541.435,660.062 541.5,660.5C 533.15,647.431 529.65,633.098 531,617.5C 542.484,608.19 552.317,597.523 560.5,585.5 Z"/></g>
<g><path style="opacity:1" fill="#a6b8c2" d="M 510.5,588.5 C 515.844,588.334 521.177,588.501 526.5,589C 521.427,593.517 516.427,598.017 511.5,602.5C 507.936,603.423 504.269,603.756 500.5,603.5C 503.859,598.482 507.193,593.482 510.5,588.5 Z"/></g>
<g><path style="opacity:1" fill="#26c6c5" d="M 595.5,608.5 C 588.411,614.303 581.911,613.636 576,606.5C 575.51,605.207 575.343,603.873 575.5,602.5C 577.61,596.944 581.61,594.777 587.5,596C 593.647,597.974 596.314,602.141 595.5,608.5 Z"/></g>
<g><path style="opacity:1" fill="#deecee" d="M 654.5,647.5 C 649.046,647.327 643.712,647.327 638.5,647.5C 637.571,646.311 637.238,644.978 637.5,643.5C 634.978,643.872 632.978,643.039 631.5,641C 632,640.5 632.5,640 633,639.5C 634.011,640.337 635.178,640.67 636.5,640.5C 636.5,639.5 636.5,638.5 636.5,637.5C 637.5,637.5 638.5,637.5 639.5,637.5C 639.351,636.448 639.517,635.448 640,634.5C 642.205,633.588 644.038,632.255 645.5,630.5C 649.961,631.032 654.294,632.032 658.5,633.5C 659.916,606.92 673.916,594.753 700.5,597C 714.676,600.509 723.509,609.342 727,623.5C 728.692,639.948 722.526,652.448 708.5,661C 689.567,668.021 674.233,663.355 662.5,647C 659.843,646.825 657.176,646.992 654.5,647.5 Z"/></g>
<g><path style="opacity:1" fill="#485f70" d="M 511.5,602.5 C 413.506,604.498 315.172,605.164 216.5,604.5C 216.5,609.167 216.5,613.833 216.5,618.5C 313.668,618.167 410.668,618.501 507.5,619.5C 409.999,619.833 312.665,619.499 215.5,618.5C 215.5,613.5 215.5,608.5 215.5,603.5C 310.5,603.5 405.5,603.5 500.5,603.5C 504.269,603.756 507.936,603.423 511.5,602.5 Z"/></g>
<g><path style="opacity:1" fill="#067d8f" d="M 575.5,602.5 C 575.343,603.873 575.51,605.207 576,606.5C 581.911,613.636 588.411,614.303 595.5,608.5C 593.665,616.499 588.665,619.999 580.5,619C 573.641,614.932 571.974,609.432 575.5,602.5 Z"/></g>
<g><path style="opacity:1" fill="#031c34" d="M 688.5,610.5 C 704.368,610.866 712.201,618.866 712,634.5C 710.167,641.667 705.667,646.167 698.5,648C 686.532,650.432 678.365,645.932 674,634.5C 672.826,629.06 673.826,624.06 677,619.5C 680.161,615.491 683.994,612.491 688.5,610.5 Z"/></g>
<g><path style="opacity:1" fill="#859ba2" d="M 215.5,603.5 C 215.5,608.5 215.5,613.5 215.5,618.5C 207.833,618.5 200.167,618.5 192.5,618.5C 190.922,613.63 189.589,608.63 188.5,603.5C 197.5,603.5 206.5,603.5 215.5,603.5 Z"/></g>
<g><path style="opacity:1" fill="#098593" d="M 742.5,610.5 C 747.506,615.323 752.839,619.656 758.5,623.5C 758.148,646.869 749.148,666.203 731.5,681.5C 731.5,680.167 731.5,678.833 731.5,677.5C 725.509,677.034 719.509,676.701 713.5,676.5C 730.511,666.856 740.344,652.189 743,632.5C 743.582,625.148 743.415,617.815 742.5,610.5 Z"/></g>
<g><path style="opacity:1" fill="#edf2f4" d="M 691.5,625.5 C 696.772,626.263 698.439,629.097 696.5,634C 692.31,636.536 689.31,635.536 687.5,631C 688.007,628.455 689.341,626.621 691.5,625.5 Z"/></g>
<g><path style="opacity:1" fill="#021a34" d="M 223.5,635.5 C 313.167,635.5 402.833,635.5 492.5,635.5C 492.565,640.454 493.232,645.287 494.5,650C 404.167,650.5 313.834,650.667 223.5,650.5C 223.5,645.5 223.5,640.5 223.5,635.5 Z"/></g>
<g><path style="opacity:1" fill="#748c9c" d="M 223.5,635.5 C 223.5,640.5 223.5,645.5 223.5,650.5C 216.137,650.831 208.803,650.497 201.5,649.5C 200.101,644.996 198.768,640.496 197.5,636C 206.16,635.5 214.827,635.334 223.5,635.5 Z"/></g>
<g><path style="opacity:1" fill="#baccd3" d="M 645.5,630.5 C 644.038,632.255 642.205,633.588 640,634.5C 639.517,635.448 639.351,636.448 639.5,637.5C 638.5,637.5 637.5,637.5 636.5,637.5C 636.5,638.5 636.5,639.5 636.5,640.5C 635.178,640.67 634.011,640.337 633,639.5C 632.5,640 632,640.5 631.5,641C 632.978,643.039 634.978,643.872 637.5,643.5C 637.238,644.978 637.571,646.311 638.5,647.5C 643.712,647.327 649.046,647.327 654.5,647.5C 650.609,648.222 646.609,649.056 642.5,650C 630.098,659.6 616.098,662.933 600.5,660C 587.038,657.507 576.538,650.673 569,639.5C 567.991,637.975 567.491,636.308 567.5,634.5C 572.844,634.334 578.177,634.501 583.5,635C 591.591,641.712 600.925,644.546 611.5,643.5C 623.744,643.378 634.077,638.878 642.5,630C 643.749,629.26 644.749,629.427 645.5,630.5 Z"/></g>
<g><path style="opacity:1" fill="#061e37" d="M 204.5,665.5 C 302.501,665.333 400.501,665.5 498.5,666C 500.643,671.286 503.309,676.286 506.5,681C 407.165,681.833 307.832,681.667 208.5,680.5C 206.695,675.613 205.362,670.613 204.5,665.5 Z"/></g>
<g><path style="opacity:1" fill="#d9e7ea" d="M 563.5,661.5 C 582.313,676.473 603.646,681.306 627.5,676C 635.99,673.561 643.99,670.061 651.5,665.5C 654.186,667.856 656.853,670.189 659.5,672.5C 659.5,674.5 659.5,676.5 659.5,678.5C 655.453,678.355 652.453,680.022 650.5,683.5C 625.774,697.293 600.108,699.126 573.5,689C 559.691,682.944 549.025,673.444 541.5,660.5C 541.435,660.062 541.601,659.728 542,659.5C 542.75,660.126 543.584,660.626 544.5,661C 550.825,661.5 557.158,661.666 563.5,661.5 Z"/></g>
<g><path style="opacity:1" fill="#1ab6b9" d="M 661.5,674.5 C 678.557,682.929 695.891,683.596 713.5,676.5C 719.509,676.701 725.509,677.034 731.5,677.5C 731.5,678.833 731.5,680.167 731.5,681.5C 716.881,693.33 700.214,697.496 681.5,694C 676.182,693.641 671.182,692.474 666.5,690.5C 668.869,690.851 671.203,691.018 673.5,691C 668.483,686.163 664.483,680.663 661.5,674.5 Z"/></g>
<g><path style="opacity:1" fill="#54dfe1" d="M 659.5,672.5 C 660.5,672.833 661.167,673.5 661.5,674.5C 664.483,680.663 668.483,686.163 673.5,691C 671.203,691.018 668.869,690.851 666.5,690.5C 660.796,688.935 655.463,686.602 650.5,683.5C 652.453,680.022 655.453,678.355 659.5,678.5C 659.5,676.5 659.5,674.5 659.5,672.5 Z"/></g>
<g><path style="opacity:1" fill="#aec4c9" d="M 774.5,674.5 C 771.726,680.809 768.226,686.809 764,692.5C 760.296,696.036 756.796,699.702 753.5,703.5C 747.154,709.326 740.487,714.66 733.5,719.5C 724.333,725.297 714.333,728.964 703.5,730.5C 703.611,729.883 703.944,729.383 704.5,729C 709.956,727.693 715.289,725.859 720.5,723.5C 721.246,722.264 721.579,720.93 721.5,719.5C 724.247,719.813 726.914,719.48 729.5,718.5C 728.653,717.155 727.487,716.155 726,715.5C 725.517,714.552 725.351,713.552 725.5,712.5C 723.089,712.863 721.589,711.863 721,709.5C 718.815,710.67 716.649,711.836 714.5,713C 715.364,715.562 717.031,717.395 719.5,718.5C 718.167,719.5 716.833,720.5 715.5,721.5C 714.727,719.187 714.06,716.854 713.5,714.5C 710.855,712.405 708.855,712.572 707.5,715C 704.518,715.498 701.518,715.665 698.5,715.5C 725.444,707.73 745.777,691.564 759.5,667C 764.917,664.21 770.084,661.043 775,657.5C 775.554,663.188 775.387,668.855 774.5,674.5 Z"/></g>
<g><path style="opacity:1" fill="#72828f" d="M 516.5,697.5 C 453.331,697.168 390.331,697.501 327.5,698.5C 326.957,698.44 326.624,698.107 326.5,697.5C 389.999,696.168 453.332,696.168 516.5,697.5 Z"/></g>
<g><path style="opacity:1" fill="#011c33" d="M 251.5,697.5 C 250.892,698.8 250.225,700.133 249.5,701.5C 250.327,704.783 250.66,708.116 250.5,711.5C 248.821,711.285 247.821,711.952 247.5,713.5C 236.833,713.5 226.167,713.5 215.5,713.5C 214.011,708.383 213.011,703.049 212.5,697.5C 225.5,697.5 238.5,697.5 251.5,697.5 Z"/></g>
<g><path style="opacity:1" fill="#003c50" d="M 275.5,697.5 C 279.833,697.5 284.167,697.5 288.5,697.5C 288.5,702.833 288.5,708.167 288.5,713.5C 280.167,713.5 271.833,713.5 263.5,713.5C 264.287,711.896 265.62,711.229 267.5,711.5C 267.176,707.445 267.509,703.445 268.5,699.5C 270.982,698.933 273.316,698.266 275.5,697.5 Z"/></g>
<g><path style="opacity:1" fill="#001a32" d="M 516.5,697.5 C 517.5,697.833 518.167,698.5 518.5,699.5C 522.527,704.194 526.86,708.527 531.5,712.5C 474.829,712.167 418.163,712.5 361.5,713.5C 361.624,714.107 361.957,714.44 362.5,714.5C 364.748,717.328 366.748,720.328 368.5,723.5C 367.394,724.149 366.394,724.483 365.5,724.5C 366.242,725.287 367.075,725.953 368,726.5C 368.535,730.531 370.701,733.198 374.5,734.5C 369.521,734.344 364.521,734.344 359.5,734.5C 361.005,735.842 361.672,737.508 361.5,739.5C 358.412,739.197 356.746,740.53 356.5,743.5C 357.5,743.5 358.5,743.5 359.5,743.5C 359.5,745.167 359.5,746.833 359.5,748.5C 344.304,734.784 333.637,718.117 327.5,698.5C 390.331,697.501 453.331,697.168 516.5,697.5 Z"/></g>
<g><path style="opacity:1" fill="#e0edef" d="M 540.5,695.5 C 568.494,718.086 600.16,725.086 635.5,716.5C 637.514,716.437 639.181,717.103 640.5,718.5C 643.52,721.516 646.854,724.183 650.5,726.5C 650.5,727.167 650.5,727.833 650.5,728.5C 635.181,735.598 619.015,738.931 602,738.5C 589.195,737.672 576.695,735.339 564.5,731.5C 561.46,729.654 558.127,728.321 554.5,727.5C 547.175,722.836 539.841,718.17 532.5,713.5C 532.5,712.833 532.167,712.5 531.5,712.5C 526.86,708.527 522.527,704.194 518.5,699.5C 522.014,698.071 525.514,697.404 529,697.5C 529.645,698.646 530.478,699.646 531.5,700.5C 529.434,703.298 527.934,702.965 527,699.5C 524.291,700.824 523.958,702.49 526,704.5C 526.414,704.043 526.914,703.709 527.5,703.5C 529.367,705.864 531.367,705.864 533.5,703.5C 535.455,704.453 537.122,705.787 538.5,707.5C 538.98,704.373 539.98,701.54 541.5,699C 540.663,697.989 540.33,696.822 540.5,695.5 Z"/></g>
<g><path style="opacity:1" fill="#297d8b" d="M 288.5,697.5 C 294.833,697.5 301.167,697.5 307.5,697.5C 308.628,703.141 309.628,708.808 310.5,714.5C 278.662,714.832 246.996,714.498 215.5,713.5C 226.167,713.5 236.833,713.5 247.5,713.5C 252.833,713.5 258.167,713.5 263.5,713.5C 271.833,713.5 280.167,713.5 288.5,713.5C 288.5,708.167 288.5,702.833 288.5,697.5 Z"/></g>
<g><path style="opacity:1" fill="#013044" d="M 251.5,697.5 C 259.5,697.5 267.5,697.5 275.5,697.5C 273.316,698.266 270.982,698.933 268.5,699.5C 267.509,703.445 267.176,707.445 267.5,711.5C 265.62,711.229 264.287,711.896 263.5,713.5C 258.167,713.5 252.833,713.5 247.5,713.5C 247.821,711.952 248.821,711.285 250.5,711.5C 250.66,708.116 250.327,704.783 249.5,701.5C 250.225,700.133 250.892,698.8 251.5,697.5 Z"/></g>
<g><path style="opacity:1" fill="#169ea9" d="M 774.5,674.5 C 771.714,689.396 765.714,702.729 756.5,714.5C 756.5,712.833 756.5,711.167 756.5,709.5C 757.5,709.5 758.5,709.5 759.5,709.5C 759.5,708.5 759.5,707.5 759.5,706.5C 757.03,706.346 755.03,705.346 753.5,703.5C 756.796,699.702 760.296,696.036 764,692.5C 768.226,686.809 771.726,680.809 774.5,674.5 Z"/></g>
<g><path style="opacity:1" fill="#003549" d="M 531.5,712.5 C 532.167,712.5 532.5,712.833 532.5,713.5C 502.833,713.5 473.167,713.5 443.5,713.5C 416.328,713.169 389.328,713.502 362.5,714.5C 361.957,714.44 361.624,714.107 361.5,713.5C 418.163,712.5 474.829,712.167 531.5,712.5 Z"/></g>
<g><path style="opacity:1" fill="#0babb6" d="M 443.5,713.5 C 473.167,713.5 502.833,713.5 532.5,713.5C 539.841,718.17 547.175,722.836 554.5,727.5C 504.167,727.5 453.833,727.5 403.5,727.5C 404.167,724.833 404.833,722.167 405.5,719.5C 409.971,719.328 410.304,718.494 406.5,717C 406.957,716.586 407.291,716.086 407.5,715.5C 419.66,714.833 431.66,714.167 443.5,713.5 Z"/></g>
<g><path style="opacity:1" fill="#c0d0d5" d="M 703.5,730.5 C 689.262,734.023 674.928,734.357 660.5,731.5C 657.037,730.901 653.704,729.901 650.5,728.5C 650.5,727.833 650.5,727.167 650.5,726.5C 653.427,725.243 655.761,723.243 657.5,720.5C 659.914,718.626 662.58,717.293 665.5,716.5C 676.552,717.83 687.552,717.497 698.5,715.5C 701.518,715.665 704.518,715.498 707.5,715C 708.855,712.572 710.855,712.405 713.5,714.5C 714.06,716.854 714.727,719.187 715.5,721.5C 716.833,720.5 718.167,719.5 719.5,718.5C 717.031,717.395 715.364,715.562 714.5,713C 716.649,711.836 718.815,710.67 721,709.5C 721.589,711.863 723.089,712.863 725.5,712.5C 725.351,713.552 725.517,714.552 726,715.5C 727.487,716.155 728.653,717.155 729.5,718.5C 726.914,719.48 724.247,719.813 721.5,719.5C 721.579,720.93 721.246,722.264 720.5,723.5C 715.289,725.859 709.956,727.693 704.5,729C 703.944,729.383 703.611,729.883 703.5,730.5 Z"/></g>
<g><path style="opacity:1" fill="#0b95a4" d="M 443.5,713.5 C 431.66,714.167 419.66,714.833 407.5,715.5C 407.291,716.086 406.957,716.586 406.5,717C 410.304,718.494 409.971,719.328 405.5,719.5C 404.833,722.167 404.167,724.833 403.5,727.5C 398.156,727.334 392.823,727.501 387.5,728C 395.155,735.161 404.155,739.661 414.5,741.5C 416.302,742.458 418.302,743.125 420.5,743.5C 420.5,743.833 420.5,744.167 420.5,744.5C 417.813,744.664 415.146,744.497 412.5,744C 408.435,742.81 404.435,741.31 400.5,739.5C 399.5,739.833 398.5,740.167 397.5,740.5C 401.546,741.394 402.213,743.227 399.5,746C 401.119,746.236 402.119,747.069 402.5,748.5C 389.342,742.594 378.009,734.26 368.5,723.5C 366.748,720.328 364.748,717.328 362.5,714.5C 389.328,713.502 416.328,713.169 443.5,713.5 Z"/></g>
<g><path style="opacity:1" fill="#225f7c" d="M 640.5,718.5 C 646.262,718.732 651.928,719.399 657.5,720.5C 655.761,723.243 653.427,725.243 650.5,726.5C 646.854,724.183 643.52,721.516 640.5,718.5 Z"/></g>
<g><path style="opacity:1" fill="#011e39" d="M 403.5,727.5 C 453.833,727.5 504.167,727.5 554.5,727.5C 558.127,728.321 561.46,729.654 564.5,731.5C 564.062,731.435 563.728,731.601 563.5,732C 568.42,734.918 573.754,736.752 579.5,737.5C 580.706,739.149 582.039,740.649 583.5,742C 527.149,742.813 470.815,742.646 414.5,741.5C 404.155,739.661 395.155,735.161 387.5,728C 392.823,727.501 398.156,727.334 403.5,727.5 Z"/></g>
<g><path style="opacity:1" fill="#20a0ab" d="M 269.5,730.5 C 273.182,730.335 276.848,730.501 280.5,731C 287.157,735.263 288.157,740.597 283.5,747C 278.924,748.476 274.257,748.81 269.5,748C 261.556,742.131 261.556,736.297 269.5,730.5 Z"/></g>
<g><path style="opacity:1" fill="#2cafb5" d="M 307.5,730.5 C 312.844,730.334 318.177,730.501 323.5,731C 329.823,733.811 332.323,738.645 331,745.5C 329.829,746.893 328.329,747.727 326.5,748C 320.5,748.667 314.5,748.667 308.5,748C 302.762,742.355 302.428,736.522 307.5,730.5 Z"/></g>
<g><path style="opacity:1" fill="#078b9b" d="M 733.5,719.5 C 728.188,728.475 720.522,734.475 710.5,737.5C 706.16,744.349 699.826,748.182 691.5,749C 681.5,749.667 671.5,749.667 661.5,749C 658.788,748.361 656.788,746.861 655.5,744.5C 577.167,744.5 498.833,744.5 420.5,744.5C 420.5,744.167 420.5,743.833 420.5,743.5C 499.169,743.833 577.836,743.5 656.5,742.5C 658.375,739.249 660.375,736.082 662.5,733C 661.584,732.722 660.918,732.222 660.5,731.5C 674.928,734.357 689.262,734.023 703.5,730.5C 714.333,728.964 724.333,725.297 733.5,719.5 Z"/></g>
<g><path style="opacity:1" fill="#1bbdc0" d="M 753.5,703.5 C 755.03,705.346 757.03,706.346 759.5,706.5C 759.5,707.5 759.5,708.5 759.5,709.5C 758.5,709.5 757.5,709.5 756.5,709.5C 756.5,711.167 756.5,712.833 756.5,714.5C 753.13,720.379 748.797,725.545 743.5,730C 725.722,744.769 705.389,754.269 682.5,758.5C 674.854,759.207 667.187,759.54 659.5,759.5C 655.018,758.674 650.351,758.174 645.5,758C 650.391,754.745 653.724,750.245 655.5,744.5C 656.788,746.861 658.788,748.361 661.5,749C 671.5,749.667 681.5,749.667 691.5,749C 699.826,748.182 706.16,744.349 710.5,737.5C 720.522,734.475 728.188,728.475 733.5,719.5C 740.487,714.66 747.154,709.326 753.5,703.5 Z"/></g>
<g><path style="opacity:1" fill="#02213a" d="M 650.5,728.5 C 653.704,729.901 657.037,730.901 660.5,731.5C 660.918,732.222 661.584,732.722 662.5,733C 660.375,736.082 658.375,739.249 656.5,742.5C 577.836,743.5 499.169,743.833 420.5,743.5C 418.302,743.125 416.302,742.458 414.5,741.5C 470.815,742.646 527.149,742.813 583.5,742C 582.039,740.649 580.706,739.149 579.5,737.5C 573.754,736.752 568.42,734.918 563.5,732C 563.728,731.601 564.062,731.435 564.5,731.5C 576.695,735.339 589.195,737.672 602,738.5C 619.015,738.931 635.181,735.598 650.5,728.5 Z"/></g>
<g><path style="opacity:1" fill="#010d22" d="M 213.5,739.5 C 215.833,739.5 218.167,739.5 220.5,739.5C 220.5,741.5 220.5,743.5 220.5,745.5C 218.167,745.5 215.833,745.5 213.5,745.5C 213.5,743.5 213.5,741.5 213.5,739.5 Z"/></g>
<g><path style="opacity:1" fill="#0799a5" d="M 420.5,744.5 C 498.833,744.5 577.167,744.5 655.5,744.5C 653.724,750.245 650.391,754.745 645.5,758C 650.351,758.174 655.018,758.674 659.5,759.5C 588.833,759.5 518.167,759.5 447.5,759.5C 438.352,759.503 429.352,758.336 420.5,756C 414.046,754.355 408.046,751.855 402.5,748.5C 402.119,747.069 401.119,746.236 399.5,746C 402.213,743.227 401.546,741.394 397.5,740.5C 398.5,740.167 399.5,739.833 400.5,739.5C 404.435,741.31 408.435,742.81 412.5,744C 415.146,744.497 417.813,744.664 420.5,744.5 Z"/></g>
<g><path style="opacity:1" fill="#003148" d="M 682.5,758.5 C 682.389,759.117 682.056,759.617 681.5,760C 670.839,760.5 660.172,760.667 649.5,760.5C 610.167,760.5 570.833,760.5 531.5,760.5C 503.328,760.831 475.328,760.498 447.5,759.5C 518.167,759.5 588.833,759.5 659.5,759.5C 667.187,759.54 674.854,759.207 682.5,758.5 Z"/></g>
<g><path style="opacity:1" fill="#001b3a" d="M 531.5,760.5 C 570.833,760.5 610.167,760.5 649.5,760.5C 649.5,762.833 649.5,765.167 649.5,767.5C 656.833,767.5 664.167,767.5 671.5,767.5C 671.5,770.167 671.5,772.833 671.5,775.5C 660.828,775.333 650.161,775.5 639.5,776C 640.759,776.923 642.092,777.757 643.5,778.5C 654.151,779.332 664.818,779.832 675.5,780C 644.057,779.91 612.557,780.077 581,780.5C 563.167,780.333 545.333,780.167 527.5,780C 533.782,778.908 540.116,778.242 546.5,778C 540.141,777.831 533.807,777.331 527.5,776.5C 528.689,775.571 530.022,775.238 531.5,775.5C 531.5,774.167 531.5,772.833 531.5,771.5C 530.167,771.5 528.833,771.5 527.5,771.5C 527.5,770.167 527.5,768.833 527.5,767.5C 528.833,767.5 530.167,767.5 531.5,767.5C 531.773,765.549 531.107,764.049 529.5,763C 530.756,762.583 531.423,761.75 531.5,760.5 Z"/></g>
<g><path style="opacity:1" fill="#071a37" d="M 316.5,774.5 C 319.167,774.5 321.833,774.5 324.5,774.5C 324.5,776.5 324.5,778.5 324.5,780.5C 321.833,780.5 319.167,780.5 316.5,780.5C 316.5,778.5 316.5,776.5 316.5,774.5 Z"/></g>
<g><path style="opacity:1" fill="#ccdde6" d="M 686.5,780.5 C 645.505,781.833 604.172,782.5 562.5,782.5C 520.999,782.5 479.665,782.167 438.5,781.5C 521.177,781.805 603.843,781.472 686.5,780.5 Z"/></g>
<g><path style="opacity:1" fill="#b5cad1" d="M 241.5,797.5 C 418.5,797.333 595.5,797.5 772.5,798C 779.858,800.656 780.192,803.656 773.5,807C 597.5,807.667 421.5,807.667 245.5,807C 241.292,807.26 237.959,805.76 235.5,802.5C 237.162,800.348 239.162,798.682 241.5,797.5 Z"/></g>
</svg>
