<svg xmlns="http://www.w3.org/2000/svg" id="Ebene_1" data-name="Ebene 1" viewBox="0 0 297.41117 148.75823"><defs><style>      .cls-1 {        fill: #e8511e;      }      .cls-2 {        fill: #e5316c;      }    </style></defs><path class="cls-1" d="m34.32877,136.73259c2.73841,0,5.26976-.46855,7.596-1.40177,2.32429-.93516,4.34529-2.25916,6.06299-3.97783,1.71673-1.71576,3.05337-3.71634,4.00992-5.99883.95558-2.28152,1.43385-4.79051,1.43385-7.52989,0-2.73841-.47827-5.2474-1.43385-7.52892-.95655-2.28249-2.29319-4.28113-4.00992-5.9998-1.7177-1.71576-3.7387-3.0417-6.06299-3.97686-2.32624-.93419-4.85759-1.40177-7.596-1.40177s-5.28045.46758-7.62808,1.40177c-2.34762.93516-4.37932,2.26111-6.09605,3.97686-1.7177,1.71867-3.06503,3.71731-4.04297,5.9998-.97793,2.28152-1.4669,4.79051-1.4669,7.52892,0,2.69661.48897,5.19491,1.4669,7.49781.97793,2.30388,2.32527,4.31515,4.04297,6.03091,1.71673,1.71867,3.74842,3.04267,6.09605,3.97783,2.34762.93322,4.88967,1.40177,7.62808,1.40177m0,4.30349c-3.43443,0-6.61806-.57645-9.55187-1.72839-2.9338-1.14999-5.47682-2.78021-7.62808-4.88966-2.15223-2.10849-3.82522-4.56304-5.01993-7.36755-1.19666-2.80354-1.79353-5.87829-1.79353-9.22621,0-3.34597.59687-6.4217,1.79353-9.22523,1.19471-2.80451,2.8677-5.25906,5.01993-7.36852,2.15126-2.10557,4.68358-3.73675,7.596-4.88869,2.91144-1.15097,6.10577-1.72742,9.58395-1.72742,3.43346,0,6.6064.57646,9.51881,1.72742,2.91144,1.15194,5.44474,2.77049,7.596,4.85759,2.15126,2.0871,3.82425,4.54165,5.01993,7.36658,1.19568,2.82687,1.79353,5.91232,1.79353,9.25828,0,3.34791-.59784,6.43336-1.79353,9.25926-1.19568,2.82492-2.86867,5.27948-5.01993,7.36657-2.15126,2.0871-4.68456,3.70759-7.596,4.85759-2.91241,1.15194-6.08535,1.72839-9.51881,1.72839"/><path class="cls-2" d="m78.80661,136.47214h13.49665c4.042,0,7.55128-.79323,10.5298-2.3797,2.97657-1.58647,5.29115-3.78147,6.94275-6.58598,1.6516-2.80354,2.47789-6.03091,2.47789-9.68115,0-3.69398-.82629-6.93302-2.47789-9.71517-1.6516-2.78118-3.96617-4.96452-6.94275-6.55293-2.97852-1.5855-6.4878-2.37873-10.5298-2.37873h-13.49665v37.29366Zm-4.82454,4.17323v-45.64012h18.58171c4.86731,0,9.13775.96821,12.81132,2.90172,3.6726,1.93351,6.5296,4.61845,8.57393,8.05094,2.04238,3.43638,3.06406,7.39088,3.06406,11.8674,0,4.4775-1.02168,8.43394-3.06406,11.86643-2.04433,3.43346-4.90134,6.1184-8.57393,8.05094-3.67357,1.93642-7.94401,2.90269-12.81132,2.90269h-18.58171Z"/><path class="cls-2" d="m137.04177,115.41171h24.12364v4.10811h-24.12364v-4.10811Zm.52201,21.06057h27.44922v4.17225h-32.27377v-45.63915h31.29487v4.17326h-26.47032v37.29365Z"/><path class="cls-2" d="m179.5569,140.64486v-45.63915h4.82648v41.46592h25.55751v4.17323h-30.38399Z"/><rect class="cls-2" x="222.95993" y="95.00537" width="4.82452" height="45.63915"/><path class="cls-2" d="m248.80417,128.4521l1.43482-3.91173h26.53447l1.43579,3.91173h-29.40509Zm-8.2162,12.19305l20.86323-45.63915h4.76135l20.86323,45.63915h-5.087l-19.16692-42.83561h1.95587l-19.16789,42.83561h-5.02187Z"/><path class="cls-2" d="m97.23037,32.03716v-5.07825l4.39876-2.5401,4.3939,2.5401v5.07825l-4.3939,2.53815-4.39876-2.53815Z"/><path class="cls-2" d="m128.94415,33.73073v-8.467l7.33061-4.2335,7.32867,4.2335v8.467l-7.32867,4.23155-7.33061-4.23155Z"/><path class="cls-2" d="m146.26755,33.73073v-8.467l7.3345-4.2335,7.32867,4.2335v8.467l-7.32867,4.23155-7.3345-4.23155Z"/><path class="cls-2" d="m121.0155,48.30748v-7.61641l6.59862-3.80869,6.59765,3.80869v7.61641l-6.59765,3.80772-6.59862-3.80772Z"/><path class="cls-2" d="m136.87281,49.15551v-9.31078l8.06163-4.65636,8.06649,4.65636v9.31078l-8.06649,4.65344-8.06163-4.65344Z"/><path class="cls-2" d="m154.93061,48.73154v-8.46408l7.33061-4.23155,7.33159,4.23155v8.46408l-7.33159,4.23058-7.33061-4.23058Z"/><path class="cls-2" d="m97.22655,62.0451v-5.08603l4.40265-2.5401,4.39876,2.54107v5.08506l-4.39876,2.5401-4.40265-2.5401Z"/><path class="cls-2" d="m130.41025,62.88932v-6.77457l5.86371-3.38485,5.86274,3.38583v6.7736l-5.86274,3.38583-5.86371-3.38583Z"/><path class="cls-2" d="m147.00196,63.31221v-7.62224l6.59959-3.80966,6.59765,3.81063v7.62127l-6.59765,3.80966-6.59959-3.80966Z"/><g><polygon class="cls-2" points="165.05707 26.1104 165.05707 32.88396 170.92078 36.26983 173.50879 34.7752 173.50879 28.00829 167.63807 24.6209 165.05707 26.1104"/><polygon class="cls-2" points="170.92078 22.72649 169.59272 23.49291 175.46192 26.87938 175.46192 33.64721 176.78351 32.88396 176.78351 26.1104 170.92078 22.72649"/></g><polygon class="cls-2" points="179.58167 39.4218 175.46192 41.79998 175.46192 47.19915 179.58167 49.57732 183.98041 47.03917 183.98041 41.95995 179.58167 39.4218"/><g><polygon class="cls-2" points="173.50879 53.37426 170.92225 51.8803 164.32264 55.68999 164.32264 63.31218 166.90607 64.80352 173.50879 60.99559 173.50879 53.37426"/><polygon class="cls-2" points="175.46192 54.50231 175.46192 62.1245 168.8606 65.93175 170.92225 67.12188 177.5199 63.31218 177.5199 55.69097 175.46192 54.50231"/></g><g><polygon class="cls-2" points="162.26484 66.87249 155.6623 70.68309 155.6623 71.28808 162.79114 67.17669 162.26484 66.87249"/><polygon class="cls-2" points="155.6623 73.54369 155.6623 78.30535 162.26484 82.11498 168.85956 78.30535 168.85956 70.68407 164.74451 68.30565 155.6623 73.54369"/></g><g><polygon class="cls-2" points="150.80231 74.09093 150.80231 71.10918 144.93567 67.72045 139.07196 71.1082 139.07196 74.10375 144.92334 77.48143 150.80231 74.09093"/><polygon class="cls-2" points="144.92334 79.73729 139.07196 76.35961 139.07196 77.87987 144.93567 81.2647 150.80231 77.87987 150.80231 76.34667 144.92334 79.73729"/></g><g><polygon class="cls-2" points="125.54975 63.31218 125.54975 55.69286 118.95111 51.88323 116.36475 53.37578 116.36475 60.99608 122.96363 64.80529 125.54975 63.31218"/><polygon class="cls-2" points="114.41065 62.12401 114.41065 54.50347 112.34955 55.69286 112.34955 63.31218 118.95111 67.12188 121.00977 65.93334 114.41065 62.12401"/></g><polygon class="cls-2" points="114.41065 40.95446 110.28839 38.57512 105.15863 41.5371 105.15863 47.46203 110.28839 50.42308 114.41065 48.04448 114.41065 40.95446"/><g><polygon class="cls-2" points="116.36475 35.62456 118.95111 37.11675 125.54975 33.30809 125.54975 25.68682 122.96662 24.19506 116.36475 28.0078 116.36475 35.62456"/><polygon class="cls-2" points="114.41065 26.87987 121.01313 23.06694 118.95111 21.87615 112.34955 25.68682 112.34955 33.30809 114.41065 34.49718 114.41065 26.87987"/></g><polygon class="cls-2" points="132.74561 16.29143 132.74561 11.53222 127.61194 8.56829 122.48023 11.53124 122.48023 17.45519 126.60572 19.83721 132.74561 16.29143"/><g><polygon class="cls-2" points="139.07196 14.89391 139.07196 17.8806 144.93567 21.26543 150.80231 17.8806 150.80231 14.90679 144.92334 11.51464 139.07196 14.89391"/><polygon class="cls-2" points="144.92334 9.25878 150.80231 12.65093 150.80231 11.10991 144.93567 7.72216 139.07196 11.10698 139.07196 12.63793 144.92334 9.25878"/></g></svg>