<?xml version="1.0" encoding="UTF-8" standalone="no"?>
<!DOCTYPE svg PUBLIC "-//W3C//DTD SVG 1.1//EN" "http://www.w3.org/Graphics/SVG/1.1/DTD/svg11.dtd">
<svg width="100%" height="100%" viewBox="0 0 785 785" version="1.1" xmlns="http://www.w3.org/2000/svg" xmlns:xlink="http://www.w3.org/1999/xlink" xml:space="preserve" xmlns:serif="http://www.serif.com/" style="fill-rule:evenodd;clip-rule:evenodd;stroke-linecap:round;stroke-linejoin:round;stroke-miterlimit:1.5;">
    <g transform="matrix(3.125,0,0,3.125,0,0)">
        <g transform="matrix(1,0,0,1,-797.744,-1289.25)">
            <circle cx="923.197" cy="1414.7" r="123.37" style="fill:url(#_Radial1);stroke:black;stroke-width:4.17px;"/>
        </g>
        <g id="woman-scientist.svg" transform="matrix(6.87994,0,0,6.87994,130.537,116.856)">
            <g transform="matrix(1,0,0,1,-12,-12)">
                <clipPath id="_clip2">
                    <rect x="0" y="0" width="24" height="24"/>
                </clipPath>
                <g clip-path="url(#_clip2)">
                    <path d="M23.636,21.442L20,17.087L20,13L21,13L21,12L16,12L16,13L17,13L17,17.087L13.364,21.442C12.971,21.912 12.888,22.584 13.154,23.152C13.399,23.674 13.891,24 14.438,24L22.561,24C23.108,24 23.6,23.675 23.845,23.152C24.111,22.584 24.028,21.912 23.635,21.442L23.636,21.442ZM22.94,22.728C22.902,22.81 22.789,22.999 22.562,22.999L14.439,22.999C14.212,22.999 14.099,22.81 14.061,22.728C13.984,22.563 13.956,22.294 14.132,22.082L18,17.449L18,12.999L19,12.999L19,17.449L22.868,22.082C23.045,22.294 23.016,22.562 22.939,22.728L22.94,22.728ZM8.959,20.259L4.389,15.011C2.512,15.072 1.001,16.608 1.001,18.5L1.001,24L0,24L0,18.5C0,16.019 2.019,14 4.5,14L4.833,14L8.962,18.74L13.126,14L13.353,14C13.938,14 14.489,14.117 15,14.311L15,15.389C14.568,15.168 14.089,15.026 13.576,15.004L8.958,20.26L8.959,20.259ZM3.157,7.344C3.769,10.007 6.154,12 9,12C10.751,12 12.328,11.246 13.426,10.047C13.321,9.603 13.224,9.191 13.134,8.809C12.233,10.13 10.716,11 9,11C6.585,11 4.565,9.278 4.101,6.998L5.015,6.998C8.182,6.903 10.895,4.783 11.823,1.791C12.949,2.465 13.832,3.525 14.248,4.848C14.274,4.935 14.744,6.917 15.47,9.999L16.504,9.999C15.831,7.141 15.259,4.731 15.202,4.549C14.347,1.827 11.854,-0.001 9,-0.001C6.146,-0.001 3.652,1.829 2.798,4.55C2.716,4.811 1.572,9.672 0.59,13.856C0.972,13.523 1.388,13.228 1.829,12.978C2.367,10.693 2.823,8.756 3.157,7.343L3.157,7.344ZM9,1C9.672,1 10.315,1.131 10.917,1.353C10.16,4.017 7.775,5.915 4.999,5.997L3.476,5.999C3.643,5.297 3.741,4.887 3.752,4.849C4.475,2.546 6.584,0.999 9,0.999L9,1Z" style="fill-rule:nonzero;"/>
                </g>
            </g>
        </g>
    </g>
    <defs>
        <radialGradient id="_Radial1" cx="0" cy="0" r="1" gradientUnits="userSpaceOnUse" gradientTransform="matrix(246.74,0,0,246.74,799.827,1414.7)"><stop offset="0" style="stop-color:rgb(129,251,191);stop-opacity:1"/><stop offset="1" style="stop-color:rgb(74,207,225);stop-opacity:1"/></radialGradient>
    </defs>
</svg>
